<?xml version="1.0" encoding="UTF-8"?>
<svg width="772px" height="496px" viewBox="0 0 772 496" version="1.1" xmlns="http://www.w3.org/2000/svg" xmlns:xlink="http://www.w3.org/1999/xlink">
    <title>childrens-hospital-colorado-logo</title>
    <defs>
        <path d="M241.058,451.671 C243.316,450.329 245.055,448.687 245.449,446.017 C242.9,447.171 241.058,444.563 241.058,442.689 C241.058,440.327 241.925,438.497 244.568,438.497 C247.286,438.497 248.301,441.043 248.301,443.364 C248.301,447.672 245.891,451.237 242.064,453.165 C242.064,453.165 245.891,451.237 242.064,453.165 L241.058,451.671 L241.058,451.671 Z" id="path-1"></path>
        <path d="M46.964,481.482 C45.154,482.443 41.174,483.441 36.122,483.441 C22.775,483.441 14.677,475.018 14.677,462.242 C14.677,448.38 24.277,440.028 37.11,440.028 C42.162,440.028 45.784,441.071 47.327,441.885 L45.663,448.004 C43.665,447.127 40.915,446.385 37.423,446.385 C28.892,446.385 22.708,451.748 22.708,461.853 C22.708,471.09 28.145,477.004 37.365,477.004 C40.481,477.004 43.723,476.382 45.726,475.452 C45.726,475.452 43.723,476.382 45.726,475.452 L46.964,481.482 L46.964,481.482 Z" id="path-3"></path>
        <path d="M53.013,438.484 L60.748,438.484 L60.748,456.538 L60.869,456.538 C61.804,455.116 63.109,453.859 64.665,453.049 C66.168,452.19 67.969,451.698 69.906,451.698 C75.083,451.698 80.507,455.116 80.507,464.858 L80.507,482.747 L72.834,482.747 L72.834,465.717 C72.834,461.298 71.216,457.983 66.968,457.983 C63.977,457.983 61.857,459.96 61.061,462.295 C60.802,462.908 60.748,463.718 60.748,464.599 L60.748,482.747 L53.013,482.747 L53.013,438.484 L53.013,438.484 Z" id="path-5"></path>
        <path d="M96.844,443.879 C96.844,446.191 95.14,448.003 92.462,448.003 C89.913,448.003 88.223,446.191 88.223,443.879 C88.223,441.53 89.98,439.727 92.529,439.727 C95.14,439.727 96.759,441.53 96.844,443.879 L96.844,443.879 Z M88.657,452.373 L96.397,452.373 L96.397,482.746 L88.657,482.746 L88.657,452.373 L88.657,452.373 Z" id="path-7"></path>
        <polygon id="path-9" points="104.631 438.484 112.362 438.484 112.362 482.746 104.631 482.746"></polygon>
        <path d="M148.622,438.484 L148.622,474.216 C148.622,477.321 148.751,480.68 148.881,482.747 L142.031,482.747 L141.705,477.943 L141.584,477.943 C139.777,481.306 136.107,483.44 131.68,483.44 C124.441,483.44 118.722,477.258 118.722,467.9 C118.633,457.728 125.004,451.698 132.297,451.698 C136.473,451.698 139.473,453.425 140.833,455.67 L140.971,455.67 L140.971,438.484 L148.622,438.484 L148.622,438.484 Z M140.971,465.033 C140.971,464.411 140.9,463.66 140.779,463.038 C140.099,460.05 137.658,457.598 134.162,457.598 C129.252,457.598 126.502,461.969 126.502,467.659 C126.502,473.196 129.252,477.258 134.112,477.258 C137.224,477.258 139.965,475.133 140.708,471.832 C140.9,471.139 140.971,470.396 140.971,469.587 C140.971,469.587 140.971,470.396 140.971,469.587 L140.971,465.033 L140.971,465.033 Z" id="path-11"></path>
        <path d="M156.865,462.157 C156.865,458.046 156.798,455.116 156.615,452.374 L163.277,452.374 L163.528,458.171 L163.773,458.171 C165.276,453.859 168.839,451.698 172.068,451.698 C172.81,451.698 173.244,451.752 173.879,451.859 L173.879,459.101 C173.244,458.985 172.568,458.855 171.634,458.855 C167.959,458.855 165.455,461.217 164.784,464.657 C164.654,465.333 164.529,466.156 164.529,467.023 L164.529,482.747 L156.865,482.747 L156.865,462.157 L156.865,462.157 Z" id="path-13"></path>
        <path d="M183.92,469.703 C184.099,475.201 188.396,477.567 193.261,477.567 C196.829,477.567 199.368,477.053 201.68,476.181 L202.798,481.481 C200.182,482.564 196.565,483.441 192.21,483.441 C182.355,483.441 176.56,477.321 176.56,468.021 C176.56,459.607 181.662,451.699 191.383,451.699 C201.3,451.699 204.483,459.786 204.483,466.46 C204.483,467.896 204.354,469.023 204.238,469.703 C204.238,469.703 204.354,469.023 204.238,469.703 L183.92,469.703 L183.92,469.703 Z M197.24,464.344 C197.316,461.535 196.077,456.919 190.967,456.919 C186.214,456.919 184.22,461.218 183.92,464.344 C183.92,464.344 184.22,461.218 183.92,464.344 L197.24,464.344 L197.24,464.344 Z" id="path-15"></path>
        <path d="M210.647,461.427 C210.647,457.938 210.588,454.999 210.405,452.374 L217.143,452.374 L217.514,456.923 L217.698,456.923 C219.008,454.566 222.299,451.698 227.36,451.698 C232.654,451.698 238.131,455.116 238.131,464.72 L238.131,482.747 L230.463,482.747 L230.463,465.601 C230.463,461.217 228.849,457.938 224.669,457.938 C221.619,457.938 219.509,460.108 218.69,462.416 C218.449,463.109 218.377,464.026 218.377,464.903 L218.377,482.747 L210.647,482.747 L210.647,461.427 L210.647,461.427 Z" id="path-17"></path>
        <path d="M252.026,475.704 C253.761,476.76 257.074,477.869 259.82,477.869 C263.191,477.869 264.68,476.505 264.68,474.505 C264.68,472.448 263.433,471.392 259.69,470.095 C253.761,468.019 251.275,464.798 251.342,461.215 C251.342,455.874 255.76,451.701 262.811,451.701 C266.173,451.701 269.098,452.564 270.85,453.49 L269.357,458.93 C268.047,458.169 265.61,457.172 262.932,457.172 C260.2,457.172 258.706,458.482 258.706,460.357 C258.706,462.293 260.124,463.224 263.987,464.597 C269.473,466.592 272.031,469.384 272.107,473.893 C272.107,479.372 267.792,483.438 259.748,483.438 C256.082,483.438 252.764,482.494 250.52,481.238 C250.52,481.238 252.764,482.494 250.52,481.238 L252.026,475.704 L252.026,475.704 Z" id="path-19"></path>
        <polygon id="path-21" points="300.903 440.708 300.903 457.541 318.68 457.541 318.68 440.708 326.349 440.708 326.349 482.743 318.68 482.743 318.68 464.215 300.903 464.215 300.903 482.743 293.252 482.743 293.252 440.708"></polygon>
        <path d="M363.681,467.269 C363.681,478.439 355.834,483.44 348.113,483.44 C339.514,483.44 332.888,477.509 332.888,467.788 C332.888,457.795 339.443,451.698 348.595,451.698 C357.627,451.698 363.681,458.046 363.681,467.269 L363.681,467.269 Z M340.802,467.596 C340.802,473.438 343.673,477.871 348.336,477.871 C352.704,477.871 355.767,473.568 355.767,467.466 C355.767,462.734 353.648,457.299 348.412,457.299 C342.984,457.299 340.802,462.541 340.802,467.596 L340.802,467.596 Z" id="path-23"></path>
        <path d="M369.16,475.704 C370.908,476.76 374.208,477.869 376.962,477.869 C380.329,477.869 381.818,476.505 381.818,474.505 C381.818,472.448 380.57,471.392 376.832,470.095 C370.908,468.019 368.408,464.798 368.489,461.215 C368.489,455.874 372.902,451.701 379.949,451.701 C383.325,451.701 386.244,452.564 387.984,453.49 L386.495,458.93 C385.189,458.169 382.748,457.172 380.083,457.172 C377.333,457.172 375.831,458.482 375.831,460.357 C375.831,462.293 377.271,463.224 381.129,464.597 C386.62,466.592 389.164,469.384 389.236,473.893 C389.236,479.372 384.934,483.438 376.89,483.438 C373.215,483.438 369.902,482.494 367.666,481.238 C367.666,481.238 369.902,482.494 367.666,481.238 L369.16,475.704 L369.16,475.704 Z" id="path-25"></path>
        <path d="M395.52,462.467 C395.52,458.481 395.404,455.252 395.287,452.371 L402.017,452.371 L402.383,457.059 L402.522,457.059 C404.753,453.615 408.317,451.7 412.918,451.7 C419.897,451.7 425.692,457.685 425.692,467.146 C425.692,478.137 418.78,483.437 411.862,483.437 C408.066,483.437 404.874,481.805 403.322,479.371 L403.193,479.371 L403.193,495.095 L395.52,495.095 L395.52,462.467 L395.52,462.467 Z M403.193,470.027 C403.193,470.765 403.26,471.449 403.452,472.143 C404.181,475.247 406.931,477.51 410.172,477.51 C415.046,477.51 417.912,473.435 417.912,467.464 C417.912,462.105 415.283,457.73 410.356,457.73 C407.19,457.73 404.252,460.047 403.519,463.411 C403.322,464.028 403.193,464.722 403.193,465.334 C403.193,465.334 403.193,464.722 403.193,465.334 L403.193,470.027 L403.193,470.027 Z" id="path-27"></path>
        <path d="M440.599,443.879 C440.599,446.191 438.918,448.003 436.24,448.003 C433.682,448.003 432.001,446.191 432.001,443.879 C432.001,441.53 433.749,439.727 436.302,439.727 C438.918,439.727 440.55,441.53 440.599,443.879 L440.599,443.879 Z M432.444,452.373 L440.161,452.373 L440.161,482.746 L432.444,482.746 L432.444,452.373 L432.444,452.373 Z" id="path-29"></path>
        <path d="M458.566,444.565 L458.566,452.371 L465.863,452.371 L465.863,458.119 L458.566,458.119 L458.566,471.507 C458.566,475.197 459.563,477.125 462.5,477.125 C463.922,477.125 464.606,477.005 465.483,476.758 L465.603,482.614 C464.486,483.057 462.5,483.437 460.055,483.437 C457.265,483.437 454.886,482.444 453.455,480.892 C451.836,479.12 451.09,476.383 451.09,472.397 L451.09,458.119 L446.712,458.119 L446.712,452.371 L451.09,452.371 L451.09,446.775 L458.566,444.565 L458.566,444.565 Z" id="path-31"></path>
        <path d="M496.145,475.452 C496.145,478.189 496.266,480.891 496.592,482.748 L489.662,482.748 L489.175,479.375 L488.978,479.375 C487.113,481.75 483.939,483.437 480,483.437 C473.896,483.437 470.476,478.99 470.476,474.374 C470.476,466.716 477.254,462.842 488.473,462.909 L488.473,462.417 C488.473,460.431 487.663,457.125 482.32,457.125 C479.324,457.125 476.208,458.047 474.138,459.353 L472.64,454.37 C474.889,453.001 478.815,451.699 483.595,451.699 C493.351,451.699 496.145,457.868 496.145,464.466 C496.145,464.466 496.145,457.868 496.145,464.466 L496.145,475.452 L496.145,475.452 Z M488.669,467.897 C483.237,467.789 478.077,468.952 478.077,473.569 C478.077,476.57 480,477.943 482.436,477.943 C485.477,477.943 487.721,475.948 488.423,473.761 C488.602,473.197 488.669,472.571 488.669,472.07 C488.669,472.07 488.669,472.571 488.669,472.07 L488.669,467.897 L488.669,467.897 Z" id="path-33"></path>
        <polygon id="path-35" points="503.575 438.484 511.315 438.484 511.315 482.746 503.575 482.746"></polygon>
        <path d="M564.995,481.467 C563.153,482.357 559.097,483.368 553.902,483.368 C540.336,483.368 532.1,474.873 532.1,461.816 C532.1,447.743 541.923,439.258 554.975,439.258 C560.108,439.258 563.716,440.34 565.303,441.154 L563.658,447.372 C561.632,446.486 558.771,445.722 555.288,445.722 C546.618,445.722 540.336,451.179 540.336,461.44 C540.336,470.897 545.786,476.846 555.229,476.846 C558.342,476.846 561.632,476.211 563.716,475.316 C563.716,475.316 561.632,476.211 563.716,475.316 L564.995,481.467 L564.995,481.467 Z" id="path-37"></path>
        <path d="M598.698,466.966 C598.698,478.297 590.713,483.365 582.861,483.365 C574.182,483.365 567.404,477.425 567.404,467.458 C567.404,457.326 574.048,451.109 583.375,451.109 C592.546,451.109 598.698,457.577 598.698,466.966 L598.698,466.966 Z M575.448,467.275 C575.448,473.22 578.421,477.724 583.111,477.724 C587.547,477.724 590.641,473.421 590.641,467.141 C590.641,462.323 588.499,456.74 583.179,456.74 C577.665,456.74 575.448,462.144 575.448,467.275 L575.448,467.275 Z" id="path-39"></path>
        <polygon id="path-41" points="604.147 437.674 611.936 437.674 611.936 482.67 604.147 482.67"></polygon>
        <path d="M648.816,466.966 C648.816,478.297 640.839,483.365 632.979,483.365 C624.295,483.365 617.517,477.425 617.517,467.458 C617.517,457.326 624.179,451.109 633.484,451.109 C642.672,451.109 648.816,457.577 648.816,466.966 L648.816,466.966 Z M625.574,467.275 C625.574,473.22 628.548,477.724 633.233,477.724 C637.669,477.724 640.776,473.421 640.776,467.141 C640.776,462.323 638.621,456.74 633.296,456.74 C627.783,456.74 625.574,462.144 625.574,467.275 L625.574,467.275 Z" id="path-43"></path>
        <path d="M654.28,461.759 C654.28,457.577 654.209,454.531 654.021,451.802 L660.732,451.802 L661.05,457.631 L661.237,457.631 C662.767,453.341 666.37,451.109 669.733,451.109 C670.493,451.109 670.931,451.18 671.566,451.301 L671.566,458.588 C670.869,458.467 670.167,458.387 669.223,458.387 C665.548,458.387 662.959,460.739 662.257,464.296 C662.127,464.993 662.069,465.817 662.069,466.635 L662.069,482.672 L654.28,482.672 L654.28,461.759 L654.28,461.759 Z" id="path-45"></path>
        <path d="M699.258,475.264 C699.258,478.046 699.379,480.779 699.773,482.672 L692.735,482.672 L692.162,479.25 L691.975,479.25 C690.128,481.656 686.9,483.365 682.853,483.365 C676.643,483.365 673.155,478.874 673.155,474.181 C673.155,466.461 680.063,462.462 691.46,462.524 L691.46,462.014 C691.46,459.983 690.638,456.624 685.192,456.624 C682.151,456.624 678.981,457.577 676.898,458.901 L675.373,453.828 C677.653,452.442 681.646,451.109 686.52,451.109 C696.406,451.109 699.258,457.389 699.258,464.17 C699.258,464.17 699.258,457.389 699.258,464.17 L699.258,475.264 L699.258,475.264 Z M691.648,467.588 C686.144,467.539 680.886,468.67 680.886,473.358 C680.886,476.405 682.853,477.791 685.313,477.791 C688.487,477.791 690.705,475.761 691.46,473.546 C691.648,472.974 691.648,472.406 691.648,471.833 C691.648,471.833 691.648,472.406 691.648,471.833 L691.648,467.588 L691.648,467.588 Z" id="path-47"></path>
        <path d="M734.997,437.676 L734.997,473.994 C734.997,477.165 735.118,480.587 735.256,482.672 L728.348,482.672 L727.959,477.791 L727.834,477.791 C725.997,481.213 722.259,483.365 717.823,483.365 C710.41,483.365 704.593,477.107 704.593,467.588 C704.526,457.259 710.982,451.109 718.4,451.109 C722.639,451.109 725.679,452.817 727.079,455.103 L727.199,455.103 L727.199,437.676 L734.997,437.676 L734.997,437.676 Z M727.199,464.671 C727.199,464.041 727.146,463.218 727.011,462.591 C726.318,459.599 723.846,457.13 720.3,457.13 C715.297,457.13 712.502,461.558 712.502,467.275 C712.502,472.974 715.297,477.107 720.233,477.107 C723.403,477.107 726.189,474.946 726.949,471.587 C727.146,470.894 727.199,470.129 727.199,469.297 C727.199,469.297 727.199,470.129 727.199,469.297 L727.199,464.671 L727.199,464.671 Z" id="path-49"></path>
        <path d="M771.754,466.966 C771.754,478.297 763.763,483.365 755.907,483.365 C747.238,483.365 740.446,477.425 740.446,467.458 C740.446,457.326 747.104,451.109 756.413,451.109 C765.606,451.109 771.754,457.577 771.754,466.966 L771.754,466.966 Z M748.49,467.275 C748.49,473.22 751.476,477.724 756.167,477.724 C760.593,477.724 763.696,473.421 763.696,467.141 C763.696,462.323 761.546,456.74 756.225,456.74 C750.712,456.74 748.49,462.144 748.49,467.275 L748.49,467.275 Z" id="path-51"></path>
        <path d="M96.036,37.051 C93.04,14.287 72.155,-1.722 49.414,1.284 C26.659,4.281 10.648,25.166 13.657,47.926 C16.648,70.677 37.529,86.691 60.283,83.694 C83.029,80.692 99.031,59.807 96.036,37.051 L96.036,37.051 Z" id="path-53"></path>
        <path d="M197.339,140.819 C195.475,123.727 181.305,110.526 164.547,112.351 C147.816,114.176 135.439,130.289 137.326,147.39 C139.199,164.482 154.54,175.835 171.308,174.01 C188.048,172.167 199.213,157.897 197.339,140.819 L197.339,140.819 Z" id="path-55"></path>
        <path d="M86.842,136.464 C91.027,155.869 106.914,174.992 117.797,191.789 C123.788,201.039 126.18,208.411 126.766,214.768 C127.437,222.171 125.809,235.022 112.682,244.045 C99.348,253.219 64.982,247.114 47.643,242.672 C43.283,241.553 40.126,240.735 38.271,240.498 C26.319,238.051 22.948,242.175 21.383,244.747 C18.883,248.827 19.407,255.143 26.386,260.019 C49.301,277.303 87.602,286.8 114.318,285.95 C118.611,285.919 120.216,285.717 124.316,285.337 C128.398,284.666 133.075,287.574 134.01,292.687 C139.353,321.731 145.532,354.744 161.87,385.443 C169.985,400.701 178.709,401.475 184.012,398.304 C193.58,392.578 186.954,378.277 184.034,365.112 C181.378,353.026 174.957,321.704 175.244,301.007 C175.914,251.927 188.403,228.451 201.816,210.075 C212.19,195.855 227.101,182.221 240.305,166.873 C246.296,159.899 251.188,152.787 253.683,145.996 C257.117,136.567 255.203,131.306 251.049,128.962 C244.222,125.156 237.461,129.638 230.513,137.878 C217.452,153.386 213.366,158.996 202.339,167.973 C184.521,182.489 149.663,190.205 125.724,156.397 C118.897,146.77 114.56,136.97 110.531,129.097 C107.106,122.418 102.425,113.212 94.533,114.299 C84.946,115.614 84.472,125.464 86.842,136.464 L86.842,136.464 Z" id="path-57"></path>
        <path d="M41.94,81.977 C33.374,79.213 25.96,73.644 20.805,66.29 C7.176,73.805 -1.069,89.179 1.315,105.484 C4.404,126.463 23.908,140.965 44.865,137.857 C65.821,134.801 80.322,115.285 77.232,94.31 C76.646,90.262 75.399,86.455 73.686,82.961 C67.695,85.596 61.06,86.764 54.183,86.303 C50.199,86.043 45.92,85.256 41.225,83.06 C40.684,82.809 40.402,82.416 40.487,82.174 C40.599,81.87 41.238,81.754 41.94,81.977 L41.94,81.977 Z" id="path-59"></path>
        <path d="M153.917,59.532 C150.764,38.141 130.881,23.344 109.481,26.493 C105.551,27.066 101.853,28.22 98.437,29.83 C99.752,34.746 100.328,39.976 99.895,45.379 C98.719,60.346 90.554,73.028 79.045,80.163 C85.707,96.392 102.738,106.662 120.883,103.983 C142.282,100.838 157.06,80.937 153.917,59.532 L153.917,59.532 Z" id="path-61"></path>
        <path d="M194.095,355.046 C194.681,353.717 195.49,352.545 196.505,351.566 C197.529,350.582 198.696,349.812 200.055,349.249 C201.396,348.685 202.836,348.403 204.343,348.403 C205.863,348.403 207.285,348.685 208.631,349.249 C209.968,349.812 211.139,350.582 212.145,351.566 C213.151,352.545 213.947,353.717 214.538,355.046 C215.123,356.388 215.423,357.842 215.423,359.394 C215.423,360.991 215.123,362.463 214.538,363.813 C213.947,365.164 213.151,366.332 212.145,367.329 C211.139,368.327 209.968,369.092 208.631,369.646 C207.285,370.206 205.863,370.47 204.343,370.47 C202.836,370.47 201.396,370.206 200.055,369.646 C198.696,369.092 197.529,368.327 196.505,367.329 C195.49,366.332 194.681,365.164 194.095,363.813 C193.505,362.463 193.21,360.991 193.21,359.394 C193.21,357.842 193.505,356.388 194.095,355.046 L194.095,355.046 Z M195.915,363.165 C196.38,364.319 197.024,365.316 197.828,366.162 C198.66,366.998 199.621,367.669 200.73,368.148 C201.844,368.644 203.055,368.882 204.343,368.882 C205.626,368.882 206.82,368.644 207.92,368.148 C209.024,367.669 209.977,366.998 210.804,366.162 C211.622,365.316 212.253,364.319 212.722,363.165 C213.183,362.015 213.415,360.758 213.415,359.394 C213.415,358.079 213.183,356.844 212.722,355.712 C212.253,354.567 211.622,353.579 210.804,352.733 C209.977,351.897 209.024,351.248 207.92,350.756 C206.82,350.286 205.626,350.036 204.343,350.036 C203.055,350.036 201.844,350.286 200.73,350.756 C199.621,351.248 198.66,351.897 197.828,352.733 C197.024,353.579 196.38,354.567 195.915,355.712 C195.45,356.844 195.222,358.079 195.222,359.394 C195.222,360.758 195.45,362.015 195.915,363.165 L195.915,363.165 Z M205.018,352.979 C206.565,352.979 207.696,353.283 208.434,353.905 C209.172,354.514 209.548,355.435 209.548,356.683 C209.548,357.842 209.212,358.687 208.573,359.228 C207.92,359.77 207.111,360.087 206.149,360.186 L209.843,365.893 L207.679,365.893 L204.169,360.338 L202.045,360.338 L202.045,365.893 L200.033,365.893 L200.033,352.979 L205.018,352.979 L205.018,352.979 Z M204.133,358.701 C204.589,358.701 205.018,358.687 205.421,358.656 C205.827,358.633 206.181,358.548 206.498,358.405 C206.816,358.276 207.071,358.07 207.254,357.784 C207.437,357.493 207.531,357.095 207.531,356.585 C207.531,356.164 207.451,355.811 207.281,355.56 C207.111,355.314 206.901,355.113 206.637,354.974 C206.369,354.831 206.06,354.742 205.716,354.684 C205.371,354.634 205.036,354.621 204.701,354.621 L202.045,354.621 L202.045,358.701 L204.133,358.701 L204.133,358.701 Z" id="path-63"></path>
    </defs>
    <g id="Page-1" stroke="none" stroke-width="1" fill="none" fill-rule="evenodd">
        <g id="childrens-hospital-colorado-logo">
            <mask id="mask-2" fill="white">
                <use xlink:href="#path-1"></use>
            </mask>
            <g id="path-1"></g>
            <polygon id="Fill-1" fill="#000000" fill-rule="nonzero" mask="url(#mask-2)" points="241.02 438.4 248.34 438.4 248.34 453.28 241.02 453.28"></polygon>
            <mask id="mask-4" fill="white">
                <use xlink:href="#path-3"></use>
            </mask>
            <g id="path-3"></g>
            <polygon id="Fill-4" fill="#000000" fill-rule="nonzero" mask="url(#mask-4)" points="14.58 439.96 47.34 439.96 47.34 483.52 14.58 483.52"></polygon>
            <mask id="mask-6" fill="white">
                <use xlink:href="#path-5"></use>
            </mask>
            <g id="path-5"></g>
            <polygon id="Fill-7" fill="#000000" fill-rule="nonzero" mask="url(#mask-6)" points="52.98 438.4 80.58 438.4 80.58 482.8 52.98 482.8"></polygon>
            <mask id="mask-8" fill="white">
                <use xlink:href="#path-7"></use>
            </mask>
            <g id="path-7"></g>
            <polygon id="Fill-10" fill="#000000" fill-rule="nonzero" mask="url(#mask-8)" points="88.14 439.72 96.9 439.72 96.9 482.8 88.14 482.8"></polygon>
            <mask id="mask-10" fill="white">
                <use xlink:href="#path-9"></use>
            </mask>
            <g id="path-9"></g>
            <polygon id="Fill-13" fill="#000000" fill-rule="nonzero" mask="url(#mask-10)" points="104.58 438.4 112.38 438.4 112.38 482.8 104.58 482.8"></polygon>
            <mask id="mask-12" fill="white">
                <use xlink:href="#path-11"></use>
            </mask>
            <g id="path-11"></g>
            <polygon id="Fill-16" fill="#000000" fill-rule="nonzero" mask="url(#mask-12)" points="118.62 438.4 148.98 438.4 148.98 483.52 118.62 483.52"></polygon>
            <mask id="mask-14" fill="white">
                <use xlink:href="#path-13"></use>
            </mask>
            <g id="path-13"></g>
            <polygon id="Fill-19" fill="#000000" fill-rule="nonzero" mask="url(#mask-14)" points="156.54 451.6 173.94 451.6 173.94 482.8 156.54 482.8"></polygon>
            <mask id="mask-16" fill="white">
                <use xlink:href="#path-15"></use>
            </mask>
            <g id="path-15"></g>
            <polygon id="Fill-22" fill="#000000" fill-rule="nonzero" mask="url(#mask-16)" points="176.46 451.6 204.54 451.6 204.54 483.52 176.46 483.52"></polygon>
            <mask id="mask-18" fill="white">
                <use xlink:href="#path-17"></use>
            </mask>
            <g id="path-17"></g>
            <polygon id="Fill-25" fill="#000000" fill-rule="nonzero" mask="url(#mask-18)" points="210.3 451.6 238.14 451.6 238.14 482.8 210.3 482.8"></polygon>
            <mask id="mask-20" fill="white">
                <use xlink:href="#path-19"></use>
            </mask>
            <g id="path-19"></g>
            <polygon id="Fill-28" fill="#000000" fill-rule="nonzero" mask="url(#mask-20)" points="250.5 451.6 272.22 451.6 272.22 483.52 250.5 483.52"></polygon>
            <mask id="mask-22" fill="white">
                <use xlink:href="#path-21"></use>
            </mask>
            <g id="path-21"></g>
            <polygon id="Fill-31" fill="#000000" fill-rule="nonzero" mask="url(#mask-22)" points="293.22 440.68 326.46 440.68 326.46 482.8 293.22 482.8"></polygon>
            <mask id="mask-24" fill="white">
                <use xlink:href="#path-23"></use>
            </mask>
            <g id="path-23"></g>
            <polygon id="Fill-34" fill="#000000" fill-rule="nonzero" mask="url(#mask-24)" points="332.82 451.6 363.78 451.6 363.78 483.52 332.82 483.52"></polygon>
            <mask id="mask-26" fill="white">
                <use xlink:href="#path-25"></use>
            </mask>
            <g id="path-25"></g>
            <polygon id="Fill-37" fill="#000000" fill-rule="nonzero" mask="url(#mask-26)" points="367.62 451.6 389.34 451.6 389.34 483.52 367.62 483.52"></polygon>
            <mask id="mask-28" fill="white">
                <use xlink:href="#path-27"></use>
            </mask>
            <g id="path-27"></g>
            <polygon id="Fill-40" fill="#000000" fill-rule="nonzero" mask="url(#mask-28)" points="395.22 451.6 425.7 451.6 425.7 495.16 395.22 495.16"></polygon>
            <mask id="mask-30" fill="white">
                <use xlink:href="#path-29"></use>
            </mask>
            <g id="path-29"></g>
            <polygon id="Fill-43" fill="#000000" fill-rule="nonzero" mask="url(#mask-30)" points="431.94 439.72 440.7 439.72 440.7 482.8 431.94 482.8"></polygon>
            <mask id="mask-32" fill="white">
                <use xlink:href="#path-31"></use>
            </mask>
            <g id="path-31"></g>
            <polygon id="Fill-46" fill="#000000" fill-rule="nonzero" mask="url(#mask-32)" points="446.7 444.52 465.9 444.52 465.9 483.52 446.7 483.52"></polygon>
            <mask id="mask-34" fill="white">
                <use xlink:href="#path-33"></use>
            </mask>
            <g id="path-33"></g>
            <polygon id="Fill-49" fill="#000000" fill-rule="nonzero" mask="url(#mask-34)" points="470.46 451.6 496.62 451.6 496.62 483.52 470.46 483.52"></polygon>
            <mask id="mask-36" fill="white">
                <use xlink:href="#path-35"></use>
            </mask>
            <g id="path-35"></g>
            <polygon id="Fill-52" fill="#000000" fill-rule="nonzero" mask="url(#mask-36)" points="503.46 438.4 511.38 438.4 511.38 482.8 503.46 482.8"></polygon>
            <mask id="mask-38" fill="white">
                <use xlink:href="#path-37"></use>
            </mask>
            <g id="path-37"></g>
            <polygon id="Fill-55" fill="#000000" fill-rule="nonzero" mask="url(#mask-38)" points="532.02 439.24 565.38 439.24 565.38 483.4 532.02 483.4"></polygon>
            <mask id="mask-40" fill="white">
                <use xlink:href="#path-39"></use>
            </mask>
            <g id="path-39"></g>
            <polygon id="Fill-58" fill="#000000" fill-rule="nonzero" mask="url(#mask-40)" points="567.3 451 598.74 451 598.74 483.4 567.3 483.4"></polygon>
            <mask id="mask-42" fill="white">
                <use xlink:href="#path-41"></use>
            </mask>
            <g id="path-41"></g>
            <polygon id="Fill-61" fill="#000000" fill-rule="nonzero" mask="url(#mask-42)" points="604.14 437.56 611.94 437.56 611.94 482.68 604.14 482.68"></polygon>
            <mask id="mask-44" fill="white">
                <use xlink:href="#path-43"></use>
            </mask>
            <g id="path-43"></g>
            <polygon id="Fill-64" fill="#000000" fill-rule="nonzero" mask="url(#mask-44)" points="617.46 451 648.9 451 648.9 483.4 617.46 483.4"></polygon>
            <mask id="mask-46" fill="white">
                <use xlink:href="#path-45"></use>
            </mask>
            <g id="path-45"></g>
            <polygon id="Fill-67" fill="#000000" fill-rule="nonzero" mask="url(#mask-46)" points="653.94 451 671.58 451 671.58 482.68 653.94 482.68"></polygon>
            <mask id="mask-48" fill="white">
                <use xlink:href="#path-47"></use>
            </mask>
            <g id="path-47"></g>
            <polygon id="Fill-70" fill="#000000" fill-rule="nonzero" mask="url(#mask-48)" points="673.14 451 699.78 451 699.78 483.4 673.14 483.4"></polygon>
            <mask id="mask-50" fill="white">
                <use xlink:href="#path-49"></use>
            </mask>
            <g id="path-49"></g>
            <polygon id="Fill-73" fill="#000000" fill-rule="nonzero" mask="url(#mask-50)" points="704.58 437.56 735.3 437.56 735.3 483.4 704.58 483.4"></polygon>
            <mask id="mask-52" fill="white">
                <use xlink:href="#path-51"></use>
            </mask>
            <g id="path-51"></g>
            <polygon id="Fill-76" fill="#000000" fill-rule="nonzero" mask="url(#mask-52)" points="740.34 451 771.78 451 771.78 483.4 740.34 483.4"></polygon>
            <mask id="mask-54" fill="white">
                <use xlink:href="#path-53"></use>
            </mask>
            <g id="path-53"></g>
            <polygon id="Fill-79" fill="#000000" fill-rule="nonzero" mask="url(#mask-54)" points="13.26 0.88 96.42 0.88 96.42 84.04 13.26 84.04"></polygon>
            <mask id="mask-56" fill="white">
                <use xlink:href="#path-55"></use>
            </mask>
            <g id="path-55"></g>
            <polygon id="Fill-82" fill="#000000" fill-rule="nonzero" mask="url(#mask-56)" points="137.1 112.12 197.58 112.12 197.58 174.28 137.1 174.28"></polygon>
            <mask id="mask-58" fill="white">
                <use xlink:href="#path-57"></use>
            </mask>
            <g id="path-57"></g>
            <polygon id="Fill-85" fill="#000000" fill-rule="nonzero" mask="url(#mask-58)" points="19.98 114.16 255.54 114.16 255.54 399.88 19.98 399.88"></polygon>
            <mask id="mask-60" fill="white">
                <use xlink:href="#path-59"></use>
            </mask>
            <g id="path-59"></g>
            <polygon id="Fill-88" fill="#000000" fill-rule="nonzero" mask="url(#mask-60)" points="0.9 66.28 77.7 66.28 77.7 138.28 0.9 138.28"></polygon>
            <mask id="mask-62" fill="white">
                <use xlink:href="#path-61"></use>
            </mask>
            <g id="path-61"></g>
            <polygon id="Fill-91" fill="#000000" fill-rule="nonzero" mask="url(#mask-62)" points="79.02 26.08 154.38 26.08 154.38 104.44 79.02 104.44"></polygon>
            <mask id="mask-64" fill="white">
                <use xlink:href="#path-63"></use>
            </mask>
            <g id="path-63"></g>
            <polygon id="Fill-94" fill="#000000" fill-rule="nonzero" mask="url(#mask-64)" points="193.14 348.4 215.46 348.4 215.46 370.48 193.14 370.48"></polygon>
        </g>
    </g>
</svg>