<?xml version="1.0" encoding="UTF-8"?>
<svg width="772px" height="496px" viewBox="0 0 772 496" version="1.1" xmlns="http://www.w3.org/2000/svg" xmlns:xlink="http://www.w3.org/1999/xlink">
    <title>Children's Logo</title>
    <defs>
        <path d="M0.058,13.671 C2.316,12.329 4.055,10.687 4.449,8.017 C1.9,9.171 0.058,6.563 0.058,4.689 C0.058,2.327 0.925,0.497 3.568,0.497 C6.286,0.497 7.301,3.043 7.301,5.364 C7.301,9.672 4.891,13.237 1.064,15.165 C1.064,15.165 4.891,13.237 1.064,15.165 L0.058,13.671 L0.058,13.671 Z" id="path-1"></path>
        <path d="M32.964,41.482 C31.154,42.443 27.174,43.441 22.122,43.441 C8.775,43.441 0.677,35.018 0.677,22.242 C0.677,8.38 10.277,0.028 23.11,0.028 C28.162,0.028 31.784,1.071 33.327,1.885 L31.663,8.004 C29.665,7.127 26.915,6.385 23.423,6.385 C14.892,6.385 8.708,11.748 8.708,21.853 C8.708,31.09 14.145,37.004 23.365,37.004 C26.481,37.004 29.723,36.382 31.726,35.452 C31.726,35.452 29.723,36.382 31.726,35.452 L32.964,41.482 L32.964,41.482 Z" id="path-3"></path>
        <path d="M0.013,0.484 L7.748,0.484 L7.748,18.538 L7.869,18.538 C8.804,17.116 10.109,15.859 11.665,15.049 C13.168,14.19 14.969,13.698 16.906,13.698 C22.083,13.698 27.507,17.116 27.507,26.858 L27.507,44.747 L19.834,44.747 L19.834,27.717 C19.834,23.298 18.216,19.983 13.968,19.983 C10.977,19.983 8.857,21.96 8.061,24.295 C7.802,24.908 7.748,25.718 7.748,26.599 L7.748,44.747 L0.013,44.747 L0.013,0.484 L0.013,0.484 Z" id="path-5"></path>
        <path d="M8.844,4.879 C8.844,7.191 7.14,9.003 4.462,9.003 C1.913,9.003 0.223,7.191 0.223,4.879 C0.223,2.53 1.98,0.727 4.529,0.727 C7.14,0.727 8.759,2.53 8.844,4.879 L8.844,4.879 Z M0.657,13.373 L8.397,13.373 L8.397,43.746 L0.657,43.746 L0.657,13.373 L0.657,13.373 Z" id="path-7"></path>
        <polygon id="path-9" points="0.631 0.484 8.362 0.484 8.362 44.746 0.631 44.746"></polygon>
        <path d="M30.622,0.484 L30.622,36.216 C30.622,39.321 30.751,42.68 30.881,44.747 L24.031,44.747 L23.705,39.943 L23.584,39.943 C21.777,43.306 18.107,45.44 13.68,45.44 C6.441,45.44 0.722,39.258 0.722,29.9 C0.633,19.728 7.004,13.698 14.297,13.698 C18.473,13.698 21.473,15.425 22.833,17.67 L22.971,17.67 L22.971,0.484 L30.622,0.484 L30.622,0.484 Z M22.971,27.033 C22.971,26.411 22.9,25.66 22.779,25.038 C22.099,22.05 19.658,19.598 16.162,19.598 C11.252,19.598 8.502,23.969 8.502,29.659 C8.502,35.196 11.252,39.258 16.112,39.258 C19.224,39.258 21.965,37.133 22.708,33.832 C22.9,33.139 22.971,32.396 22.971,31.587 C22.971,31.587 22.971,32.396 22.971,31.587 L22.971,27.033 L22.971,27.033 Z" id="path-11"></path>
        <path d="M0.865,11.157 C0.865,7.046 0.798,4.116 0.615,1.374 L7.277,1.374 L7.528,7.171 L7.773,7.171 C9.276,2.859 12.839,0.698 16.068,0.698 C16.81,0.698 17.244,0.752 17.879,0.859 L17.879,8.101 C17.244,7.985 16.568,7.855 15.634,7.855 C11.959,7.855 9.455,10.217 8.784,13.657 C8.654,14.333 8.529,15.156 8.529,16.023 L8.529,31.747 L0.865,31.747 L0.865,11.157 L0.865,11.157 Z" id="path-13"></path>
        <path d="M7.92,18.703 C8.099,24.201 12.396,26.567 17.261,26.567 C20.829,26.567 23.368,26.053 25.68,25.181 L26.798,30.481 C24.182,31.564 20.565,32.441 16.21,32.441 C6.355,32.441 0.56,26.321 0.56,17.021 C0.56,8.607 5.662,0.699 15.383,0.699 C25.3,0.699 28.483,8.786 28.483,15.46 C28.483,16.896 28.354,18.023 28.238,18.703 C28.238,18.703 28.354,18.023 28.238,18.703 L7.92,18.703 L7.92,18.703 Z M21.24,13.344 C21.316,10.535 20.077,5.919 14.967,5.919 C10.214,5.919 8.22,10.218 7.92,13.344 C7.92,13.344 8.22,10.218 7.92,13.344 L21.24,13.344 L21.24,13.344 Z" id="path-15"></path>
        <path d="M0.647,10.427 C0.647,6.938 0.588,3.999 0.405,1.374 L7.143,1.374 L7.514,5.923 L7.698,5.923 C9.008,3.566 12.299,0.698 17.36,0.698 C22.654,0.698 28.131,4.116 28.131,13.72 L28.131,31.747 L20.463,31.747 L20.463,14.601 C20.463,10.217 18.849,6.938 14.669,6.938 C11.619,6.938 9.509,9.108 8.69,11.416 C8.449,12.109 8.377,13.026 8.377,13.903 L8.377,31.747 L0.647,31.747 L0.647,10.427 L0.647,10.427 Z" id="path-17"></path>
        <path d="M2.026,24.704 C3.761,25.76 7.074,26.869 9.82,26.869 C13.191,26.869 14.68,25.505 14.68,23.505 C14.68,21.448 13.433,20.392 9.69,19.095 C3.761,17.019 1.275,13.798 1.342,10.215 C1.342,4.874 5.76,0.701 12.811,0.701 C16.173,0.701 19.098,1.564 20.85,2.49 L19.357,7.93 C18.047,7.169 15.61,6.172 12.932,6.172 C10.2,6.172 8.706,7.482 8.706,9.357 C8.706,11.293 10.124,12.224 13.987,13.597 C19.473,15.592 22.031,18.384 22.107,22.893 C22.107,28.372 17.792,32.438 9.748,32.438 C6.082,32.438 2.764,31.494 0.52,30.238 C0.52,30.238 2.764,31.494 0.52,30.238 L2.026,24.704 L2.026,24.704 Z" id="path-19"></path>
        <polygon id="path-21" points="7.903 0.708 7.903 17.541 25.68 17.541 25.68 0.708 33.349 0.708 33.349 42.743 25.68 42.743 25.68 24.215 7.903 24.215 7.903 42.743 0.252 42.743 0.252 0.708"></polygon>
        <path d="M31.681,16.269 C31.681,27.439 23.834,32.44 16.113,32.44 C7.514,32.44 0.888,26.509 0.888,16.788 C0.888,6.795 7.443,0.698 16.595,0.698 C25.627,0.698 31.681,7.046 31.681,16.269 L31.681,16.269 Z M8.802,16.596 C8.802,22.438 11.673,26.871 16.336,26.871 C20.704,26.871 23.767,22.568 23.767,16.466 C23.767,11.734 21.648,6.299 16.412,6.299 C10.984,6.299 8.802,11.541 8.802,16.596 L8.802,16.596 Z" id="path-23"></path>
        <path d="M2.16,24.704 C3.908,25.76 7.208,26.869 9.962,26.869 C13.329,26.869 14.818,25.505 14.818,23.505 C14.818,21.448 13.57,20.392 9.832,19.095 C3.908,17.019 1.408,13.798 1.489,10.215 C1.489,4.874 5.902,0.701 12.949,0.701 C16.325,0.701 19.244,1.564 20.984,2.49 L19.495,7.93 C18.189,7.169 15.748,6.172 13.083,6.172 C10.333,6.172 8.831,7.482 8.831,9.357 C8.831,11.293 10.271,12.224 14.129,13.597 C19.62,15.592 22.164,18.384 22.236,22.893 C22.236,28.372 17.934,32.438 9.89,32.438 C6.215,32.438 2.902,31.494 0.666,30.238 C0.666,30.238 2.902,31.494 0.666,30.238 L2.16,24.704 L2.16,24.704 Z" id="path-25"></path>
        <path d="M0.52,11.467 C0.52,7.481 0.404,4.252 0.287,1.371 L7.017,1.371 L7.383,6.059 L7.522,6.059 C9.753,2.615 13.317,0.7 17.918,0.7 C24.897,0.7 30.692,6.685 30.692,16.146 C30.692,27.137 23.78,32.437 16.862,32.437 C13.066,32.437 9.874,30.805 8.322,28.371 L8.193,28.371 L8.193,44.095 L0.52,44.095 L0.52,11.467 L0.52,11.467 Z M8.193,19.027 C8.193,19.765 8.26,20.449 8.452,21.143 C9.181,24.247 11.931,26.51 15.172,26.51 C20.046,26.51 22.912,22.435 22.912,16.464 C22.912,11.105 20.283,6.73 15.356,6.73 C12.19,6.73 9.252,9.047 8.519,12.411 C8.322,13.028 8.193,13.722 8.193,14.334 C8.193,14.334 8.193,13.722 8.193,14.334 L8.193,19.027 L8.193,19.027 Z" id="path-27"></path>
        <path d="M8.599,4.879 C8.599,7.191 6.918,9.003 4.24,9.003 C1.682,9.003 0.001,7.191 0.001,4.879 C0.001,2.53 1.749,0.727 4.302,0.727 C6.918,0.727 8.55,2.53 8.599,4.879 L8.599,4.879 Z M0.444,13.373 L8.161,13.373 L8.161,43.746 L0.444,43.746 L0.444,13.373 L0.444,13.373 Z" id="path-29"></path>
        <path d="M12.566,0.565 L12.566,8.371 L19.863,8.371 L19.863,14.119 L12.566,14.119 L12.566,27.507 C12.566,31.197 13.563,33.125 16.5,33.125 C17.922,33.125 18.606,33.005 19.483,32.758 L19.603,38.614 C18.486,39.057 16.5,39.437 14.055,39.437 C11.265,39.437 8.886,38.444 7.455,36.892 C5.836,35.12 5.09,32.383 5.09,28.397 L5.09,14.119 L0.712,14.119 L0.712,8.371 L5.09,8.371 L5.09,2.775 L12.566,0.565 L12.566,0.565 Z" id="path-31"></path>
        <path d="M26.145,24.452 C26.145,27.189 26.266,29.891 26.592,31.748 L19.662,31.748 L19.175,28.375 L18.978,28.375 C17.113,30.75 13.939,32.437 10,32.437 C3.896,32.437 0.476,27.99 0.476,23.374 C0.476,15.716 7.254,11.842 18.473,11.909 L18.473,11.417 C18.473,9.431 17.663,6.125 12.32,6.125 C9.324,6.125 6.208,7.047 4.138,8.353 L2.64,3.37 C4.889,2.001 8.815,0.699 13.595,0.699 C23.351,0.699 26.145,6.868 26.145,13.466 C26.145,13.466 26.145,6.868 26.145,13.466 L26.145,24.452 L26.145,24.452 Z M18.669,16.897 C13.237,16.789 8.077,17.952 8.077,22.569 C8.077,25.57 10,26.943 12.436,26.943 C15.477,26.943 17.721,24.948 18.423,22.761 C18.602,22.197 18.669,21.571 18.669,21.07 C18.669,21.07 18.669,21.571 18.669,21.07 L18.669,16.897 L18.669,16.897 Z" id="path-33"></path>
        <polygon id="path-35" points="0.575 0.484 8.315 0.484 8.315 44.746 0.575 44.746"></polygon>
        <path d="M32.995,42.467 C31.153,43.357 27.097,44.368 21.902,44.368 C8.336,44.368 0.1,35.873 0.1,22.816 C0.1,8.743 9.923,0.258 22.975,0.258 C28.108,0.258 31.716,1.34 33.303,2.154 L31.658,8.372 C29.632,7.486 26.771,6.722 23.288,6.722 C14.618,6.722 8.336,12.179 8.336,22.44 C8.336,31.897 13.786,37.846 23.229,37.846 C26.342,37.846 29.632,37.211 31.716,36.316 C31.716,36.316 29.632,37.211 31.716,36.316 L32.995,42.467 L32.995,42.467 Z" id="path-37"></path>
        <path d="M31.698,15.966 C31.698,27.297 23.713,32.365 15.861,32.365 C7.182,32.365 0.404,26.425 0.404,16.458 C0.404,6.326 7.048,0.109 16.375,0.109 C25.546,0.109 31.698,6.577 31.698,15.966 L31.698,15.966 Z M8.448,16.275 C8.448,22.22 11.421,26.724 16.111,26.724 C20.547,26.724 23.641,22.421 23.641,16.141 C23.641,11.323 21.499,5.74 16.179,5.74 C10.665,5.74 8.448,11.144 8.448,16.275 L8.448,16.275 Z" id="path-39"></path>
        <polygon id="path-41" points="0.147 0.674 7.936 0.674 7.936 45.67 0.147 45.67"></polygon>
        <path d="M31.816,15.966 C31.816,27.297 23.839,32.365 15.979,32.365 C7.295,32.365 0.517,26.425 0.517,16.458 C0.517,6.326 7.179,0.109 16.484,0.109 C25.672,0.109 31.816,6.577 31.816,15.966 L31.816,15.966 Z M8.574,16.275 C8.574,22.22 11.548,26.724 16.233,26.724 C20.669,26.724 23.776,22.421 23.776,16.141 C23.776,11.323 21.621,5.74 16.296,5.74 C10.783,5.74 8.574,11.144 8.574,16.275 L8.574,16.275 Z" id="path-43"></path>
        <path d="M0.28,10.759 C0.28,6.577 0.209,3.531 0.021,0.802 L6.732,0.802 L7.05,6.631 L7.237,6.631 C8.767,2.341 12.37,0.109 15.733,0.109 C16.493,0.109 16.931,0.18 17.566,0.301 L17.566,7.588 C16.869,7.467 16.167,7.387 15.223,7.387 C11.548,7.387 8.959,9.739 8.257,13.296 C8.127,13.993 8.069,14.817 8.069,15.635 L8.069,31.672 L0.28,31.672 L0.28,10.759 L0.28,10.759 Z" id="path-45"></path>
        <path d="M26.258,24.264 C26.258,27.046 26.379,29.779 26.773,31.672 L19.735,31.672 L19.162,28.25 L18.975,28.25 C17.128,30.656 13.9,32.365 9.853,32.365 C3.643,32.365 0.155,27.874 0.155,23.181 C0.155,15.461 7.063,11.462 18.46,11.524 L18.46,11.014 C18.46,8.983 17.638,5.624 12.192,5.624 C9.151,5.624 5.981,6.577 3.898,7.901 L2.373,2.828 C4.653,1.442 8.646,0.109 13.52,0.109 C23.406,0.109 26.258,6.389 26.258,13.17 C26.258,13.17 26.258,6.389 26.258,13.17 L26.258,24.264 L26.258,24.264 Z M18.648,16.588 C13.144,16.539 7.886,17.67 7.886,22.358 C7.886,25.405 9.853,26.791 12.313,26.791 C15.487,26.791 17.705,24.761 18.46,22.546 C18.648,21.974 18.648,21.406 18.648,20.833 C18.648,20.833 18.648,21.406 18.648,20.833 L18.648,16.588 L18.648,16.588 Z" id="path-47"></path>
        <path d="M30.997,0.676 L30.997,36.994 C30.997,40.165 31.118,43.587 31.256,45.672 L24.348,45.672 L23.959,40.791 L23.834,40.791 C21.997,44.213 18.259,46.365 13.823,46.365 C6.41,46.365 0.593,40.107 0.593,30.588 C0.526,20.259 6.982,14.109 14.4,14.109 C18.639,14.109 21.679,15.817 23.079,18.103 L23.199,18.103 L23.199,0.676 L30.997,0.676 L30.997,0.676 Z M23.199,27.671 C23.199,27.041 23.146,26.218 23.011,25.591 C22.318,22.599 19.846,20.13 16.3,20.13 C11.297,20.13 8.502,24.558 8.502,30.275 C8.502,35.974 11.297,40.107 16.233,40.107 C19.403,40.107 22.189,37.946 22.949,34.587 C23.146,33.894 23.199,33.129 23.199,32.297 C23.199,32.297 23.199,33.129 23.199,32.297 L23.199,27.671 L23.199,27.671 Z" id="path-49"></path>
        <path d="M31.754,15.966 C31.754,27.297 23.763,32.365 15.907,32.365 C7.238,32.365 0.446,26.425 0.446,16.458 C0.446,6.326 7.104,0.109 16.413,0.109 C25.606,0.109 31.754,6.577 31.754,15.966 L31.754,15.966 Z M8.49,16.275 C8.49,22.22 11.476,26.724 16.167,26.724 C20.593,26.724 23.696,22.421 23.696,16.141 C23.696,11.323 21.546,5.74 16.225,5.74 C10.712,5.74 8.49,11.144 8.49,16.275 L8.49,16.275 Z" id="path-51"></path>
        <path d="M83.036,37.051 C80.04,14.287 59.155,-1.722 36.414,1.284 C13.659,4.281 -2.352,25.166 0.657,47.926 C3.648,70.677 24.529,86.691 47.283,83.694 C70.029,80.692 86.031,59.807 83.036,37.051 L83.036,37.051 Z" id="path-53"></path>
        <path d="M60.339,28.819 C58.475,11.727 44.305,-1.474 27.547,0.351 C10.816,2.176 -1.561,18.289 0.326,35.39 C2.199,52.482 17.54,63.835 34.308,62.01 C51.048,60.167 62.213,45.897 60.339,28.819 L60.339,28.819 Z" id="path-55"></path>
        <path d="M66.842,22.464 C71.027,41.869 86.914,60.992 97.797,77.789 C103.788,87.039 106.18,94.411 106.766,100.768 C107.437,108.171 105.809,121.022 92.682,130.045 C79.348,139.219 44.982,133.114 27.643,128.672 C23.283,127.553 20.126,126.735 18.271,126.498 C6.319,124.051 2.948,128.175 1.383,130.747 C-1.117,134.827 -0.593,141.143 6.386,146.019 C29.301,163.303 67.602,172.8 94.318,171.95 C98.611,171.919 100.216,171.717 104.316,171.337 C108.398,170.666 113.075,173.574 114.01,178.687 C119.353,207.731 125.532,240.744 141.87,271.443 C149.985,286.701 158.709,287.475 164.012,284.304 C173.58,278.578 166.954,264.277 164.034,251.112 C161.378,239.026 154.957,207.704 155.244,187.007 C155.914,137.927 168.403,114.451 181.816,96.075 C192.19,81.855 207.101,68.221 220.305,52.873 C226.296,45.899 231.188,38.787 233.683,31.996 C237.117,22.567 235.203,17.306 231.049,14.962 C224.222,11.156 217.461,15.638 210.513,23.878 C197.452,39.386 193.366,44.996 182.339,53.973 C164.521,68.489 129.663,76.205 105.724,42.397 C98.897,32.77 94.56,22.97 90.531,15.097 C87.106,8.418 82.425,-0.788 74.533,0.299 C64.946,1.614 64.472,11.464 66.842,22.464 L66.842,22.464 Z" id="path-57"></path>
        <path d="M41.94,15.977 C33.374,13.213 25.96,7.644 20.805,0.29 C7.176,7.805 -1.069,23.179 1.315,39.484 C4.404,60.463 23.908,74.965 44.865,71.857 C65.821,68.801 80.322,49.285 77.232,28.31 C76.646,24.262 75.399,20.455 73.686,16.961 C67.695,19.596 61.06,20.764 54.183,20.303 C50.199,20.043 45.92,19.256 41.225,17.06 C40.684,16.809 40.402,16.416 40.487,16.174 C40.599,15.87 41.238,15.754 41.94,15.977 L41.94,15.977 Z" id="path-59"></path>
        <path d="M74.917,33.532 C71.764,12.141 51.881,-2.656 30.481,0.493 C26.551,1.066 22.853,2.22 19.437,3.83 C20.752,8.746 21.328,13.976 20.895,19.379 C19.719,34.346 11.554,47.028 0.045,54.163 C6.707,70.392 23.738,80.662 41.883,77.983 C63.282,74.838 78.06,54.937 74.917,33.532 L74.917,33.532 Z" id="path-61"></path>
        <path d="M1.095,7.046 C1.681,5.717 2.49,4.545 3.505,3.566 C4.529,2.582 5.696,1.812 7.055,1.249 C8.396,0.685 9.836,0.403 11.343,0.403 C12.863,0.403 14.285,0.685 15.631,1.249 C16.968,1.812 18.139,2.582 19.145,3.566 C20.151,4.545 20.947,5.717 21.538,7.046 C22.123,8.388 22.423,9.842 22.423,11.394 C22.423,12.991 22.123,14.463 21.538,15.813 C20.947,17.164 20.151,18.332 19.145,19.329 C18.139,20.327 16.968,21.092 15.631,21.646 C14.285,22.206 12.863,22.47 11.343,22.47 C9.836,22.47 8.396,22.206 7.055,21.646 C5.696,21.092 4.529,20.327 3.505,19.329 C2.49,18.332 1.681,17.164 1.095,15.813 C0.505,14.463 0.21,12.991 0.21,11.394 C0.21,9.842 0.505,8.388 1.095,7.046 L1.095,7.046 Z M2.915,15.165 C3.38,16.319 4.024,17.316 4.828,18.162 C5.66,18.998 6.621,19.669 7.73,20.148 C8.844,20.644 10.055,20.882 11.343,20.882 C12.626,20.882 13.82,20.644 14.92,20.148 C16.024,19.669 16.977,18.998 17.804,18.162 C18.622,17.316 19.253,16.319 19.722,15.165 C20.183,14.015 20.415,12.758 20.415,11.394 C20.415,10.079 20.183,8.844 19.722,7.712 C19.253,6.567 18.622,5.579 17.804,4.733 C16.977,3.897 16.024,3.248 14.92,2.756 C13.82,2.286 12.626,2.036 11.343,2.036 C10.055,2.036 8.844,2.286 7.73,2.756 C6.621,3.248 5.66,3.897 4.828,4.733 C4.024,5.579 3.38,6.567 2.915,7.712 C2.45,8.844 2.222,10.079 2.222,11.394 C2.222,12.758 2.45,14.015 2.915,15.165 L2.915,15.165 Z M12.018,4.979 C13.565,4.979 14.696,5.283 15.434,5.905 C16.172,6.514 16.548,7.435 16.548,8.683 C16.548,9.842 16.212,10.687 15.573,11.228 C14.92,11.77 14.111,12.087 13.149,12.186 L16.843,17.893 L14.679,17.893 L11.169,12.338 L9.045,12.338 L9.045,17.893 L7.033,17.893 L7.033,4.979 L12.018,4.979 L12.018,4.979 Z M11.133,10.701 C11.589,10.701 12.018,10.687 12.421,10.656 C12.827,10.633 13.181,10.548 13.498,10.405 C13.816,10.276 14.071,10.07 14.254,9.784 C14.437,9.493 14.531,9.095 14.531,8.585 C14.531,8.164 14.451,7.811 14.281,7.56 C14.111,7.314 13.901,7.113 13.637,6.974 C13.369,6.831 13.06,6.742 12.716,6.684 C12.371,6.634 12.036,6.621 11.701,6.621 L9.045,6.621 L9.045,10.701 L11.133,10.701 L11.133,10.701 Z" id="path-63"></path>
    </defs>
    <g id="Page-1" stroke="none" stroke-width="1" fill="none" fill-rule="evenodd">
        <g id="Children's-Logo">
            <g id="Group-3" transform="translate(241.000000, 438.000000)">
                <mask id="mask-2" fill="white">
                    <use xlink:href="#path-1"></use>
                </mask>
                <g id="Clip-2"></g>
                <polygon id="Fill-1" fill="#1F5D94" mask="url(#mask-2)" points="0.02 0.4 7.34 0.4 7.34 15.28 0.02 15.28"></polygon>
            </g>
            <g id="Group-6" transform="translate(14.000000, 440.000000)">
                <mask id="mask-4" fill="white">
                    <use xlink:href="#path-3"></use>
                </mask>
                <g id="Clip-5"></g>
                <polygon id="Fill-4" fill="#1F5D94" mask="url(#mask-4)" points="0.58 -0.04 33.34 -0.04 33.34 43.52 0.58 43.52"></polygon>
            </g>
            <g id="Group-9" transform="translate(53.000000, 438.000000)">
                <mask id="mask-6" fill="white">
                    <use xlink:href="#path-5"></use>
                </mask>
                <g id="Clip-8"></g>
                <polygon id="Fill-7" fill="#1F5D94" mask="url(#mask-6)" points="-0.02 0.4 27.58 0.4 27.58 44.8 -0.02 44.8"></polygon>
            </g>
            <g id="Group-12" transform="translate(88.000000, 439.000000)">
                <mask id="mask-8" fill="white">
                    <use xlink:href="#path-7"></use>
                </mask>
                <g id="Clip-11"></g>
                <polygon id="Fill-10" fill="#1F5D94" mask="url(#mask-8)" points="0.14 0.72 8.9 0.72 8.9 43.8 0.14 43.8"></polygon>
            </g>
            <g id="Group-15" transform="translate(104.000000, 438.000000)">
                <mask id="mask-10" fill="white">
                    <use xlink:href="#path-9"></use>
                </mask>
                <g id="Clip-14"></g>
                <polygon id="Fill-13" fill="#1F5D94" mask="url(#mask-10)" points="0.58 0.4 8.38 0.4 8.38 44.8 0.58 44.8"></polygon>
            </g>
            <g id="Group-18" transform="translate(118.000000, 438.000000)">
                <mask id="mask-12" fill="white">
                    <use xlink:href="#path-11"></use>
                </mask>
                <g id="Clip-17"></g>
                <polygon id="Fill-16" fill="#1F5D94" mask="url(#mask-12)" points="0.62 0.4 30.98 0.4 30.98 45.52 0.62 45.52"></polygon>
            </g>
            <g id="Group-21" transform="translate(156.000000, 451.000000)">
                <mask id="mask-14" fill="white">
                    <use xlink:href="#path-13"></use>
                </mask>
                <g id="Clip-20"></g>
                <polygon id="Fill-19" fill="#1F5D94" mask="url(#mask-14)" points="0.54 0.6 17.94 0.6 17.94 31.8 0.54 31.8"></polygon>
            </g>
            <g id="Group-24" transform="translate(176.000000, 451.000000)">
                <mask id="mask-16" fill="white">
                    <use xlink:href="#path-15"></use>
                </mask>
                <g id="Clip-23"></g>
                <polygon id="Fill-22" fill="#1F5D94" mask="url(#mask-16)" points="0.46 0.6 28.54 0.6 28.54 32.52 0.46 32.52"></polygon>
            </g>
            <g id="Group-27" transform="translate(210.000000, 451.000000)">
                <mask id="mask-18" fill="white">
                    <use xlink:href="#path-17"></use>
                </mask>
                <g id="Clip-26"></g>
                <polygon id="Fill-25" fill="#1F5D94" mask="url(#mask-18)" points="0.3 0.6 28.14 0.6 28.14 31.8 0.3 31.8"></polygon>
            </g>
            <g id="Group-30" transform="translate(250.000000, 451.000000)">
                <mask id="mask-20" fill="white">
                    <use xlink:href="#path-19"></use>
                </mask>
                <g id="Clip-29"></g>
                <polygon id="Fill-28" fill="#1F5D94" mask="url(#mask-20)" points="0.5 0.6 22.22 0.6 22.22 32.52 0.5 32.52"></polygon>
            </g>
            <g id="Group-33" transform="translate(293.000000, 440.000000)">
                <mask id="mask-22" fill="white">
                    <use xlink:href="#path-21"></use>
                </mask>
                <g id="Clip-32"></g>
                <polygon id="Fill-31" fill="#1F5D94" mask="url(#mask-22)" points="0.22 0.68 33.46 0.68 33.46 42.8 0.22 42.8"></polygon>
            </g>
            <g id="Group-36" transform="translate(332.000000, 451.000000)">
                <mask id="mask-24" fill="white">
                    <use xlink:href="#path-23"></use>
                </mask>
                <g id="Clip-35"></g>
                <polygon id="Fill-34" fill="#1F5D94" mask="url(#mask-24)" points="0.82 0.6 31.78 0.6 31.78 32.52 0.82 32.52"></polygon>
            </g>
            <g id="Group-39" transform="translate(367.000000, 451.000000)">
                <mask id="mask-26" fill="white">
                    <use xlink:href="#path-25"></use>
                </mask>
                <g id="Clip-38"></g>
                <polygon id="Fill-37" fill="#1F5D94" mask="url(#mask-26)" points="0.62 0.6 22.34 0.6 22.34 32.52 0.62 32.52"></polygon>
            </g>
            <g id="Group-42" transform="translate(395.000000, 451.000000)">
                <mask id="mask-28" fill="white">
                    <use xlink:href="#path-27"></use>
                </mask>
                <g id="Clip-41"></g>
                <polygon id="Fill-40" fill="#1F5D94" mask="url(#mask-28)" points="0.22 0.6 30.7 0.6 30.7 44.16 0.22 44.16"></polygon>
            </g>
            <g id="Group-45" transform="translate(432.000000, 439.000000)">
                <mask id="mask-30" fill="white">
                    <use xlink:href="#path-29"></use>
                </mask>
                <g id="Clip-44"></g>
                <polygon id="Fill-43" fill="#1F5D94" mask="url(#mask-30)" points="-0.06 0.72 8.7 0.72 8.7 43.8 -0.06 43.8"></polygon>
            </g>
            <g id="Group-48" transform="translate(446.000000, 444.000000)">
                <mask id="mask-32" fill="white">
                    <use xlink:href="#path-31"></use>
                </mask>
                <g id="Clip-47"></g>
                <polygon id="Fill-46" fill="#1F5D94" mask="url(#mask-32)" points="0.7 0.52 19.9 0.52 19.9 39.52 0.7 39.52"></polygon>
            </g>
            <g id="Group-51" transform="translate(470.000000, 451.000000)">
                <mask id="mask-34" fill="white">
                    <use xlink:href="#path-33"></use>
                </mask>
                <g id="Clip-50"></g>
                <polygon id="Fill-49" fill="#1F5D94" mask="url(#mask-34)" points="0.46 0.6 26.62 0.6 26.62 32.52 0.46 32.52"></polygon>
            </g>
            <g id="Group-54" transform="translate(503.000000, 438.000000)">
                <mask id="mask-36" fill="white">
                    <use xlink:href="#path-35"></use>
                </mask>
                <g id="Clip-53"></g>
                <polygon id="Fill-52" fill="#1F5D94" mask="url(#mask-36)" points="0.46 0.4 8.38 0.4 8.38 44.8 0.46 44.8"></polygon>
            </g>
            <g id="Group-57" transform="translate(532.000000, 439.000000)">
                <mask id="mask-38" fill="white">
                    <use xlink:href="#path-37"></use>
                </mask>
                <g id="Clip-56"></g>
                <polygon id="Fill-55" fill="#1F5D94" mask="url(#mask-38)" points="0.02 0.24 33.38 0.24 33.38 44.4 0.02 44.4"></polygon>
            </g>
            <g id="Group-60" transform="translate(567.000000, 451.000000)">
                <mask id="mask-40" fill="white">
                    <use xlink:href="#path-39"></use>
                </mask>
                <g id="Clip-59"></g>
                <polygon id="Fill-58" fill="#1F5D94" mask="url(#mask-40)" points="0.3 0 31.74 0 31.74 32.4 0.3 32.4"></polygon>
            </g>
            <g id="Group-63" transform="translate(604.000000, 437.000000)">
                <mask id="mask-42" fill="white">
                    <use xlink:href="#path-41"></use>
                </mask>
                <g id="Clip-62"></g>
                <polygon id="Fill-61" fill="#1F5D94" mask="url(#mask-42)" points="0.14 0.56 7.94 0.56 7.94 45.68 0.14 45.68"></polygon>
            </g>
            <g id="Group-66" transform="translate(617.000000, 451.000000)">
                <mask id="mask-44" fill="white">
                    <use xlink:href="#path-43"></use>
                </mask>
                <g id="Clip-65"></g>
                <polygon id="Fill-64" fill="#1F5D94" mask="url(#mask-44)" points="0.46 0 31.9 0 31.9 32.4 0.46 32.4"></polygon>
            </g>
            <g id="Group-69" transform="translate(654.000000, 451.000000)">
                <mask id="mask-46" fill="white">
                    <use xlink:href="#path-45"></use>
                </mask>
                <g id="Clip-68"></g>
                <polygon id="Fill-67" fill="#1F5D94" mask="url(#mask-46)" points="-0.06 0 17.58 0 17.58 31.68 -0.06 31.68"></polygon>
            </g>
            <g id="Group-72" transform="translate(673.000000, 451.000000)">
                <mask id="mask-48" fill="white">
                    <use xlink:href="#path-47"></use>
                </mask>
                <g id="Clip-71"></g>
                <polygon id="Fill-70" fill="#1F5D94" mask="url(#mask-48)" points="0.14 0 26.78 0 26.78 32.4 0.14 32.4"></polygon>
            </g>
            <g id="Group-75" transform="translate(704.000000, 437.000000)">
                <mask id="mask-50" fill="white">
                    <use xlink:href="#path-49"></use>
                </mask>
                <g id="Clip-74"></g>
                <polygon id="Fill-73" fill="#1F5D94" mask="url(#mask-50)" points="0.58 0.56 31.3 0.56 31.3 46.4 0.58 46.4"></polygon>
            </g>
            <g id="Group-78" transform="translate(740.000000, 451.000000)">
                <mask id="mask-52" fill="white">
                    <use xlink:href="#path-51"></use>
                </mask>
                <g id="Clip-77"></g>
                <polygon id="Fill-76" fill="#1F5D94" mask="url(#mask-52)" points="0.34 0 31.78 0 31.78 32.4 0.34 32.4"></polygon>
            </g>
            <g id="Group-81" transform="translate(13.000000, 0.000000)">
                <mask id="mask-54" fill="white">
                    <use xlink:href="#path-53"></use>
                </mask>
                <g id="Clip-80"></g>
                <polygon id="Fill-79" fill="#BD3540" mask="url(#mask-54)" points="0.26 0.88 83.42 0.88 83.42 84.04 0.26 84.04"></polygon>
            </g>
            <g id="Group-84" transform="translate(137.000000, 112.000000)">
                <mask id="mask-56" fill="white">
                    <use xlink:href="#path-55"></use>
                </mask>
                <g id="Clip-83"></g>
                <polygon id="Fill-82" fill="#1F5D94" mask="url(#mask-56)" points="0.1 0.12 60.58 0.12 60.58 62.28 0.1 62.28"></polygon>
            </g>
            <g id="Group-87" transform="translate(20.000000, 114.000000)">
                <mask id="mask-58" fill="white">
                    <use xlink:href="#path-57"></use>
                </mask>
                <g id="Clip-86"></g>
                <polygon id="Fill-85" fill="#1F5D94" mask="url(#mask-58)" points="-0.02 0.16 235.54 0.16 235.54 285.88 -0.02 285.88"></polygon>
            </g>
            <g id="Group-90" transform="translate(0.000000, 66.000000)">
                <mask id="mask-60" fill="white">
                    <use xlink:href="#path-59"></use>
                </mask>
                <g id="Clip-89"></g>
                <polygon id="Fill-88" fill="#DF8F3B" mask="url(#mask-60)" points="0.9 0.28 77.7 0.28 77.7 72.28 0.9 72.28"></polygon>
            </g>
            <g id="Group-93" transform="translate(79.000000, 26.000000)">
                <mask id="mask-62" fill="white">
                    <use xlink:href="#path-61"></use>
                </mask>
                <g id="Clip-92"></g>
                <polygon id="Fill-91" fill="#F5C837" mask="url(#mask-62)" points="0.02 0.08 75.38 0.08 75.38 78.44 0.02 78.44"></polygon>
            </g>
            <g id="Group-96" transform="translate(193.000000, 348.000000)">
                <mask id="mask-64" fill="white">
                    <use xlink:href="#path-63"></use>
                </mask>
                <g id="Clip-95"></g>
                <polygon id="Fill-94" fill="#1F5D94" mask="url(#mask-64)" points="0.14 0.4 22.46 0.4 22.46 22.48 0.14 22.48"></polygon>
            </g>
        </g>
    </g>
</svg>