<?xml version="1.0" encoding="UTF-8"?>
<svg width="352px" height="228px" viewBox="0 0 352 228" version="1.1" xmlns="http://www.w3.org/2000/svg" xmlns:xlink="http://www.w3.org/1999/xlink">
    <title>Slice</title>
    <g id="Dev" stroke="none" stroke-width="1" fill="none" fill-rule="evenodd">
        <path d="M240.575999,4.90999908 L240.575999,178.481001 L256.320012,178.480997 L256.320012,214.765085 L238.179012,214.765085 C228.20701,214.765085 218.742009,210.370998 212.31601,202.747997 C192.075009,216.946997 165.612007,218.695998 143.679007,207.286998 C121.965337,195.98912 107.821267,173.653353 107.559,149.219064 L107.559,65.9999991 L107.561,65.9999991 L107.561134,10.3204136 C128.609765,19.8055392 143.363834,40.7827344 143.828693,65.257351 L143.84,65.9999991 L143.840001,66.4490015 L143.840001,66.4490015 L143.839,66.5989991 L143.839913,83.1503356 L144.282005,148.477998 C144.415654,164.789238 157.545429,177.971998 173.794657,178.234022 L174.288002,178.237997 C190.599241,178.237997 203.890792,165.218349 204.285981,148.971311 L204.293999,148.477998 L204.293999,4.90999908 L240.575999,4.90999908 Z" id="U" fill="#FFC300" fill-rule="nonzero"></path>
        <path d="M57.0560013,214.769 L57.0560013,127.985 L82.3070007,127.985 C116.291,127.985 143.840001,100.433001 143.840001,66.4490015 C143.840001,32.4650018 116.291,4.91600128 82.3070007,4.91600128 L82.3070007,4.91 L5,4.91 L5,41.1920007 L20.7740005,41.1920007 L20.7740005,214.769 L57.0560013,214.769 Z M82.3070007,91.6939996 L57.0560013,91.6939996 L57.0560013,41.1889978 L82.3070007,41.1889978 C96.2540024,41.1889978 107.558,52.4959985 107.558,66.4430002 C107.558,80.3869989 96.2540024,91.6939996 82.3070007,91.6939996 Z" id="P" fill="#FF1900" fill-rule="nonzero"></path>
        <path d="M57.0560013,214.769 L57.0560013,127.985 L82.3070007,127.985 C116.291,127.985 143.840001,100.433001 143.840001,66.4490015 C143.840001,32.4650018 116.291,4.91600128 82.3070007,4.91600128 L82.3070007,4.91 L5,4.91 L5,41.1920007 L20.7740005,41.1920007 L20.7740005,214.769 L57.0560013,214.769 Z M82.3070007,91.6939996 L57.0560013,91.6939996 L57.0560013,41.1889978 L82.3070007,41.1889978 C96.2540024,41.1889978 107.558,52.4959985 107.558,66.4430002 C107.558,80.3869989 96.2540024,91.6939996 82.3070007,91.6939996 Z" id="P-Copy" fill="#FE423D" fill-rule="nonzero"></path>
        <g id="pediatric" transform="translate(57.000000, 93.550000)" fill="#000000" fill-rule="nonzero">
            <g id="Group-4" transform="translate(56.750000, 2.700000)">
                <polygon id="Path" points="4.21967879 2.15315328 2.03965197 0 -2.13162821e-14 2.06510889 2.18002682 4.21826217"></polygon>
                <polygon id="Path" points="13.9515084 11.7650171 6.44666318 4.35268529 4.40701121 6.41779418 11.9118564 13.830126"></polygon>
            </g>
            <g id="Combined-Shape-2" transform="translate(40.500000, 18.350000)">
                <path d="M8.15501354,-7.10542736e-15 L12.1775516,9.76618706 L9.49373078,10.8716104 L9.27792918,10.3476728 C7.65093181,12.230475 4.93005247,12.7222467 2.74671968,11.5276508 C0.563700368,10.3331852 -0.489349325,7.7765207 0.21916279,5.39107904 C0.927805682,3.00532409 3.20574798,1.4381602 5.68690284,1.62913879 L5.68690284,1.62913879 L5.47110124,1.10520123 L8.15501354,-7.10542736e-15 Z M7.48223331,5.98796224 C6.98198678,4.77343026 5.59171222,4.19413184 4.3769581,4.69446986 C3.16242612,5.19471638 2.5832192,6.58521308 3.08346572,7.79974506 C3.58380373,9.01449918 4.97420894,9.59348397 6.18874093,9.09323744 L6.18874093,9.09323744 L6.33729221,9.02642248 C7.44892903,8.47651258 7.96027273,7.15220172 7.48223331,5.98796224 Z" id="Combined-Shape"></path>
            </g>
            <g id="Group-3" transform="translate(37.239374, 24.847695) rotate(3.000000) translate(-37.239374, -24.847695) translate(33.239374, 16.347695)">
                <polygon id="Path" points="3.59308912 2.96096494 2.80488065 0 -2.84217094e-14 0.746658859 0.788208477 3.7076238"></polygon>
                <polygon id="Path" points="7.11172042 16.1789703 4.39827554 5.98570879 1.59339489 6.73236765 4.30683978 16.9256292"></polygon>
            </g>
            <path d="M32.0291406,17.05 L33.9574666,33.7283348 L31.0741144,34.061704 L31.0090338,33.4988138 C28.9310773,34.8678138 26.1790557,34.600605 24.4031988,32.8569497 C22.6276082,31.113505 22.3100336,28.3667627 23.6409483,26.2641482 C24.972074,24.1612679 27.5905165,23.2731334 29.9260664,24.1320914 L29.9260664,24.1320914 L29.1457884,17.3833688 L32.0291406,17.05 Z M30.4675501,28.8154526 C30.3166877,27.510625 29.136522,26.5748586 27.8314557,26.7257485 C26.5266281,26.8766109 25.5908893,28.0570153 25.7417517,29.3618429 C25.8926416,30.6669091 27.0730184,31.6024093 28.3778461,31.4515473 C29.6820041,31.299071 30.616927,30.119969 30.4675501,28.8154526 Z" id="Combined-Shape"></path>
            <path d="M2.90256006,40.6658751 L2.90256006,33.8724352 C4.85232019,34.8561953 7.2064801,34.5381953 8.82552026,33.0727554 C10.4445604,31.6070752 10.9946404,29.2961153 10.2091205,27.2582753 C9.42384045,25.2204352 7.46520044,23.8764316 5.28120044,23.8764316 C4.45488025,23.8754753 3.63984009,24.0696352 2.90256006,24.4430752 L2.90256006,23.8764316 L7.10542736e-15,23.8764316 L7.10542736e-15,40.6658751 L2.90256006,40.6658751 Z M5.28120007,31.5365151 C4.31904053,31.536035 3.45168054,30.9564352 3.0832804,30.0677152 C2.71512048,29.1787554 2.91864038,28.1556352 3.59880029,27.4752351 C4.27920044,26.7948349 5.30232056,26.5913151 6.1912804,26.959475 C7.08024023,27.3276349 7.65984009,28.1949949 7.65984009,29.1571548 C7.65864001,30.4704348 6.5944801,31.5348349 5.28120007,31.5365151 Z M16.6553054,34.4445943 C18.2301853,34.4445943 19.4933054,33.9420343 20.8764255,32.7643541 L18.9955456,30.553954 C18.1382656,31.284514 17.4686657,31.485874 16.5981856,31.485874 C16.1673868,31.5012351 15.7416267,31.3891551 15.3744266,31.1633151 L18.6038665,29.8296349 L19.0020264,29.6652347 L21.9288264,28.4556349 L21.3588264,27.1075549 L21.3497063,27.0864348 L21.3480261,27.082115 L21.3403459,27.0643548 L21.3386657,27.0605148 L21.3295456,27.0398747 L21.3276256,27.0350748 L21.3216256,27.0211548 L21.3163455,27.0096349 L21.3141856,27.0043548 C21.2676256,26.9009149 21.2174657,26.8003548 21.1649056,26.7012347 C21.1483455,26.6700347 21.1317855,26.6390748 21.1147453,26.6083548 C21.0717855,26.5313147 21.0273853,26.4557148 20.9815452,26.3813147 C20.9592254,26.3453147 20.9366654,26.3093147 20.9133853,26.2737948 C20.8764255,26.2171548 20.8394657,26.1609949 20.8005858,26.106035 L20.7989056,26.106035 C19.3377855,24.0516349 16.6284255,23.3162749 14.3292254,24.3497148 C12.0297855,25.383395 10.7813054,27.8976349 11.3477055,30.354035 L11.3534657,30.3792351 C11.4523455,30.802115 11.6040257,31.2105951 11.8051458,31.5953151 L11.810186,31.605395 C11.9604259,31.8909949 12.1373057,32.1619547 12.3379458,32.4144348 L12.3389056,32.4158747 C13.3910655,33.7173946 14.9817855,34.4649945 16.6553054,34.4445943 Z M14.2629863,28.8065137 L14.2634657,28.8036341 C14.3515456,27.9943541 14.8632258,27.2930741 15.6069859,26.962594 C15.866906,26.847874 16.1479461,26.7890741 16.4318662,26.7900224 C16.9409063,26.7907539 17.4353065,26.9601938 17.8377866,27.2717137 C17.8531466,27.2844337 17.8680264,27.2978736 17.8829063,27.3115538 L16.0891462,28.0524337 L14.3685861,28.7630737 L14.2629863,28.8065137 Z M59.8197606,23.8999012 L58.3252166,21.4116903 L57.134192,22.1270793 L54.6847661,18.049121 L55.875791,17.3337323 L54.3812471,14.8455214 L53.1902224,15.5609104 L49.9882109,10.23 L47.5,11.7245439 L50.7020115,17.0554544 L49.9800725,17.4890871 L51.4746164,19.9772979 L52.1965555,19.5436652 L54.6778641,23.674704 C55.4867585,25.0181392 57.2304897,25.4531869 58.5756551,24.6471731 L59.8197606,23.8999012 Z M64.3993371,20.404329 L60.2764132,15.2011531 C60.0177693,14.8751278 59.9813709,14.4253603 60.183894,14.0618653 C60.386268,13.6981823 60.7878359,13.4923652 61.2011514,13.5405817 L61.5344606,10.6571371 C60.4986897,10.5344291 59.4568788,10.8311178 58.6411623,11.4811545 C58.3686369,11.6967937 58.1257482,11.9471294 57.9190087,12.2260823 L57.8349434,12.119991 L55.56,13.9226245 L62.1243937,22.2069624 L64.3993371,20.404329 Z M76.4964052,4.37674721 L73.6306969,4.83726743 C73.7325016,5.460312 73.5808896,6.09793946 73.2096423,6.60842139 C72.5787269,7.48083201 71.4406204,7.82058523 70.4346806,7.43697207 C69.4287408,7.05335891 68.8058392,6.04220928 68.9160246,4.97122028 C69.02621,3.90023128 69.8419658,3.03680168 70.904756,2.86590298 L70.4443765,8.8817842e-16 C67.5645934,0.462781201 65.6050426,3.17238664 66.0676291,6.05202894 C66.5304103,8.93181203 69.2400157,10.8913629 72.119658,10.4287764 C74.9993004,9.96618983 76.9590456,7.25672496 76.4964052,4.37674721 Z"></path>
        </g>
        <path d="M237.620699,214.760492 C227.85444,214.599786 218.621965,210.228593 212.31601,202.747997 C209.734345,204.559026 207.05146,206.167519 204.289,207.572005 L204.289,148.758999 L204.293999,148.477998 L204.293,141.999956 L204.289,4.90995505 L265.787002,4.90995505 C288.395002,4.90700219 309.182,17.312004 319.909998,37.2140029 C330.530717,56.9169818 329.598998,80.8157701 317.519458,99.6158713 L317.149999,100.184001 C341.014995,114.281003 352.504996,142.604004 345.193998,169.343005 C337.953136,195.817585 314.061359,214.400396 286.687561,214.754867 L285.857,214.760492 L237.620699,214.760492 Z M285.856991,127.895004 L240.571992,127.895004 L240.571992,178.48 L285.856991,178.48 C299.78299,178.48 311.071992,167.033006 311.071992,153.110005 C311.071992,139.184006 299.78299,127.895004 285.856991,127.895004 Z M266.661899,41.1963027 L266.224999,41.1888758 L240.574995,41.1888758 L240.571992,91.6161289 L266.224999,91.6161289 C275.120154,91.5417585 283.329447,86.782614 287.809994,79.0730026 C292.363991,71.2400024 292.363991,61.5650024 287.809994,53.7290038 C283.402899,46.1486811 275.388309,41.4200736 266.661899,41.1963027 Z" id="B" fill="#00DAFF" fill-rule="nonzero"></path>
        <path d="M240.575999,4.90999908 L240.575999,178.481001 L256.320012,178.480997 L256.320012,214.765085 L238.179012,214.765085 C228.20701,214.765085 218.742009,210.370998 212.31601,202.747997 C192.075009,216.946997 165.612007,218.695998 143.679007,207.286998 C121.965337,195.98912 107.821267,173.653353 107.559,149.219064 L107.559,65.9999991 L107.561134,10.3204136 C128.609765,19.8055392 143.363834,40.7827344 143.828693,65.257351 L143.84,65.9999991 L143.840001,66.4490015 L143.839,66.5989991 L143.839913,83.1503356 L144.282005,148.477998 C144.415654,164.789238 157.545429,177.971998 173.794657,178.234022 L174.288002,178.237997 C190.599241,178.237997 203.890792,165.218349 204.285981,148.971311 L204.293999,148.477998 L204.293999,4.90999908 L240.575999,4.90999908 Z" id="U-(transparent)" fill="#FFC300" fill-rule="nonzero" opacity="0.599702381"></path>
        <path d="M237.620699,214.760492 C227.85444,214.599786 218.621965,210.228593 212.31601,202.747997 C209.734345,204.559026 207.05146,206.167519 204.289,207.572005 L204.289,148.758999 L204.293999,148.477998 L204.293,141.999956 L204.289,4.90995505 L265.787002,4.90995505 C288.395002,4.90700219 309.182,17.312004 319.909998,37.2140029 C330.530717,56.9169818 329.598998,80.8157701 317.519458,99.6158713 L317.149999,100.184001 C341.014995,114.281003 352.504996,142.604004 345.193998,169.343005 C337.953136,195.817585 314.061359,214.400396 286.687561,214.754867 L285.857,214.760492 L237.620699,214.760492 Z M285.856991,127.895004 L240.571992,127.895004 L240.571992,178.48 L285.856991,178.48 C299.78299,178.48 311.071992,167.033006 311.071992,153.110005 C311.071992,139.184006 299.78299,127.895004 285.856991,127.895004 Z M266.661899,41.1963027 L266.224999,41.1888758 L240.574995,41.1888758 L240.571992,91.6161289 L266.224999,91.6161289 C275.120154,91.5417585 283.329447,86.782614 287.809994,79.0730026 C292.363991,71.2400024 292.363991,61.5650024 287.809994,53.7290038 C283.402899,46.1486811 275.388309,41.4200736 266.661899,41.1963027 Z" id="B-(transparent)" fill="#00DAFF" fill-rule="nonzero" opacity="0.452264695"></path>
        <g id="Group-2-Copy" transform="translate(57.000000, 27.000000)">
            <path d="M0.0560012817,100.895004 C5.6780014,100.895004 14.0950012,100.895004 25.3070007,100.895004 C42.125,100.895004 86.8400009,88.5900287 86.8400009,39.4414987" id="Path-2"></path>
            <path d="M50.56,122.22 C50.82,146.65 64.97,168.99 86.68,180.29 C108.39,191.59 135.08,189.95 155.32,175.75" id="Path-3"></path>
            <path d="M73.2009607,171.244001 L80.6054664,163.701473 L78.5343542,161.66826 L74.3805004,165.899543 C73.708143,166.584433 72.6078186,166.594594 71.9229282,165.922236 C71.2380377,165.249879 71.2278772,164.149555 71.9002347,163.464664 L76.0540884,159.233381 L73.9828045,157.2 L69.8289508,161.431283 C68.7483703,162.532006 68.2854268,164.097809 68.5936647,165.609141 C68.9019025,167.120473 69.9409749,168.379991 71.3662377,168.96965 L71.1296768,169.21062 L73.2009607,171.244001 Z M77.5871539,174.622944 L81.5362431,169.286631 C81.7836089,168.951968 82.208354,168.799628 82.612064,168.900437 C83.0159168,169.001053 83.3192626,169.335117 83.3804118,169.746718 L86.2510955,169.317156 C86.0996674,168.285193 85.5417575,167.356683 84.7016214,166.73853 C84.4224181,166.53161 84.1174398,166.362344 83.7942524,166.235435 L83.8747732,166.126629 L81.5416194,164.4 L75.254,172.896315 L77.5871539,174.622944 Z M94.3178437,183.63927 L100.215053,167.919594 L97.4972097,166.9 L91.6,182.619676 L94.3178437,183.63927 Z M128.74574,193.882271 C131.276852,193.47949 133.002236,191.101348 132.599456,188.570235 L130.565714,175.79 L127.698984,176.246188 L128.630822,182.101949 C128.781653,183.049783 128.13552,183.940473 127.187686,184.091304 C126.239852,184.242134 125.349161,183.596002 125.198331,182.648167 L124.266493,176.792406 L121.4,177.248557 L122.331838,183.104318 C122.574482,184.627593 123.557846,185.930929 124.956469,186.581776 C126.354855,187.232662 127.985135,187.146262 129.306976,186.350967 L129.732726,189.026423 C129.883556,189.974257 129.237424,190.864948 128.289589,191.015778 C127.341755,191.166609 126.451065,190.520476 126.300234,189.572642 L123.433741,190.028792 C123.836522,192.559905 126.214864,194.285014 128.74574,193.882271 Z" id="urology" fill="#000000" fill-rule="nonzero"></path>
            <path d="M183.571992,14.1889368 L209.22,14.1889368 C218.39,14.42 226.26,18.89 230.81,26.73" id="Path-4"></path>
            <path d="M219.575774,16.5301204 L221.168523,13.4738439 C221.394101,13.0295633 221.840785,12.7405638 222.338403,12.7173492 C222.836132,12.6939218 223.307981,12.9398217 223.573896,13.3612144 C223.839922,13.7823944 223.858916,14.3140774 223.623973,14.7534776 L222.031224,17.8097541 L224.605222,19.1511678 L226.19797,16.0948912 C226.681748,15.1686633 226.808995,14.097225 226.555698,13.0834919 C227.531722,12.7104076 228.337053,11.992348 228.819128,11.0652313 L229.490048,9.77834327 L226.91605,8.43692964 L226.245343,9.72392851 C225.890911,10.400922 225.055854,10.6639789 224.37764,10.3118878 C223.960071,10.0937346 223.509435,9.94630486 223.043884,9.87527026 L227.341532,1.62864477 L224.767534,0.287231136 L217.001776,15.1887068 L219.575774,16.5301204 Z" id="book" fill="#000000" fill-rule="nonzero"></path>
        </g>
        <path d="M264.799693,33.2373934 C265.929783,31.4246917 268.040509,30.4713667 270.147577,30.8217399 C273.022779,31.3034919 274.965603,34.0213112 274.490993,36.8974575 C274.14058,39.0047618 272.55548,40.6933865 270.474605,41.1760326 C268.39373,41.6586788 266.227029,40.8402637 264.984908,39.1026596 C263.74255,37.3650162 263.669604,35.050095 264.799693,33.2373934 Z M270.539847,34.0123418 C269.723319,33.5033503 268.680436,33.5362491 267.897881,34.0958648 C267.11509,34.6554411 266.746501,35.6313191 266.964093,36.5686675 C267.181487,37.5057399 267.942026,38.2197644 268.891113,38.3778265 C270.18688,38.5915897 271.411183,37.7164008 271.627788,36.4211061 C271.785613,35.4719787 271.356139,34.521294 270.539847,34.0123418 Z" id="Combined-Shape" fill="#000000" fill-rule="nonzero"></path>
        <path d="M257.281404,30.6 C260.196684,30.6035999 262.559004,32.9659197 262.562604,35.8809598 C262.562604,38.0171997 261.275964,39.9429598 259.302444,40.7603998 C257.328924,41.5778397 255.057324,41.1259197 253.547004,39.6155999 C252.036444,38.10528 251.584764,35.8336802 252.402204,33.8601603 C253.219644,31.8866404 255.145404,30.6 257.281404,30.6 Z M258.191724,33.6830398 C257.302764,33.3148799 256.279404,33.5183998 255.599244,34.1987999 C254.918844,34.8792001 254.715324,35.9023202 255.083724,36.79128 C255.451884,37.68 256.319244,38.2595999 257.281404,38.2598397 C258.594684,38.2581595 259.658844,37.1939996 259.660044,35.8807196 C259.660044,34.9185597 259.080444,34.0511997 258.191724,33.6830398 Z" id="Combined-Shape" fill="#000000" fill-rule="nonzero"></path>
        <path d="M243.48256,24.39 L243.48256,31.1836802 C244.21984,30.8102402 245.03488,30.6160803 245.8612,30.6172797 C248.04496,30.6172797 250.00336,31.9612797 250.78864,33.9991198 C251.57392,36.0367196 251.02408,38.3474396 249.40528,39.8131198 C247.78624,41.2785597 245.43232,41.5965597 243.48256,40.6130398 L243.48256,40.6130398 L243.48256,41.1794399 L240.58,41.1794399 L240.58,24.39 L243.48256,24.39 Z M245.8612,33.5193596 C244.54744,33.5193596 243.48256,34.5844797 243.48256,35.8979996 C243.48256,37.2117598 244.54744,38.2766396 245.8612,38.2771198 C247.17448,38.2754396 248.2384,37.2112797 248.23984,35.8979996 C248.23984,34.5844797 247.17496,33.5193596 245.8612,33.5193596 Z" id="Combined-Shape" fill="#000000" fill-rule="nonzero"></path>
        <path d="M166.958708,205.658674 C168.8318,203.822934 171.768418,203.640969 173.853893,205.230925 C173.901086,205.179544 173.950147,205.129901 174.001316,205.082003 C174.548771,204.564022 175.280712,204.286755 176.034127,204.312206 L176.034127,204.312206 L177.484727,204.356585 L177.395968,207.257788 L176.007738,207.215317 L175.935008,209.592605 C175.892649,210.992844 175.295506,212.318724 174.275193,213.278692 C173.254888,214.238421 171.894752,214.753149 170.494781,214.709838 L170.494781,214.709838 L168.574,214.651074 C168.321398,214.643346 168.110513,214.84171 168.102793,215.094072 C168.095072,215.346434 168.293436,215.557319 168.546038,215.565047 L168.546038,215.565047 L172.387361,215.682567 C174.241933,215.739306 175.699548,217.288923 175.64281,219.143496 C175.586064,220.998308 174.036446,222.455923 172.181874,222.399185 L172.181874,222.399185 L168.810492,222.296041 L168.89925,219.394839 L172.270153,219.497967 C172.522515,219.505688 172.7334,219.307324 172.741121,219.054962 C172.748841,218.8026 172.550477,218.591716 172.298115,218.583995 L172.298115,218.583995 L168.456792,218.466474 C167.066148,218.42441 165.845434,217.529142 165.387394,216.215401 C164.92936,214.90142 165.328678,213.441268 166.391745,212.543596 C164.844162,210.426482 165.085863,207.494182 166.958708,205.658674 Z M170.728768,207.053813 C169.416305,207.014861 168.319862,208.045974 168.27803,209.358349 C168.248608,210.320059 168.801413,211.204737 169.678459,211.599901 C170.555745,211.995073 171.584603,211.823175 172.285251,211.163891 C172.986132,210.504856 173.220843,209.488438 172.88004,208.588636 C172.539236,207.688833 171.689998,207.083221 170.728768,207.053813 Z" id="Combined-Shape" fill="#000000" fill-rule="nonzero"></path>
        <path d="M155.179284,204.608145 C156.418297,202.868077 158.583461,202.045847 160.665107,202.524642 C163.505396,203.181626 165.278077,206.013359 164.628164,208.855029 C164.149314,210.936908 162.463746,212.525258 160.357212,212.879522 C158.250677,213.233786 156.138182,212.284175 155.004841,210.473741 C153.871265,208.663254 153.94027,206.348212 155.179284,204.608145 Z M160.861183,205.733282 C160.077369,205.175226 159.03443,205.144175 158.219062,205.6548 C157.403461,206.165371 156.975782,207.116837 157.135543,208.065754 C157.295123,209.014384 158.010491,209.773659 158.948113,209.989566 C160.228352,210.282307 161.503969,209.483763 161.799517,208.20417 C162.015191,207.266494 161.644763,206.291285 160.861183,205.733282 Z" id="Combined-Shape" fill="#000000" fill-rule="nonzero"></path>
        <path d="M141.336177,197.794739 C142.989057,196.441603 145.294219,196.217496 147.176774,197.226695 C149.744443,198.607256 150.710334,201.805406 149.336232,204.376265 C148.326919,206.259031 146.283077,207.348391 144.157506,207.136405 C142.031935,206.92442 140.24339,205.452855 139.625859,203.408158 C139.008117,201.363346 139.683298,199.147875 141.336177,197.794739 Z M146.522431,200.37402 C145.912895,199.629535 144.914803,199.325398 143.993878,199.603709 C143.07274,199.881907 142.409973,200.687472 142.314652,201.645012 C142.219233,202.602227 142.709833,203.522858 143.557715,203.977663 C144.715962,204.59667 146.156641,204.161562 146.778186,203.004676 C147.23278,202.15668 147.131755,201.118391 146.522431,200.37402 Z" id="Combined-Shape" fill="#000000" fill-rule="nonzero"></path>
    </g>
</svg>