<?xml version="1.0" encoding="UTF-8" standalone="no"?>
<svg width="250px" height="136px" viewBox="0 0 250 136" version="1.1" xmlns="http://www.w3.org/2000/svg" xmlns:xlink="http://www.w3.org/1999/xlink" xmlns:sketch="http://www.bohemiancoding.com/sketch/ns">
    <title>pediatricurologybook-dark</title>
    <description>Created with Sketch (http://www.bohemiancoding.com/sketch)</description>
    <defs></defs>
    <g id="Page-1" stroke="none" stroke-width="1" fill="none" fill-rule="evenodd" sketch:type="MSPage">
        <path d="M1.03125,2.0703125 C1.31250141,2.02343727 1.49218711,2 1.5703125,2 C2.10156516,2 2.97655641,2.03124969 4.1953125,2.09375 C4.8359407,2.10937508 5.27343633,2.1171875 5.5078125,2.1171875 C5.85156422,2.1171875 6.57811945,2.08593781 7.6875,2.0234375 L11.671875,1.7890625 C12.7187552,1.69531203 13.937493,1.6484375 15.328125,1.6484375 C17.7812623,1.6484375 19.7343677,1.99609027 21.1875,2.69140625 C22.6406323,3.38672223 23.7617148,4.47655508 24.5507812,5.9609375 C25.3398477,7.44531992 25.734375,8.92186766 25.734375,10.390625 C25.734375,12.8437623 24.8750086,14.9609286 23.15625,16.7421875 C21.4374914,18.5234464 19.1250145,19.4140625 16.21875,19.4140625 C15.4062459,19.4140625 14.7265652,19.3320321 14.1796875,19.1679688 C13.6328098,19.0039054 13.007816,18.6875023 12.3046875,18.21875 C12.007811,18.015624 11.8281253,17.8046886 11.765625,17.5859375 C11.8281253,17.476562 11.914062,17.3984377 12.0234375,17.3515625 C12.2421886,17.3515625 12.4687488,17.398437 12.703125,17.4921875 C13.2343777,17.6796884 13.9062459,17.7734375 14.71875,17.7734375 C15.9531312,17.7734375 17.1210882,17.468753 18.2226562,16.859375 C19.3242243,16.249997 20.1562472,15.3828181 20.71875,14.2578125 C21.2812528,13.1328069 21.5625,11.9453187 21.5625,10.6953125 C21.5625,9.47655641 21.265628,8.29297449 20.671875,7.14453125 C20.078122,5.99608801 19.2968798,5.07812844 18.328125,4.390625 C17.7812473,3.99999805 16.9414119,3.67187633 15.8085938,3.40625 C14.6757756,3.14062367 13.7968781,3.0078125 13.171875,3.0078125 C11.2343653,3.0078125 10.0859393,3.14843609 9.7265625,3.4296875 L9.703125,3.7578125 L9.796875,6.40625 L9.7734375,6.875 C9.74218734,7.29687711 9.7265625,7.94530812 9.7265625,8.8203125 C9.7265625,12.0078284 9.77343703,13.9921836 9.8671875,14.7734375 L9.8671875,16.0859375 L10.171875,26.796875 C10.171875,26.9531258 10.1523439,27.2421854 10.1132812,27.6640625 C10.0742186,28.0859396 10.0546875,28.4531234 10.0546875,28.765625 C10.0546875,29.5156287 10.1171869,30.0859355 10.2421875,30.4765625 C10.6171894,30.585938 11.7109284,30.843748 13.5234375,31.25 C14.3671917,31.453126 14.8281246,31.5703123 14.90625,31.6015625 C15.0312506,31.6484377 15.1406245,31.7499992 15.234375,31.90625 C15.1718747,32.1406262 15.0898443,32.2929684 14.9882812,32.3632812 C14.8867182,32.4335941 14.6875015,32.46875 14.390625,32.46875 C14.2031241,32.46875 13.7656284,32.4296879 13.078125,32.3515625 C11.7343683,32.2109368 10.6796913,32.140625 9.9140625,32.140625 L5.7890625,32.3046875 L3.328125,32.234375 C3.17187422,32.234375 2.71875375,32.2499998 1.96875,32.28125 L1.9453125,31.671875 L4.9921875,31.0859375 C5.49219,30.9453118 5.79687445,30.8046882 5.90625,30.6640625 C6.06250078,30.4453114 6.140625,30.0156282 6.140625,29.375 C6.140625,29.2343743 6.14843742,28.9296898 6.1640625,28.4609375 C6.17968758,28.1328109 6.1875,27.6796904 6.1875,27.1015625 C6.1875,25.2578033 6.10937578,21.3281551 5.953125,15.3125 C5.89062469,12.4999859 5.859375,9.64063953 5.859375,6.734375 L5.859375,6.3359375 C5.859375,5.21093187 5.68750172,4.50000148 5.34375,4.203125 C4.76562211,3.68749742 3.32032406,3.26562664 1.0078125,2.9375 C0.929687109,2.76562414 0.890625,2.62500055 0.890625,2.515625 C0.890625,2.39062438 0.937499531,2.24218836 1.03125,2.0703125 Z M28.171875,31.625 C28.3281258,31.4843743 28.460937,31.3984377 28.5703125,31.3671875 C28.8359388,31.2890621 29.2890593,31.2265627 29.9296875,31.1796875 C31.4453201,31.085937 32.3828107,30.9453134 32.7421875,30.7578125 C32.9609386,30.4453109 33.0703125,30.0078153 33.0703125,29.4453125 L33.046875,27.8046875 L33.0703125,21.8515625 L33.0234375,19.0390625 L33.046875,13.15625 L32.9296875,6.4765625 C32.9140624,4.88280453 32.8125009,3.98437602 32.625,3.78125 C32.3437486,3.48437352 31.5078195,3.31250023 30.1171875,3.265625 C29.5234345,3.24999992 29.0000023,3.20312539 28.546875,3.125 C28.343749,3.01562445 28.2421875,2.87500086 28.2421875,2.703125 C28.2421875,2.57812438 28.2812496,2.42968836 28.359375,2.2578125 C28.5000007,2.17968711 28.6249995,2.140625 28.734375,2.140625 C28.9531261,2.140625 29.2187484,2.14843742 29.53125,2.1640625 C30.4531296,2.24218789 31.4062451,2.28125 32.390625,2.28125 L34.125,2.234375 L38.25,2.328125 C40.3125103,2.328125 41.9218692,2.30468773 43.078125,2.2578125 C44.2343808,2.21093727 45.015623,2.1875 45.421875,2.1875 C45.7812518,2.1875 46.6718679,2.21874969 48.09375,2.28125 L51.421875,2.2578125 L51.8203125,2.328125 L53.765625,2.2578125 L54,2.375 C54.0781254,2.50000062 54.1328123,2.6328118 54.1640625,2.7734375 C54.1640625,2.99218859 54.1289066,3.32812273 54.0585938,3.78125 C53.9882809,4.23437727 53.953125,4.51562445 53.953125,4.625 C53.953125,6.25000813 54.007812,7.62499437 54.1171875,8.75 C54.1015624,8.84375047 54.0546879,8.90624984 53.9765625,8.9375 C53.8046866,8.9375 53.6484382,8.91406273 53.5078125,8.8671875 C53.3359366,8.57031102 53.1054702,8.04687875 52.8164062,7.296875 C52.5273423,6.54687125 52.0937529,5.67969242 51.515625,4.6953125 C51.124998,4.03905922 50.8203136,3.64843812 50.6015625,3.5234375 C50.3828114,3.39843688 49.9296909,3.3359375 49.2421875,3.3359375 C49.1015618,3.3359375 48.3906314,3.32031266 47.109375,3.2890625 C46.7656233,3.27343742 46.4296891,3.265625 46.1015625,3.265625 L39.421875,3.40625 L38.8359375,3.40625 C37.9765582,3.40625 37.4609384,3.51562391 37.2890625,3.734375 C37.0234362,4.10937687 36.890625,5.21092836 36.890625,7.0390625 C36.890625,7.22656344 36.9296871,9.10154469 37.0078125,12.6640625 L37.0078125,15.921875 C37.1796884,15.9687502 37.3671865,15.9921875 37.5703125,15.9921875 L37.96875,15.9921875 C38.2343763,15.9921875 38.6249974,15.9999999 39.140625,16.015625 C39.9531291,16.0468752 40.4999986,16.0625 40.78125,16.0625 C40.9687509,16.0625 41.1328118,16.0546876 41.2734375,16.0390625 C42.9609459,15.9765622 45.1327992,15.9453125 47.7890625,15.9453125 C48.6171916,15.8046868 49.1015618,15.6406259 49.2421875,15.453125 C49.4765637,15.1718736 49.6523432,14.4375059 49.7695312,13.25 C49.8867193,12.0624941 50.1484355,11.3906258 50.5546875,11.234375 C50.7578135,11.234375 50.9453116,11.2734371 51.1171875,11.3515625 C51.1484377,11.4765631 51.1640625,11.5937495 51.1640625,11.703125 C51.1640625,11.8125005 51.1484377,11.9921862 51.1171875,12.2421875 C51.0390621,12.8203154 51,14.6327973 51,17.6796875 C51,18.4921916 51.0429683,19.3984325 51.1289062,20.3984375 C51.2148442,21.3984425 51.2578125,21.9374996 51.2578125,22.015625 C51.2578125,22.1562507 51.2343752,22.3437488 51.1875,22.578125 C51.0624994,22.6406253 50.9609379,22.671875 50.8828125,22.671875 L50.71875,22.671875 C50.4687488,22.2343728 50.2265637,21.5546921 49.9921875,20.6328125 C49.5859355,19.0546796 49.1601585,18.0664082 48.7148438,17.6679688 C48.269529,17.2695293 47.54688,17.0703125 46.546875,17.0703125 C46.3281239,17.0703125 45.9296904,17.0820311 45.3515625,17.1054688 C44.7734346,17.1289064 43.9140682,17.140625 42.7734375,17.140625 L41.25,17.140625 C39.0781141,17.140625 37.6562534,17.1874995 36.984375,17.28125 L36.9609375,18.0546875 L36.984375,22.3671875 L36.9609375,25.0859375 L36.984375,27.734375 C37.0000001,29.328133 37.1015616,30.2499988 37.2890625,30.5 C37.5546888,30.8437517 38.132808,31.015625 39.0234375,31.015625 L40.453125,30.9921875 C40.5781256,30.9921875 41.066402,31.0039061 41.9179688,31.0273438 C42.7695355,31.0507814 43.8203062,31.0625 45.0703125,31.0625 C48.0859526,31.0625 50.093745,30.933595 51.09375,30.6757812 C52.093755,30.4179675 52.9179655,29.9609408 53.5664062,29.3046875 C54.214847,28.6484342 55.0312451,27.2343859 56.015625,25.0625 C56.3125015,24.4218718 56.6093735,24.1015625 56.90625,24.1015625 C57.0468757,24.1015625 57.2031241,24.1640619 57.375,24.2890625 C56.9218727,25.8359452 56.6640628,26.8515601 56.6015625,27.3359375 C56.4296866,28.429693 56.3281252,29.5468693 56.296875,30.6875 C56.296875,31.2031276 56.1718762,31.6328108 55.921875,31.9765625 L55.40625,31.9765625 L48.8203125,32.046875 L45.8671875,32.0234375 L38.8359375,32.1171875 L35.9765625,32.1171875 C35.6171857,32.1171875 35.2812516,32.1249999 34.96875,32.140625 C32.1562359,32.2656256 30.0859441,32.328125 28.7578125,32.328125 C28.5234363,32.328125 28.3632817,32.2890629 28.2773438,32.2109375 C28.1914058,32.1328121 28.1484375,32.0156258 28.1484375,31.859375 L28.171875,31.625 Z M59.0625,31.53125 C59.6406279,31.2812488 60.3124962,31.1171879 61.078125,31.0390625 C62.1875055,30.9140619 63.0156223,30.6484395 63.5625,30.2421875 C63.9843771,29.3828082 64.1953125,27.1953301 64.1953125,23.6796875 L64.1953125,19.9765625 L64.2421875,17.75 L64.1953125,16.109375 L64.2421875,13.0859375 L64.171875,5.46875 C64.171875,4.6093707 64.0468762,4.04687633 63.796875,3.78125 C63.4374982,3.39062305 62.4843827,3.03125164 60.9375,2.703125 C60.2968718,2.5624993 59.9062507,2.43359434 59.765625,2.31640625 C59.6249993,2.19921816 59.5390627,1.97656414 59.5078125,1.6484375 C59.8671893,1.57031211 60.1171868,1.53125 60.2578125,1.53125 L61.921875,1.53125 L62.7890625,1.5078125 C63.3671904,1.5078125 64.007809,1.57031188 64.7109375,1.6953125 C66.1484447,1.78906297 67.6249924,1.8359375 69.140625,1.8359375 C69.5781272,1.8359375 70.2031209,1.81250023 71.015625,1.765625 C73.1718858,1.64062438 74.7187453,1.578125 75.65625,1.578125 C77.5468845,1.578125 79.3320229,1.76562313 81.0117188,2.140625 C82.6914146,2.51562687 84.4218661,3.21093242 86.203125,4.2265625 C87.3125055,4.8671907 88.4492129,5.87889934 89.6132812,7.26171875 C90.7773496,8.64453816 91.6601532,10.1523356 92.2617188,11.7851562 C92.8632843,13.4179769 93.1640625,15.2578023 93.1640625,17.3046875 C93.1640625,19.1328216 92.8320346,20.9453035 92.1679688,22.7421875 C91.5039029,24.5390715 90.5781309,26.0976496 89.390625,27.4179688 C88.2031191,28.7382879 87.0000061,29.7304654 85.78125,30.3945312 C84.5624939,31.0585971 82.7031375,31.6328101 80.203125,32.1171875 C79.1718698,32.3046884 77.3203259,32.3984375 74.6484375,32.3984375 C72.8828037,32.3984375 71.445318,32.3437505 70.3359375,32.234375 C69.8984353,32.1718747 69.42969,32.140625 68.9296875,32.140625 C68.8515621,32.140625 68.7656255,32.1484374 68.671875,32.1640625 L59.109375,32.328125 L59.0625,32.140625 C59.0312498,32.0624996 59.015625,31.976563 59.015625,31.8828125 L59.0625,31.53125 Z M70.9921875,30.6171875 C72.1796934,31.0234395 73.3828064,31.2265625 74.6015625,31.2265625 C76.1796954,31.2265625 77.7265549,30.9804712 79.2421875,30.4882812 C80.7578201,29.9960913 82.0976504,29.3007857 83.2617188,28.4023438 C84.4257871,27.5039018 85.3828087,26.4882869 86.1328125,25.3554688 C86.8828163,24.2226506 87.4140609,23.2031295 87.7265625,22.296875 C88.1640647,20.9687434 88.3828125,19.2421981 88.3828125,17.1171875 C88.3828125,15.0859273 87.9531293,13.023448 87.09375,10.9296875 C86.499997,9.47655523 85.4570387,8.08594414 83.9648438,6.7578125 C82.4726488,5.42968086 80.7109477,4.45703434 78.6796875,3.83984375 C76.6484273,3.22265316 74.4531368,2.9140625 72.09375,2.9140625 C70.4687419,2.9140625 69.2656289,3.0937482 68.484375,3.453125 C68.3906245,3.54687547 68.2968755,3.65624938 68.203125,3.78125 C68.1093745,4.17187695 68.0625,4.53124836 68.0625,4.859375 C68.0625,5.06250102 68.0703124,5.30468609 68.0859375,5.5859375 C68.1328127,7.39844656 68.15625,8.85155703 68.15625,9.9453125 L68.1328125,15.265625 C68.1328125,23.0781641 68.2773423,27.4257768 68.5664062,28.3085938 C68.8554702,29.1914107 69.6640559,29.9609342 70.9921875,30.6171875 Z M96.515625,31.25 C96.8593767,31.1093743 97.2109357,31.0234377 97.5703125,30.9921875 C99.9609495,30.8359367 101.328123,30.5507833 101.671875,30.1367188 C102.015627,29.7226542 102.1875,27.718768 102.1875,24.125 L102.164062,21.6640625 L102.164062,19.0859375 L102.070312,16.25 L102.117188,14.5859375 L102.09375,12.7578125 L102.09375,10.6015625 L102.046875,9.640625 L102.09375,8.421875 C102.109375,8.14062359 102.117188,7.81250188 102.117188,7.4375 C102.117188,6.45312008 102.070313,5.41406797 101.976562,4.3203125 C101.914062,4.10156141 101.828126,3.89062602 101.71875,3.6875 C101.140622,3.39062352 100.207038,3.19140676 98.9179688,3.08984375 C97.6288998,2.98828074 96.8984384,2.87500062 96.7265625,2.75 C96.6015619,2.65624953 96.5312501,2.41406445 96.515625,2.0234375 L98.484375,2.0234375 L104.695312,2.1640625 C106.28907,2.1640625 108.414049,2.11718797 111.070312,2.0234375 C111.070312,2.27343875 111.054688,2.50781141 111.023438,2.7265625 C110.710936,2.80468789 110.187504,2.89062453 109.453125,2.984375 C107.968743,3.15625086 107.062502,3.32031172 106.734375,3.4765625 C106.531249,3.55468789 106.382813,3.68749906 106.289062,3.875 C106.132812,4.15625141 106.039063,4.67968367 106.007812,5.4453125 L105.890625,8.46875 L105.984375,18.8984375 L105.984375,23.0234375 C105.953125,24.320319 105.9375,25.2031227 105.9375,25.671875 C105.9375,27.4218837 105.980468,28.5390601 106.066406,29.0234375 C106.152344,29.5078149 106.30078,29.8554677 106.511719,30.0664062 C106.722657,30.2773448 107.07031,30.4453119 107.554688,30.5703125 C108.273441,30.7421884 108.835935,30.8359374 109.242188,30.8515625 C110.117192,30.8828127 110.671874,31.0078114 110.90625,31.2265625 C110.953125,31.4296885 110.976562,31.6015618 110.976562,31.7421875 L110.976562,31.9296875 C109.55468,31.9765627 108.507816,32 107.835938,32 C107.445311,32 106.750005,31.9765627 105.75,31.9296875 L102.515625,31.9765625 L97.0078125,31.953125 L96.5625,31.953125 L96.515625,31.25 Z M112.242188,31.25 C112.460939,31.1249994 112.656249,31.0625 112.828125,31.0625 L113.367188,31.0625 C113.476563,31.0625 113.664061,31.0546876 113.929688,31.0390625 C115.132819,30.929687 115.843749,30.820313 116.0625,30.7109375 C116.609378,30.414061 117.078123,29.8984412 117.46875,29.1640625 C118.281254,27.5703045 119.195307,25.3125146 120.210938,22.390625 C120.695315,20.999993 120.999999,20.1562515 121.125,19.859375 C121.515627,18.9218703 121.890623,17.9375052 122.25,16.90625 L124.453125,10.7421875 C124.796877,9.77343266 125.624993,7.55470484 126.9375,4.0859375 C127.265627,3.21093312 127.66406,2.03906984 128.132812,0.5703125 L128.8125,0.5234375 L129.632812,0.546875 C130.304691,1.87500664 130.898435,3.30467984 131.414062,4.8359375 C131.695314,5.64844156 132.156247,6.85936695 132.796875,8.46875 L136.359375,18.1015625 L138.257812,23.328125 C139.257817,26.2968898 139.914061,28.1210904 140.226562,28.8007812 C140.539064,29.4804721 140.828124,29.9296864 141.09375,30.1484375 C141.171875,30.2109378 141.464841,30.3046869 141.972656,30.4296875 C142.480471,30.5546881 142.835936,30.6484372 143.039062,30.7109375 C143.757816,30.9140635 144.257811,31.0859368 144.539062,31.2265625 C144.601563,31.3984384 144.632812,31.5312495 144.632812,31.625 C144.632812,31.7031254 144.609375,31.8203117 144.5625,31.9765625 C144.062498,31.9921876 143.710939,32 143.507812,32 C142.710934,32 141.304698,31.9765627 139.289062,31.9296875 L136.945312,31.859375 L134.109375,31.90625 C133.921874,31.90625 133.73047,31.8945314 133.535156,31.8710938 C133.339843,31.8476561 133.171876,31.8359375 133.03125,31.8359375 L132.515625,31.8359375 C132.343749,31.8203124 132.187501,31.7734379 132.046875,31.6953125 C132.046875,31.4765614 132.085937,31.265626 132.164062,31.0625 C132.351563,30.9687495 132.523437,30.9140626 132.679688,30.8984375 L135.140625,30.734375 C135.781253,30.7031248 136.265623,30.6171882 136.59375,30.4765625 C136.6875,30.1953111 136.734375,29.9843757 136.734375,29.84375 C136.734375,29.5624986 136.531252,28.8359434 136.125,27.6640625 C135.843749,26.8828086 135.597657,26.1406285 135.386719,25.4375 C135.17578,24.7343715 134.343757,22.4218946 132.890625,18.5 C132.249997,18.3906245 131.687502,18.3359375 131.203125,18.3359375 L126.1875,18.3828125 L124.710938,18.359375 C124.179685,18.359375 123.593753,18.3984371 122.953125,18.4765625 C122.749999,18.9453148 122.617188,19.281249 122.554688,19.484375 L120.492188,25.9296875 C119.617183,28.3828248 119.179688,29.7343738 119.179688,29.984375 C119.179688,30.1250007 119.249999,30.3593734 119.390625,30.6875 C119.718752,30.7812505 120.156247,30.8671871 120.703125,30.9453125 L123.890625,31.2265625 C124.062501,31.3671882 124.148438,31.492187 124.148438,31.6015625 C124.148438,31.6796879 124.125,31.7968742 124.078125,31.953125 C123.374996,31.9687501 122.835939,31.9765625 122.460938,31.9765625 C121.210931,31.9765625 119.757821,31.9375004 118.101562,31.859375 C117.335934,31.8281248 116.789064,31.8125 116.460938,31.8125 C116.132811,31.8125 115.562504,31.8281248 114.75,31.859375 C114.218747,31.8906252 113.835939,31.90625 113.601562,31.90625 C113.226561,31.90625 112.74219,31.8828127 112.148438,31.8359375 L112.148438,31.6953125 C112.148438,31.585937 112.179687,31.4375009 112.242188,31.25 Z M123.421875,17.1875 C125.093758,17.2812505 126.999989,17.328125 129.140625,17.328125 C130.359381,17.328125 131.429683,17.2890629 132.351562,17.2109375 C132.195312,16.6015595 132.015626,16.0312527 131.8125,15.5 C130.79687,12.7812364 130.234376,11.2812514 130.125,11 L127.992188,5.5859375 L127.757812,5.1640625 C127.664062,5.35156344 127.320315,6.15624289 126.726562,7.578125 C125.726558,10.0156372 125.007815,11.9140557 124.570312,13.2734375 C124.367186,13.8828155 124.156251,14.4882782 123.9375,15.0898438 C123.718749,15.6914093 123.582032,16.11328 123.527344,16.3554688 C123.472656,16.5976575 123.390626,16.8437487 123.28125,17.09375 L123.421875,17.1875 Z M144.375,5.515625 L145.335938,1.9765625 C145.398438,1.50781016 145.484374,1.20703191 145.59375,1.07421875 C145.703126,0.941405586 145.828124,0.875 145.96875,0.875 C146.250001,0.875 146.570311,1.21093414 146.929688,1.8828125 C147.195314,2.36718992 147.414062,2.67578059 147.585938,2.80859375 C147.757813,2.94140691 148.007811,3.03124977 148.335938,3.078125 L148.570312,3.0546875 L149.578125,3.1484375 L155.109375,3.21875 L161.648438,3.1953125 L163.570312,3.1953125 L167.203125,3.125 C167.359376,3.125 167.554686,3.14062484 167.789062,3.171875 C168.851568,3.26562547 169.507811,3.3125 169.757812,3.3125 C169.992189,3.3125 170.179687,3.23437578 170.320312,3.078125 C170.367188,3.01562469 170.624998,2.48438 171.09375,1.484375 C171.296876,1.03124773 171.546874,0.8046875 171.84375,0.8046875 C171.968751,0.8046875 172.124999,0.835937188 172.3125,0.8984375 C172.390625,1.21093906 172.429688,1.49218625 172.429688,1.7421875 L172.40625,2.6796875 L172.429688,4.671875 C172.429688,5.15625242 172.390625,6.7187368 172.3125,9.359375 C172.3125,9.53125086 172.28125,9.6874993 172.21875,9.828125 C172.046874,9.93750055 171.898438,9.9921875 171.773438,9.9921875 C171.648437,9.9921875 171.539063,9.93359434 171.445312,9.81640625 C171.351562,9.69921816 171.234376,9.33594055 171.09375,8.7265625 C170.781248,7.32030547 170.390627,6.31250305 169.921875,5.703125 C169.609373,5.31249805 169.160159,5.03125086 168.574219,4.859375 C167.988278,4.68749914 166.585949,4.6015625 164.367188,4.6015625 C162.585929,4.6015625 161.265629,4.63281219 160.40625,4.6953125 C160.375,5.32031562 160.359375,5.89062242 160.359375,6.40625 L160.546875,20.9609375 C160.546875,21.5390654 160.515625,22.6328045 160.453125,24.2421875 L160.476562,27.359375 L160.453125,29.09375 C160.453125,29.6406277 160.546874,30.0312488 160.734375,30.265625 C160.921876,30.5000012 161.429683,30.7265614 162.257812,30.9453125 C163.69532,31.3046893 164.656248,31.5234371 165.140625,31.6015625 C165.437501,31.6328127 165.679687,31.695312 165.867188,31.7890625 L165.867188,32.4921875 L162.539062,32.3984375 C160.710928,32.3828124 159.335942,32.3437503 158.414062,32.28125 L154.992188,32.4453125 L152.484375,32.5859375 C151.781246,32.5859375 151.351563,32.5703127 151.195312,32.5390625 L150.867188,32.3984375 C150.898438,32.0390607 150.968749,31.8085943 151.078125,31.7070312 C151.187501,31.6054682 151.47656,31.5234378 151.945312,31.4609375 C152.601566,31.367187 153.374996,31.19922 154.265625,30.9570312 C155.156254,30.7148425 155.742186,30.4687512 156.023438,30.21875 C156.179688,30.0781243 156.289062,29.8437516 156.351562,29.515625 C156.492188,28.8281216 156.5625,27.4765726 156.5625,25.4609375 L156.5625,21.4765625 L156.46875,12.78125 L156.375,10.90625 L156.351562,4.6484375 C155.367183,4.53906195 154.109383,4.484375 152.578125,4.484375 C150.328114,4.484375 148.96094,4.62499859 148.476562,4.90625 C147.710934,5.34375219 146.57032,6.62498937 145.054688,8.75 C144.554685,9.54687898 144.117189,9.9453125 143.742188,9.9453125 L143.53125,9.8984375 C143.46875,9.80468703 143.4375,9.71875039 143.4375,9.640625 C143.4375,9.45312406 143.562499,8.89062969 143.8125,7.953125 C144.125002,6.74999398 144.3125,5.93750211 144.375,5.515625 Z M174.351562,31.296875 C176.632824,31.0312487 177.921874,30.8437505 178.21875,30.734375 C178.421876,30.6562496 178.609374,30.421877 178.78125,30.03125 L178.78125,29.7734375 C178.78125,29.3828105 178.843749,27.9687622 178.96875,25.53125 C179,24.8437466 179.015625,24.1718783 179.015625,23.515625 L178.945312,20.7265625 L178.992188,17.5625 L178.96875,11.6796875 L178.992188,7.4609375 C179.007813,5.67967859 178.871095,4.59375195 178.582031,4.203125 C178.292967,3.81249805 177.546881,3.53515707 176.34375,3.37109375 C175.140619,3.20703043 174.476563,3.08593789 174.351562,3.0078125 C174.226562,2.92968711 174.164062,2.80468836 174.164062,2.6328125 C174.164062,2.52343695 174.1875,2.38281336 174.234375,2.2109375 C174.390626,2.0703118 174.749997,1.99218758 175.3125,1.9765625 C175.390625,1.9765625 175.605467,1.95703145 175.957031,1.91796875 C176.308596,1.87890605 176.640623,1.859375 176.953125,1.859375 L178.875,1.859375 L185.039062,1.7890625 C188.523455,1.7890625 190.964837,2.04687242 192.363281,2.5625 C193.761726,3.07812758 194.874996,3.94921262 195.703125,5.17578125 C196.531254,6.40234988 196.945312,7.77342992 196.945312,9.2890625 C196.945312,12.1640769 195.437515,14.3593674 192.421875,15.875 C191.906247,16.1406263 191.500001,16.374999 191.203125,16.578125 C191.734378,17.7031306 192.476558,19.0546796 193.429688,20.6328125 L196.40625,25.7421875 C197.593756,27.6171969 198.41406,28.7929664 198.867188,29.2695312 C199.320315,29.7460961 199.871091,30.1406234 200.519531,30.453125 C201.167972,30.7656266 202.257805,31.0624986 203.789062,31.34375 C203.804688,31.5000008 203.8125,31.6249995 203.8125,31.71875 C203.8125,31.8125005 203.804688,31.9296868 203.789062,32.0703125 C201.648427,32.1015627 199.140639,32.1171875 196.265625,32.1171875 C196.062499,32.1171875 195.781252,32.1015627 195.421875,32.0703125 C194.312494,29.9453019 193.00782,27.6093877 191.507812,25.0625 L188.039062,18.734375 C187.57031,18.0781217 187.183595,17.6679696 186.878906,17.5039062 C186.574217,17.3398429 186.171877,17.2578125 185.671875,17.2578125 L183.679688,17.28125 L183.023438,17.2578125 C182.976562,17.757815 182.953125,18.7812423 182.953125,20.328125 L182.953125,28.34375 C182.9375,28.6406265 182.999999,29.0546848 183.140625,29.5859375 C183.265626,29.882814 183.480467,30.1210929 183.785156,30.3007812 C184.089845,30.4804696 184.968743,30.7499982 186.421875,31.109375 L187.382812,31.34375 C187.507813,31.5000008 187.570312,31.7109362 187.570312,31.9765625 C187.148435,32.0546879 186.851563,32.09375 186.679688,32.09375 C185.27343,32.09375 184.281253,32.0781252 183.703125,32.046875 C183.406249,32.0312499 183.164063,32.0234375 182.976562,32.0234375 L179.789062,32.0703125 L176.671875,32.046875 C176.531249,32.046875 175.820319,32.0703123 174.539062,32.1171875 L174.070312,32.0234375 L174.023438,31.7890625 C174.023438,31.6484368 174.132811,31.4843759 174.351562,31.296875 Z M183.070312,15.96875 C183.49219,15.9843751 183.804686,15.9921875 184.007812,15.9921875 C185.132818,15.9921875 186.42968,15.8593763 187.898438,15.59375 C188.929693,15.390624 189.765622,15.0585961 190.40625,14.5976562 C191.046878,14.1367164 191.582029,13.4531295 192.011719,12.546875 C192.441408,11.6406205 192.65625,10.7031298 192.65625,9.734375 C192.65625,8.67186969 192.320316,7.54688094 191.648438,6.359375 C191.13281,5.45312047 190.261725,4.69531555 189.035156,4.0859375 C187.808588,3.47655945 186.335946,3.171875 184.617188,3.171875 C184.19531,3.171875 183.648441,3.19531227 182.976562,3.2421875 C182.914062,4.05469156 182.882812,4.67968531 182.882812,5.1171875 L183,9.5 L182.976562,11.3046875 C182.976562,12.5234436 183.007812,14.0781155 183.070312,15.96875 Z M204.046875,31.25 C204.390627,31.1093743 204.742186,31.0234377 205.101562,30.9921875 C207.492199,30.8359367 208.859373,30.5507833 209.203125,30.1367188 C209.546877,29.7226542 209.71875,27.718768 209.71875,24.125 L209.695312,21.6640625 L209.695312,19.0859375 L209.601562,16.25 L209.648438,14.5859375 L209.625,12.7578125 L209.625,10.6015625 L209.578125,9.640625 L209.625,8.421875 C209.640625,8.14062359 209.648438,7.81250188 209.648438,7.4375 C209.648438,6.45312008 209.601563,5.41406797 209.507812,4.3203125 C209.445312,4.10156141 209.359376,3.89062602 209.25,3.6875 C208.671872,3.39062352 207.738288,3.19140676 206.449219,3.08984375 C205.16015,2.98828074 204.429688,2.87500062 204.257812,2.75 C204.132812,2.65624953 204.0625,2.41406445 204.046875,2.0234375 L206.015625,2.0234375 L212.226562,2.1640625 C213.82032,2.1640625 215.945299,2.11718797 218.601562,2.0234375 C218.601562,2.27343875 218.585938,2.50781141 218.554688,2.7265625 C218.242186,2.80468789 217.718754,2.89062453 216.984375,2.984375 C215.499993,3.15625086 214.593752,3.32031172 214.265625,3.4765625 C214.062499,3.55468789 213.914063,3.68749906 213.820312,3.875 C213.664062,4.15625141 213.570313,4.67968367 213.539062,5.4453125 L213.421875,8.46875 L213.515625,18.8984375 L213.515625,23.0234375 C213.484375,24.320319 213.46875,25.2031227 213.46875,25.671875 C213.46875,27.4218837 213.511718,28.5390601 213.597656,29.0234375 C213.683594,29.5078149 213.83203,29.8554677 214.042969,30.0664062 C214.253907,30.2773448 214.60156,30.4453119 215.085938,30.5703125 C215.804691,30.7421884 216.367185,30.8359374 216.773438,30.8515625 C217.648442,30.8828127 218.203124,31.0078114 218.4375,31.2265625 C218.484375,31.4296885 218.507812,31.6015618 218.507812,31.7421875 L218.507812,31.9296875 C217.08593,31.9765627 216.039066,32 215.367188,32 C214.976561,32 214.281255,31.9765627 213.28125,31.9296875 L210.046875,31.9765625 L204.539062,31.953125 L204.09375,31.953125 L204.046875,31.25 Z M247.804688,3.3125 C247.992188,4.51563102 248.085938,5.74999367 248.085938,7.015625 C248.085938,7.26562625 248.078125,7.60156039 248.0625,8.0234375 C247.843749,8.07031273 247.679688,8.09375 247.570312,8.09375 C247.476562,8.09375 247.343751,8.07812516 247.171875,8.046875 C246.515622,6.21874086 245.44532,4.81250492 243.960938,3.828125 C242.476555,2.84374508 240.640636,2.3515625 238.453125,2.3515625 C237.296869,2.3515625 236.320316,2.48437367 235.523438,2.75 C234.11718,3.23437742 232.882818,3.90233949 231.820312,4.75390625 C230.757807,5.60547301 229.859379,6.62108785 229.125,7.80078125 C228.390621,8.98047465 227.808596,10.4101479 227.378906,12.0898438 C226.949217,13.7695396 226.734375,15.4843663 226.734375,17.234375 C226.734375,20.5781417 227.242182,23.3398329 228.257812,25.5195312 C229.273443,27.6992296 230.664054,29.2539016 232.429688,30.1835938 C234.195321,31.1132859 235.976554,31.578125 237.773438,31.578125 L238.875,31.5546875 C240.125006,31.3984367 240.97656,31.2500007 241.429688,31.109375 C242.570318,30.7812484 243.511715,30.3945335 244.253906,29.9492188 C244.996097,29.503904 245.722653,28.8750041 246.433594,28.0625 C247.144535,27.2499959 247.749998,26.3046929 248.25,25.2265625 L248.53125,25.1328125 C248.609375,25.1328125 248.726562,25.179687 248.882812,25.2734375 C248.867187,25.6484394 248.851563,25.8906245 248.835938,26 C248.179684,28.6406382 247.703126,30.4453077 247.40625,31.4140625 C247.156249,31.4765628 246.843752,31.5703119 246.46875,31.6953125 C244.640616,32.3203156 242.195328,32.6328125 239.132812,32.6328125 C236.66405,32.6328125 234.816412,32.4648454 233.589844,32.1289062 C232.363275,31.7929671 231.027351,31.2695348 229.582031,30.5585938 C228.136712,29.8476527 226.867193,28.9062559 225.773438,27.734375 C224.679682,26.5624941 223.796878,25.0820402 223.125,23.2929688 C222.453122,21.5038973 222.117188,19.554698 222.117188,17.4453125 C222.117188,15.4453025 222.38281,13.6992262 222.914062,12.2070312 C223.445315,10.7148363 224.265619,9.20313266 225.375,7.671875 C226.484381,6.14061734 227.792961,4.86719258 229.300781,3.8515625 C230.808601,2.83593242 232.484366,2.11718961 234.328125,1.6953125 C235.625006,1.41406109 237.460926,1.2734375 239.835938,1.2734375 C241.570321,1.2734375 243.203117,1.50390395 244.734375,1.96484375 C246.265633,2.42578355 247.28906,2.87499781 247.804688,3.3125 Z" id="PEDIATRIC" fill="#5C687D" sketch:type="MSShapeGroup"></path>
        <path d="M205.853542,124.054883 C205.942555,124.005626 206.027832,123.956082 206.109375,123.90625 C207.796883,122.874995 209.015621,121.773443 209.765625,120.601562 C210.515629,119.429682 210.890625,118.125007 210.890625,116.6875 C210.890625,113.968736 209.953134,111.812508 208.078125,110.21875 C205.640613,108.12499 202.031274,106.234383 197.25,104.546875 C195.562492,103.765621 193.71876,102.875005 191.71875,101.875 C190.093742,100.593744 189.28125,99.4375052 189.28125,98.40625 C189.28125,97.7812469 189.531248,97.2812519 190.03125,96.90625 C191.281256,95.906245 193.015614,95.1875022 195.234375,94.75 C199.328145,93.9062458 202.929672,91.484395 206.039062,87.484375 C209.148453,83.484355 210.703125,79.2187727 210.703125,74.6875 C210.703125,72.3749884 210.265629,70.2656345 209.390625,68.359375 C209.859377,68.4843756 210.390622,68.6249992 210.984375,68.78125 C212.453132,69.187502 213.546871,69.390625 214.265625,69.390625 C214.484376,69.390625 214.843748,69.3593753 215.34375,69.296875 C215.562501,68.9531233 215.671875,68.6250016 215.671875,68.3125 C215.671875,67.906248 215.625,67.2343797 215.53125,66.296875 C215.031248,66.2343747 214.656251,66.203125 214.40625,66.203125 C214.124999,66.203125 213.617191,66.2499995 212.882812,66.34375 C212.148434,66.4375005 211.515628,66.484375 210.984375,66.484375 C209.640618,66.484375 208.45313,66.2343775 207.421875,65.734375 C205.828117,64.9531211 204.234383,64.5625 202.640625,64.5625 C201.296868,64.5625 199.65626,64.9062466 197.71875,65.59375 C196.468744,66.0312522 195.406254,66.5937466 194.53125,67.28125 C193.249994,68.281255 191.992194,69.6796785 190.757812,71.4765625 C189.523431,73.2734465 188.484379,75.468737 187.640625,78.0625 C187.046872,79.8125088 186.75,81.6249906 186.75,83.5 C186.75,84.6562558 186.906248,85.8124942 187.21875,86.96875 C187.531252,88.1250058 187.874998,89.0468716 188.25,89.734375 L189.75,91.375 C190.906256,92.5937561 191.656248,93.4218728 192,93.859375 C189.124986,95.7343844 187.054694,96.9374973 185.789062,97.46875 C184.523431,98.0000027 183.726564,98.4531231 183.398438,98.828125 C183.070311,99.2031269 182.90625,99.6249977 182.90625,100.09375 C182.90625,100.468752 183.031249,100.812498 183.28125,101.125 C183.968753,101.968754 185.499988,103.359365 187.875,105.296875 C179.218707,109.078144 173.968759,111.703118 172.125,113.171875 C170.843744,114.20313 170.203125,115.406243 170.203125,116.78125 C170.203125,117.718755 170.531247,118.64062 171.1875,119.546875 C172.343756,121.109383 173.90624,122.406245 175.875,123.4375 C177.84376,124.468755 180.562483,125.343746 184.03125,126.0625 C185.93751,126.468752 189.015604,126.671875 193.265625,126.671875 C195.105783,126.671875 197.008525,126.49369 198.973886,126.137316 C200.055914,126.274939 201.309409,126.34375 202.734375,126.34375 C205.515639,126.34375 208.789044,125.523446 212.554688,123.882812 C216.320331,122.242179 219.953107,119.640643 223.453125,116.078125 C228.609401,110.828099 233.15623,104.781284 237.09375,97.9375 C239.687513,93.4374775 242.203113,87.0625412 244.640625,78.8125 C246.421884,72.8437202 247.3125,69.1093825 247.3125,67.609375 C247.3125,66.60937 247.117189,65.8906272 246.726562,65.453125 C246.335936,65.0156228 245.734379,64.796875 244.921875,64.796875 C244.109371,64.796875 243.562501,65.0156228 243.28125,65.453125 C242.687497,66.2343789 242.390625,67.3906173 242.390625,68.921875 C242.390625,69.0781258 242.421875,69.5312462 242.484375,70.28125 C242.515625,70.8437528 242.53125,71.5156211 242.53125,72.296875 C242.53125,74.4531358 242.375002,76.4374909 242.0625,78.25 C241.531247,81.2812652 240.804692,84.2343606 239.882812,87.109375 C238.960933,89.9843894 237.937506,92.4531147 236.8125,94.515625 C235.374993,97.2656387 233.65626,100.14061 231.65625,103.140625 C231.468749,103.453127 231.296876,103.687499 231.140625,103.84375 C231.203125,103.249997 231.499997,101.687513 232.03125,99.15625 C232.437502,97.3749911 232.820311,94.6093938 233.179688,90.859375 C233.539064,87.1093562 233.71875,83.9687627 233.71875,81.4375 C233.71875,75.843722 232.968757,71.4218912 231.46875,68.171875 C230.374995,65.8281133 228.921884,64.65625 227.109375,64.65625 C226.828124,64.65625 226.437502,64.6874997 225.9375,64.75 C224.937495,65.2187523 224.218752,65.6874977 223.78125,66.15625 C223.062496,66.9375039 222.218755,68.328115 221.25,70.328125 C220.781248,71.32813 220.000005,73.8749795 218.90625,77.96875 C219.375002,78.3125017 219.765623,78.484375 220.078125,78.484375 L220.453125,78.390625 C221.51563,74.6406063 222.593745,72.0937567 223.6875,70.75 C224.218753,70.1249969 224.843746,69.8125 225.5625,69.8125 C226.000002,69.8125 226.359374,69.9374988 226.640625,70.1875 C227.171878,70.6562523 227.601561,71.4374945 227.929688,72.53125 C228.257814,73.6250055 228.499999,75.6562352 228.65625,78.625 C228.812501,82.9687717 228.890625,85.9531169 228.890625,87.578125 C228.890625,90.3593889 228.64844,93.6796682 228.164062,97.5390625 C227.679685,101.398457 226.929693,104.593737 225.914062,107.125 C224.898432,109.656263 223.687507,111.734367 222.28125,113.359375 C219.656237,116.35939 217.34376,118.531243 215.34375,119.875 C214.281245,120.875005 212.632824,121.835933 210.398438,122.757812 C208.720436,123.450135 207.205479,123.88249 205.853542,124.054883 Z M194.864688,124.784807 C194.290552,124.824102 193.710657,124.84375 193.125,124.84375 C191.749993,124.84375 190.078135,124.796875 188.109375,124.703125 C186.765618,124.515624 185.812503,124.343751 185.25,124.1875 C184.812498,124.031249 184.343752,123.890626 183.84375,123.765625 C180.937485,123.046871 178.609384,121.890633 176.859375,120.296875 C175.92187,119.32812 175.453125,118.171882 175.453125,116.828125 C175.453125,116.046871 175.640623,115.281254 176.015625,114.53125 C176.109375,114.343749 176.617183,113.828129 177.539062,112.984375 C178.460942,112.140621 179.812491,111.23438 181.59375,110.265625 C184.937517,108.453116 187.65624,107.203128 189.75,106.515625 C191.062507,107.078128 192.74999,107.765621 194.8125,108.578125 C199.406273,110.328134 202.453117,111.828119 203.953125,113.078125 C205.953135,114.796884 206.953125,116.515616 206.953125,118.234375 C206.953125,119.23438 206.687503,120.046872 206.15625,120.671875 C205.39854,121.611436 203.810443,122.521588 201.391915,123.402358 C201.083951,123.163343 200.750188,122.846932 200.390625,122.453125 C199.32812,121.35937 198.562502,120.687501 198.09375,120.4375 C197.124995,119.968748 196.203129,119.734375 195.328125,119.734375 C194.703122,119.734375 194.156252,119.960935 193.6875,120.414062 C193.218748,120.86719 192.984375,121.406247 192.984375,122.03125 C192.984375,122.95623 193.61114,123.874074 194.864688,124.784807 Z M2.109375,44.171875 L2.8125,41.6875 C3.96875578,41.9062511 4.7968725,42.015625 5.296875,42.015625 L13.6875,42.25 C15.7187602,42.25 18.6562308,42.0781267 22.5,41.734375 C23.0625028,41.6718747 24.2812406,41.6093753 26.15625,41.546875 C26.2500005,42.140628 26.296875,42.5781236 26.296875,42.859375 C26.296875,43.0156258 26.2812502,43.2656233 26.25,43.609375 C25.7812477,43.7031255 24.3281372,43.9296857 21.890625,44.2890625 C19.4531128,44.6484393 18.0781266,44.9374989 17.765625,45.15625 C17.5156238,45.3125008 17.3437505,45.4999989 17.25,45.71875 C16.5312464,47.2500077 15.7656291,50.5156 14.953125,55.515625 L11.71875,74.921875 C10.8124955,80.921905 10.359375,85.1093631 10.359375,87.484375 C10.359375,88.6406308 10.5468731,90.2031152 10.921875,92.171875 C11.1718762,93.5468819 11.6406216,94.7499948 12.328125,95.78125 C13.2656297,97.187507 14.4062433,98.3749952 15.75,99.34375 C19.3125178,101.156259 22.5781102,102.0625 25.546875,102.0625 C27.5781352,102.0625 29.1718692,101.953126 30.328125,101.734375 C34.5781463,100.921871 37.757802,99.8906312 39.8671875,98.640625 C41.976573,97.3906188 43.6874934,95.7968847 45,93.859375 C46.3125066,91.9218653 47.5312444,88.8750208 48.65625,84.71875 C49.4687541,81.7499852 50.6249925,75.1563011 52.125,64.9375 C53.1562552,57.8749647 53.671875,52.6718917 53.671875,49.328125 C53.671875,47.9531181 53.1562552,46.7500052 52.125,45.71875 C51.0937448,44.6874948 49.4843859,44.0312514 47.296875,43.75 C46.1406192,43.6249994 45.1875038,43.5000006 44.4375,43.375 L44.390625,43 C44.390625,42.6249981 44.4687492,42.0937534 44.625,41.40625 C48.8437711,41.7500017 53.1874777,41.921875 57.65625,41.921875 C59.2187578,41.921875 61.1093639,41.8281259 63.328125,41.640625 L64.21875,41.59375 L66.234375,41.59375 L66.28125,43.421875 C65.8437478,43.5156255 64.9062572,43.7031236 63.46875,43.984375 C61.5312403,44.3593769 60.1796913,44.7812477 59.4140625,45.25 C58.6484337,45.7187523 58.0000027,46.4374952 57.46875,47.40625 C56.6249958,48.9062575 56.0468766,51.0156114 55.734375,53.734375 L53.71875,69.578125 C53.0937469,74.2656484 52.1562563,79.2187239 50.90625,84.4375 C50.0312456,88.1562686 48.8593823,91.3749864 47.390625,94.09375 C46.4531203,95.8125086 44.9218856,97.5937408 42.796875,99.4375 C41.203117,100.812507 38.960952,101.992183 36.0703125,102.976562 C33.179673,103.960942 29.7500198,104.453125 25.78125,104.453125 C25.2187472,104.453125 24.140633,104.375001 22.546875,104.21875 C19.5781102,104.15625 16.7578259,103.60938 14.0859375,102.578125 C11.4140491,101.54687 9.39063187,100.390631 8.015625,99.109375 C6.64061813,97.8281186 5.50000453,96.1250106 4.59375,94 C3.68749547,91.8749894 3.234375,89.3750144 3.234375,86.5 C3.234375,83.1249831 3.58593398,79.8203287 4.2890625,76.5859375 C4.99219102,73.3515463 5.93749406,68.1562858 7.125,61 L9.328125,48.53125 C9.42187547,47.8749967 9.46875,47.3281272 9.46875,46.890625 C9.46875,46.3593723 9.25781461,45.9375016 8.8359375,45.625 C8.41406039,45.3124984 7.12501078,45.0000016 4.96875,44.6875 C3.56249297,44.4687489 2.6093775,44.2968756 2.109375,44.171875 Z M75.375,68.546875 C74.3437448,69.2968788 73.3750045,70.17187 72.46875,71.171875 C72.2187488,71.4531264 70.796888,73.3281077 68.203125,76.796875 L66.28125,76.890625 C67.0625039,75.2031166 68.5156144,73.1250123 70.640625,70.65625 C72.7656356,68.1874877 74.6093672,66.5000045 76.171875,65.59375 C77.17188,64.999997 78.2968687,64.6562505 79.546875,64.5625 C80.3281289,64.7812511 80.867186,65.0781231 81.1640625,65.453125 C81.460939,65.8281269 81.609375,66.2812473 81.609375,66.8125 C81.609375,67.3437527 81.5468756,67.8749973 81.421875,68.40625 C81.0781233,70.1250086 80.3906302,72.5781091 79.359375,75.765625 C78.3281198,78.9531409 77.4062541,81.4687408 76.59375,83.3125 L74.15625,89.078125 L73.96875,89.921875 C74.4062522,89.1718713 75.2968683,87.500013 76.640625,84.90625 C81.7344005,75.2499517 85.4062387,69.2812614 87.65625,67 C89.3125083,65.3749919 91.2499889,64.5625 93.46875,64.5625 C94.7187563,64.5625 95.8906195,65.062495 96.984375,66.0625 C97.7968791,66.8437539 98.203125,67.8749936 98.203125,69.15625 C98.203125,70.5937572 97.7500045,71.8281198 96.84375,72.859375 C96.2187469,73.5781286 95.3281308,73.9375 94.171875,73.9375 C93.2031202,73.9375 92.5234395,73.7109398 92.1328125,73.2578125 C91.7421855,72.8046852 91.5000005,71.6718841 91.40625,69.859375 C90.999998,69.0468709 90.5468775,68.640625 90.046875,68.640625 C89.5468725,68.640625 89.0156278,68.9062473 88.453125,69.4375 C86.9531175,70.7812567 84.1250208,75.0859012 79.96875,82.3515625 C75.8124792,89.6172238 73.2109427,94.6640484 72.1640625,97.4921875 C71.1171823,100.320327 70.2656283,102.26562 69.609375,103.328125 C69.2656233,103.859378 68.6250047,104.125 67.6875,104.125 C66.8437458,104.125 66.2421893,103.976564 65.8828125,103.679688 C65.5234357,103.382811 65.34375,103.000002 65.34375,102.53125 C65.34375,101.906247 65.4999984,101.187504 65.8125,100.375 C67.1562567,97.0937336 69.3124852,91.0469191 72.28125,82.234375 L75.5625,72.203125 C75.7812511,71.2968705 75.9374995,70.7187512 76.03125,70.46875 L76.3125,69.765625 C76.3125,69.4531234 76.0000031,69.0468775 75.375,68.546875 Z M125.484375,76.375 C125.484375,83.6250362 123.289084,90.0624719 118.898438,95.6875 C114.507791,101.312528 109.953149,104.125 105.234375,104.125 C102.703112,104.125 100.656258,103.179697 99.09375,101.289062 C97.5312422,99.398428 96.75,96.4375202 96.75,92.40625 C96.75,89.6874864 97.3593689,86.5547052 98.578125,83.0078125 C99.7968811,79.4609198 101.37499,76.5156367 103.3125,74.171875 C103.750002,73.6406223 104.249997,73.0000037 104.8125,72.25 C106.468758,70.0937392 108.437489,68.2812573 110.71875,66.8125 C113.000011,65.3437427 115.328113,64.609375 117.703125,64.609375 C119.890636,64.609375 121.734367,65.5234284 123.234375,67.3515625 C124.734383,69.1796966 125.484375,72.1874791 125.484375,76.375 Z M101.109375,97.703125 C101.109375,99.1406322 101.445309,100.203122 102.117188,100.890625 C102.789066,101.578128 103.874992,101.921875 105.375,101.921875 C106.843757,101.921875 108.328118,101.203132 109.828125,99.765625 C112.515638,97.1406119 115.203112,92.625032 117.890625,86.21875 C120.578138,79.812468 121.921875,74.7656434 121.921875,71.078125 C121.921875,69.7656184 121.593753,68.7265663 120.9375,67.9609375 C120.281247,67.1953087 119.531254,66.8125 118.6875,66.8125 C116.843741,66.8125 114.921885,67.8906142 112.921875,70.046875 C109.515608,73.6718931 106.578137,78.6718431 104.109375,85.046875 C102.109365,90.2344009 101.109375,94.4531087 101.109375,97.703125 Z M146.671875,42.34375 L146.8125,41.03125 C150.625019,40.7499986 153.515615,40.609375 155.484375,40.609375 L157.546875,40.609375 L157.546875,41.265625 L156.09375,45.8125 C156.03125,45.9375006 154.890636,48.8280967 152.671875,54.484375 L146.34375,70.984375 C145.218744,74.0781405 143.343763,78.8593427 140.71875,85.328125 L139.171875,89.40625 C138.07812,92.3750148 137.203128,94.3749948 136.546875,95.40625 C135.51562,97.0937584 135,98.3437459 135,99.15625 L135.1875,99.90625 C136.218755,99.8124995 137.546867,99.1093816 139.171875,97.796875 C141.546887,95.9531158 143.703115,93.5937644 145.640625,90.71875 C146.265628,90.5937494 146.749998,90.53125 147.09375,90.53125 L147.65625,90.578125 C146.437494,92.8593864 145.125007,94.7187428 143.71875,96.15625 C141.499989,98.4062613 139.968754,99.828122 139.125,100.421875 C137.249991,101.796882 135.453134,102.843746 133.734375,103.5625 C132.64062,104.031252 131.562505,104.265625 130.5,104.265625 C129.937497,104.265625 129.515626,104.125001 129.234375,103.84375 C128.953124,103.562499 128.8125,103.203127 128.8125,102.765625 C128.8125,101.296868 131.312475,94.8438072 136.3125,83.40625 C137.843758,79.9374827 139.437492,75.9687723 141.09375,71.5 C144.000015,63.6874609 146.234367,58.1250166 147.796875,54.8125 C149.359383,51.4999834 150.499996,48.5156383 151.21875,45.859375 C151.28125,45.5781236 151.3125,45.3437509 151.3125,45.15625 C151.3125,44.6874977 151.093752,44.250002 150.65625,43.84375 C150.093747,43.3437475 148.765635,42.8437525 146.671875,42.34375 Z M180.46875,76.375 C180.46875,83.6250362 178.273459,90.0624719 173.882812,95.6875 C169.492166,101.312528 164.937524,104.125 160.21875,104.125 C157.687487,104.125 155.640633,103.179697 154.078125,101.289062 C152.515617,99.398428 151.734375,96.4375202 151.734375,92.40625 C151.734375,89.6874864 152.343744,86.5547052 153.5625,83.0078125 C154.781256,79.4609198 156.359365,76.5156367 158.296875,74.171875 C158.734377,73.6406223 159.234372,73.0000037 159.796875,72.25 C161.453133,70.0937392 163.421864,68.2812573 165.703125,66.8125 C167.984386,65.3437427 170.312488,64.609375 172.6875,64.609375 C174.875011,64.609375 176.718743,65.5234284 178.21875,67.3515625 C179.718758,69.1796966 180.46875,72.1874791 180.46875,76.375 Z M156.09375,97.703125 C156.09375,99.1406322 156.429684,100.203122 157.101562,100.890625 C157.773441,101.578128 158.859367,101.921875 160.359375,101.921875 C161.828132,101.921875 163.312492,101.203132 164.8125,99.765625 C167.500013,97.1406119 170.187487,92.625032 172.875,86.21875 C175.562513,79.812468 176.90625,74.7656434 176.90625,71.078125 C176.90625,69.7656184 176.578128,68.7265663 175.921875,67.9609375 C175.265622,67.1953087 174.515629,66.8125 173.671875,66.8125 C171.828116,66.8125 169.90626,67.8906142 167.90625,70.046875 C164.499983,73.6718931 161.562512,78.6718431 159.09375,85.046875 C157.09374,90.2344009 156.09375,94.4531087 156.09375,97.703125 Z M194.8125,92.640625 C196.437508,92.3906238 197.812494,91.7968797 198.9375,90.859375 C199.468753,90.453123 200.359369,89.195323 201.609375,87.0859375 C202.859381,84.976552 203.781247,83.0781334 204.375,81.390625 C205.750007,77.4843555 206.4375,74.2812625 206.4375,71.78125 C206.4375,70.0937416 206.023442,68.7890671 205.195312,67.8671875 C204.367183,66.9453079 203.312506,66.484375 202.03125,66.484375 C200.656243,66.484375 199.328131,67.0703066 198.046875,68.2421875 C196.765619,69.4140684 195.226571,72.2812272 193.429688,76.84375 C191.632804,81.4062728 190.734375,84.9531123 190.734375,87.484375 C190.734375,88.7968816 191.124996,89.9374952 191.90625,90.90625 C192.687504,91.8750048 193.656244,92.4531241 194.8125,92.640625 Z M205.853542,124.054883 C204.714492,124.6852 202.963847,125.268463 200.601562,125.804688 C200.054313,125.92891 199.511755,126.039786 198.973886,126.137316 C197.208392,125.912763 195.899394,125.505013 195.046875,124.914062 C194.984742,124.870993 194.924013,124.827908 194.864688,124.784807 C197.047741,124.635393 199.147519,124.201918 201.164062,123.484375 C201.240815,123.457064 201.316766,123.429725 201.391915,123.402358 C201.646028,123.599579 201.882577,123.744105 202.101562,123.835938 C202.58594,124.039064 203.406244,124.140625 204.5625,124.140625 C204.974925,124.140625 205.405272,124.112044 205.853542,124.054883 Z" id="Urology" fill="#5C687D" sketch:type="MSShapeGroup"></path>
        <path d="M0.448242188,113.430664 L0.448242188,112.916016 C0.63639417,112.871745 0.785806738,112.844076 0.896484375,112.833008 L2.45703125,112.75 C3.7519596,112.639322 5.20181489,112.550782 6.80664062,112.484375 C7.44857092,112.462239 8.4612561,112.451172 9.84472656,112.451172 C11.7262464,112.451172 13.1041623,112.589517 13.9785156,112.866211 C15.2513084,113.275718 16.2003549,113.892737 16.8256836,114.717285 C17.4510122,115.541834 17.7636719,116.457677 17.7636719,117.464844 C17.7636719,119.102873 16.5960403,120.480789 14.2607422,121.598633 L14.1777344,121.731445 C15.3730529,122.05241 16.3525352,122.500648 17.1162109,123.076172 C17.8798866,123.651696 18.4664693,124.354488 18.8759766,125.18457 C19.1748062,125.793297 19.3242188,126.590164 19.3242188,127.575195 C19.3242188,129.224292 18.574389,130.693516 17.074707,131.98291 C15.5750251,133.272305 13.5081512,133.916992 10.8740234,133.916992 L8.40039062,133.916992 L5.89355469,134 C3.68000195,134.022136 2.38509303,134.033203 2.00878906,134.033203 C1.62141733,134.033203 1.23958521,134.016602 0.86328125,133.983398 L0.86328125,133.800781 C0.86328125,133.667968 0.890950244,133.573894 0.946289062,133.518555 C1.01269564,133.452148 1.13997302,133.39681 1.328125,133.352539 C2.71159546,133.064777 3.49462799,132.868327 3.67724609,132.763184 C3.85986419,132.65804 3.98437467,132.489259 4.05078125,132.256836 C4.18359441,131.814125 4.25,130.674163 4.25,128.836914 C4.25,128.670898 4.2444662,128.460613 4.23339844,128.206055 C4.21126291,127.464515 4.20019531,127.038412 4.20019531,126.927734 L4.20019531,125.201172 C4.20019531,122.279282 4.16699252,119.728201 4.10058594,117.547852 L4.08398438,114.210938 L4.06738281,113.795898 C3.1266229,113.663085 2.29655308,113.580078 1.57714844,113.546875 C1.11230236,113.535807 0.736004043,113.497071 0.448242188,113.430664 Z M7.0390625,121.831055 C7.59245068,121.941732 8.17349956,121.99707 8.78222656,121.99707 C11.1728635,121.99707 12.7942666,121.471359 13.6464844,120.419922 C14.4987022,119.368484 14.9248047,118.322596 14.9248047,117.282227 C14.9248047,116.81738 14.8500984,116.344241 14.7006836,115.862793 C14.5512688,115.381345 14.2856464,114.946942 13.9038086,114.55957 C13.5219707,114.172199 13.0488309,113.884441 12.484375,113.696289 C11.5214796,113.375324 10.5364634,113.214844 9.52929688,113.214844 C8.58853696,113.214844 7.71419675,113.319986 6.90625,113.530273 C6.89518224,113.762696 6.88964844,113.934244 6.88964844,114.044922 C6.88964844,114.1556 6.90071604,114.471026 6.92285156,114.991211 C6.93391933,115.323244 6.93945312,115.655272 6.93945312,115.987305 L6.88964844,117.996094 L6.90625,119.191406 L7.02246094,121.532227 L7.0390625,121.831055 Z M10.9404297,133.120117 C12.0361383,133.042643 12.9547489,132.810223 13.6962891,132.422852 C14.0393897,132.245767 14.446124,131.927574 14.9165039,131.468262 C15.3868839,131.00895 15.7521146,130.458337 16.012207,129.816406 C16.2722995,129.174476 16.4023438,128.55469 16.4023438,127.957031 C16.4023438,127.503253 16.3110361,126.944339 16.128418,126.280273 C15.9457999,125.616208 15.6359071,125.032392 15.1987305,124.528809 C14.7615538,124.025225 14.1113324,123.61019 13.2480469,123.283691 C12.3847613,122.957192 11.4329479,122.793945 10.3925781,122.793945 C8.37824514,122.793945 7.24935018,122.832682 7.00585938,122.910156 C6.99479161,123.164715 6.98925781,123.352864 6.98925781,123.474609 L7.00585938,124.088867 L6.98925781,125.333984 L6.98925781,126.745117 C7.0224611,129.346042 7.08333289,130.884438 7.171875,131.360352 C7.26041711,131.836265 7.56200915,132.245767 8.07666016,132.588867 C8.59131117,132.931968 9.54589146,133.109049 10.9404297,133.120117 Z M22.4619141,123.391602 C22.4619141,122.26269 22.5974921,121.258305 22.8686523,120.378418 C23.1398126,119.498531 23.596351,118.54395 24.2382812,117.514648 C24.8802115,116.485346 25.6549434,115.624841 26.5625,114.933105 C27.4700566,114.24137 28.726229,113.629885 30.3310547,113.098633 C31.4599666,112.733397 32.8876867,112.550781 34.6142578,112.550781 C35.776373,112.550781 36.9135687,112.705728 38.0258789,113.015625 C39.1381892,113.325522 40.1481074,113.757159 41.0556641,114.310547 C41.9632207,114.863935 42.8707637,115.71614 43.7783203,116.867188 C44.4091828,117.664066 44.8850895,118.521805 45.2060547,119.44043 C45.6266297,120.646816 45.8369141,121.891921 45.8369141,123.175781 C45.8369141,124.636726 45.6958022,125.848628 45.4135742,126.811523 C45.1313462,127.774419 44.6582064,128.726232 43.9941406,129.666992 C43.4739557,130.397465 42.5830141,131.238602 41.3212891,132.19043 C40.480139,132.83236 39.434251,133.34977 38.1835938,133.742676 C36.9329365,134.135581 35.5826895,134.332031 34.1328125,134.332031 C32.6607999,134.332031 31.3492896,134.160483 30.1982422,133.817383 C29.0471948,133.474282 28.0870807,133.05648 27.3178711,132.563965 C26.5486615,132.071449 25.7573283,131.343755 24.9438477,130.380859 C24.130367,129.417964 23.5133485,128.355475 23.0927734,127.193359 C22.6721984,126.031244 22.4619141,124.764004 22.4619141,123.391602 Z M33.9833984,133.717773 C34.9130906,133.717773 35.8787385,133.587729 36.8803711,133.327637 C37.8820037,133.067544 38.7701784,132.635908 39.5449219,132.032715 C40.3196653,131.429522 40.9256163,130.743331 41.362793,129.974121 C41.7999696,129.204912 42.1513659,128.217128 42.4169922,127.010742 C42.6826185,125.804356 42.8154297,124.597988 42.8154297,123.391602 C42.8154297,121.886386 42.5940777,120.397794 42.1513672,118.925781 C41.8082665,117.807937 41.2493528,116.809086 40.4746094,115.929199 C39.6998659,115.049312 38.7646539,114.368655 37.6689453,113.887207 C36.5732367,113.405759 35.4056052,113.165039 34.1660156,113.165039 C33.1588491,113.165039 32.1738329,113.331053 31.2109375,113.663086 C30.2480421,113.995119 29.4567088,114.418454 28.8369141,114.933105 C28.2171193,115.447756 27.6416042,116.178218 27.1103516,117.124512 C26.5790989,118.070806 26.1751316,119.113927 25.8984375,120.253906 C25.6217434,121.393886 25.4833984,122.401037 25.4833984,123.275391 C25.4833984,124.194015 25.6217434,125.234369 25.8984375,126.396484 C26.1751316,127.5586 26.5541968,128.565751 27.0356445,129.417969 C27.5170923,130.270187 28.1092087,131.02555 28.8120117,131.684082 C29.5148147,132.342614 30.303381,132.84619 31.1777344,133.194824 C32.0520877,133.543459 32.9872997,133.717773 33.9833984,133.717773 Z M49.0244141,123.391602 C49.0244141,122.26269 49.1599921,121.258305 49.4311523,120.378418 C49.7023126,119.498531 50.158851,118.54395 50.8007812,117.514648 C51.4427115,116.485346 52.2174434,115.624841 53.125,114.933105 C54.0325566,114.24137 55.288729,113.629885 56.8935547,113.098633 C58.0224666,112.733397 59.4501867,112.550781 61.1767578,112.550781 C62.338873,112.550781 63.4760687,112.705728 64.5883789,113.015625 C65.7006892,113.325522 66.7106074,113.757159 67.6181641,114.310547 C68.5257207,114.863935 69.4332637,115.71614 70.3408203,116.867188 C70.9716828,117.664066 71.4475895,118.521805 71.7685547,119.44043 C72.1891297,120.646816 72.3994141,121.891921 72.3994141,123.175781 C72.3994141,124.636726 72.2583022,125.848628 71.9760742,126.811523 C71.6938462,127.774419 71.2207064,128.726232 70.5566406,129.666992 C70.0364557,130.397465 69.1455141,131.238602 67.8837891,132.19043 C67.042639,132.83236 65.996751,133.34977 64.7460938,133.742676 C63.4954365,134.135581 62.1451895,134.332031 60.6953125,134.332031 C59.2232999,134.332031 57.9117896,134.160483 56.7607422,133.817383 C55.6096948,133.474282 54.6495807,133.05648 53.8803711,132.563965 C53.1111615,132.071449 52.3198283,131.343755 51.5063477,130.380859 C50.692867,129.417964 50.0758485,128.355475 49.6552734,127.193359 C49.2346984,126.031244 49.0244141,124.764004 49.0244141,123.391602 Z M60.5458984,133.717773 C61.4755906,133.717773 62.4412385,133.587729 63.4428711,133.327637 C64.4445037,133.067544 65.3326784,132.635908 66.1074219,132.032715 C66.8821653,131.429522 67.4881163,130.743331 67.925293,129.974121 C68.3624696,129.204912 68.7138659,128.217128 68.9794922,127.010742 C69.2451185,125.804356 69.3779297,124.597988 69.3779297,123.391602 C69.3779297,121.886386 69.1565777,120.397794 68.7138672,118.925781 C68.3707665,117.807937 67.8118528,116.809086 67.0371094,115.929199 C66.2623659,115.049312 65.3271539,114.368655 64.2314453,113.887207 C63.1357367,113.405759 61.9681052,113.165039 60.7285156,113.165039 C59.7213491,113.165039 58.7363329,113.331053 57.7734375,113.663086 C56.8105421,113.995119 56.0192088,114.418454 55.3994141,114.933105 C54.7796193,115.447756 54.2041042,116.178218 53.6728516,117.124512 C53.1415989,118.070806 52.7376316,119.113927 52.4609375,120.253906 C52.1842434,121.393886 52.0458984,122.401037 52.0458984,123.275391 C52.0458984,124.194015 52.1842434,125.234369 52.4609375,126.396484 C52.7376316,127.5586 53.1166968,128.565751 53.5981445,129.417969 C54.0795923,130.270187 54.6717087,131.02555 55.3745117,131.684082 C56.0773147,132.342614 56.865881,132.84619 57.7402344,133.194824 C58.6145877,133.543459 59.5497997,133.717773 60.5458984,133.717773 Z M81.3974609,123.358398 C81.5302741,123.236653 81.7516261,123.081707 82.0615234,122.893555 C82.6813182,122.517251 83.7493414,121.764654 85.265625,120.635742 L89.8144531,116.916992 C91.0651104,115.876622 91.9449844,115.05762 92.4541016,114.459961 C92.5537114,114.327148 92.6311846,114.188803 92.6865234,114.044922 C92.4873037,113.901041 92.2604179,113.795899 92.0058594,113.729492 C91.7513008,113.663086 91.3473335,113.613281 90.7939453,113.580078 C90.2405571,113.546875 89.9112961,113.494304 89.8061523,113.422363 C89.7010086,113.350423 89.6484375,113.259115 89.6484375,113.148438 C89.6484375,113.026692 89.6871741,112.932618 89.7646484,112.866211 C89.9085294,112.766601 90.1132799,112.716797 90.3789062,112.716797 C90.7994813,112.716797 91.164712,112.747233 91.4746094,112.808105 C91.7845068,112.868978 92.4872992,112.899414 93.5830078,112.899414 C93.8486341,112.899414 94.0423171,112.89388 94.1640625,112.882812 L96.7539062,112.75 C97.0195326,112.727864 97.2242831,112.716797 97.3681641,112.716797 C97.5009772,112.716797 97.700194,112.727864 97.9658203,112.75 C97.9658203,113.015626 97.9436851,113.231444 97.8994141,113.397461 C96.7040956,113.541342 95.8242216,113.723957 95.2597656,113.945312 C94.9388005,114.078126 94.2858122,114.443356 93.3007812,115.041016 C92.5592411,115.494794 91.8841176,115.981768 91.2753906,116.501953 L86.9921875,120.104492 L84.4023438,122.196289 C84.4466148,122.273763 84.5130204,122.351237 84.6015625,122.428711 C84.6679691,122.48405 84.833983,122.638996 85.0996094,122.893555 C86.2617246,123.978196 87.8305565,125.309074 89.8061523,126.88623 C91.7817482,128.463387 93.3284449,129.783198 94.4462891,130.845703 C96.0843181,132.417326 97.628248,133.286132 99.078125,133.452148 C99.4322934,133.496419 99.6868482,133.596028 99.8417969,133.750977 L99.8583984,133.933594 L99.8251953,134.166016 C99.4488913,134.188151 99.1943366,134.199219 99.0615234,134.199219 C98.5524063,134.199219 97.7832083,134.160482 96.7539062,134.083008 C96.1451792,134.038737 95.6416036,134.016602 95.2431641,134.016602 C93.6494061,134.016602 91.8287863,134.083007 89.78125,134.21582 C89.7480467,134.060872 89.7314453,133.944662 89.7314453,133.867188 L89.7480469,133.734375 C89.8919278,133.601562 90.1796853,133.479818 90.6113281,133.369141 C91.2089874,133.214192 91.8398404,133.125651 92.5039062,133.103516 C92.6477872,133.103516 92.8027335,133.092448 92.96875,133.070312 C92.8580724,132.893228 92.675457,132.688478 92.4208984,132.456055 C92.3766274,132.411784 92.2272148,132.265138 91.9726562,132.016113 C91.7180977,131.767089 91.26986,131.360354 90.6279297,130.795898 L88.6523438,129.21875 L85.6142578,126.662109 C84.6070913,125.798824 83.2015064,124.697598 81.3974609,123.358398 Z M74.9892578,133.78418 C75.0445966,133.673502 75.1276036,133.61263 75.2382812,133.601562 C76.3561254,133.501953 77.2359994,133.302736 77.8779297,133.003906 C78.099285,132.804687 78.2099609,132.472659 78.2099609,132.007812 L78.1933594,130.380859 L78.1933594,127.292969 L78.2265625,125.948242 L78.1269531,121.333008 L78.1601562,118.228516 C78.1601562,116.479809 78.1269535,115.312177 78.0605469,114.725586 C78.0384113,114.504231 77.966472,114.277345 77.8447266,114.044922 C77.6455068,113.923176 77.4794929,113.851237 77.3466797,113.829102 C76.8707658,113.751627 76.2565142,113.690755 75.5039062,113.646484 C75.3489576,113.535807 75.2714844,113.402996 75.2714844,113.248047 C75.2714844,113.192708 75.2936196,113.109701 75.3378906,112.999023 C75.9576854,112.96582 77.0533776,112.949219 78.625,112.949219 C79.3554724,112.949219 79.9309875,112.943685 80.3515625,112.932617 C80.9492217,112.899414 81.6686156,112.84961 82.5097656,112.783203 C82.8750018,112.816406 83.3066381,112.833008 83.8046875,112.833008 C83.9264329,112.899414 83.9873047,112.976888 83.9873047,113.06543 C83.9873047,113.131836 83.9762371,113.203776 83.9541016,113.28125 C83.8212884,113.347657 83.5722675,113.402995 83.2070312,113.447266 C82.2441358,113.546875 81.5911475,113.75716 81.2480469,114.078125 C81.0156238,114.29948 80.8994141,114.720049 80.8994141,115.339844 L80.9160156,115.655273 L80.8828125,121.897461 L80.8330078,126.197266 L80.9492188,130.463867 C80.9602865,131.814134 80.9934893,132.55843 81.0488281,132.696777 C81.1041669,132.835124 81.1927077,132.943033 81.3144531,133.020508 C81.7018249,133.252931 82.2939413,133.407877 83.0908203,133.485352 C83.2900401,133.507487 83.483723,133.546224 83.671875,133.601562 C83.7382816,133.745443 83.7714844,133.867187 83.7714844,133.966797 C83.7714844,134.077475 83.7050788,134.182617 83.5722656,134.282227 L83.0410156,134.298828 C82.8196604,134.298828 82.2884157,134.260092 81.4472656,134.182617 C80.6061156,134.105143 79.9807963,134.066406 79.5712891,134.066406 C79.2281884,134.066406 78.7522817,134.105143 78.1435547,134.182617 C77.5348277,134.260092 76.7047579,134.298828 75.6533203,134.298828 C75.4983716,134.298828 75.2880873,134.293294 75.0224609,134.282227 L74.9892578,133.78418 Z M103.169922,132.655273 C103.169922,132.168292 103.34977,131.742189 103.709473,131.376953 C104.069175,131.011717 104.486977,130.829102 104.962891,130.829102 C105.427737,130.829102 105.820636,131.000649 106.141602,131.34375 C106.462567,131.686851 106.623047,132.118487 106.623047,132.638672 C106.623047,133.158857 106.454266,133.596027 106.116699,133.950195 C105.779132,134.304364 105.372398,134.481445 104.896484,134.481445 C104.431638,134.481445 104.027671,134.301597 103.68457,133.941895 C103.34147,133.582192 103.169922,133.153323 103.169922,132.655273 Z M121.879883,130.961914 L121.896484,132.041016 C121.033199,132.95964 120.180994,133.601561 119.339844,133.966797 C118.498694,134.332033 117.508144,134.514648 116.368164,134.514648 C115.128575,134.514648 114.010747,134.190921 113.014648,133.543457 C112.01855,132.895993 111.252119,131.980149 110.715332,130.795898 C110.178545,129.611648 109.910156,128.44955 109.910156,127.30957 C109.910156,126.058913 110.233883,124.877447 110.881348,123.765137 C111.528812,122.652826 112.386551,121.822757 113.45459,121.274902 C114.522629,120.727048 115.864575,120.453125 117.480469,120.453125 C119.029956,120.453125 120.208655,120.718747 121.016602,121.25 C121.47038,121.559897 121.697266,121.958331 121.697266,122.445312 C121.697266,122.799481 121.581056,123.092772 121.348633,123.325195 C121.11621,123.557618 120.817385,123.673828 120.452148,123.673828 C119.89876,123.673828 119.290042,123.330733 118.625977,122.644531 C118.216469,122.223956 117.845705,121.933432 117.513672,121.772949 C117.181639,121.612467 116.810874,121.532227 116.401367,121.532227 C115.416336,121.532227 114.597334,121.936194 113.944336,122.744141 C113.036779,123.895188 112.583008,125.33951 112.583008,127.077148 C112.583008,128.870126 113.047847,130.297846 113.977539,131.360352 C114.907231,132.422857 115.991856,132.954102 117.231445,132.954102 C118.094731,132.954102 118.861162,132.81299 119.530762,132.530762 C120.200361,132.248534 120.983394,131.72559 121.879883,130.961914 Z M123.988281,127.326172 C123.988281,126.573564 124.145995,125.768396 124.461426,124.910645 C124.776857,124.052893 125.255531,123.283695 125.897461,122.603027 C126.539391,121.92236 127.220048,121.416017 127.939453,121.083984 C128.94662,120.619138 130.175123,120.386719 131.625,120.386719 C133.694672,120.386719 135.423984,121.095045 136.812988,122.511719 C138.201993,123.928393 138.896484,125.632803 138.896484,127.625 C138.896484,129.395842 138.16879,130.975742 136.713379,132.364746 C135.257968,133.75375 133.41798,134.448242 131.193359,134.448242 C129.820957,134.448242 128.526048,134.088545 127.308594,133.369141 C126.401037,132.82682 125.620771,132.024419 124.967773,130.961914 C124.314775,129.899409 123.988281,128.687507 123.988281,127.326172 Z M131.326172,133.800781 C132.167322,133.800781 132.978023,133.573895 133.758301,133.120117 C134.538578,132.666339 135.16113,131.938644 135.625977,130.937012 C136.090823,129.935379 136.323242,128.776048 136.323242,127.458984 C136.323242,126.595699 136.143394,125.594081 135.783691,124.454102 C135.423989,123.314122 134.870609,122.45915 134.123535,121.88916 C133.376461,121.31917 132.499354,121.03418 131.492188,121.03418 C130.761715,121.03418 130.017419,121.205727 129.259277,121.548828 C128.501136,121.891929 127.859215,122.550451 127.333496,123.524414 C126.807777,124.498377 126.544922,125.881827 126.544922,127.674805 C126.544922,129.689138 127.00146,131.213699 127.914551,132.248535 C128.827641,133.283371 129.964837,133.800781 131.326172,133.800781 Z M140.789062,133.418945 C140.966147,133.2972 141.209634,133.214193 141.519531,133.169922 C141.962242,133.114583 142.305337,133.026042 142.548828,132.904297 C142.748048,132.73828 142.880859,132.500327 142.947266,132.19043 C143.02474,131.79199 143.063477,130.391939 143.063477,127.990234 C143.063477,125.632801 142.991537,124.111006 142.847656,123.424805 C142.604165,123.269856 142.288739,123.148112 141.901367,123.05957 C141.779622,123.037435 141.525067,122.976563 141.137695,122.876953 L141.137695,122.329102 C141.790693,122.14095 142.319171,121.897462 142.723145,121.598633 C143.127118,121.299803 143.688798,120.702153 144.408203,119.805664 L144.507812,119.805664 C144.574219,119.805664 144.679361,119.80013 144.823242,119.789062 C144.911784,119.80013 144.983724,119.827799 145.039062,119.87207 L145.022461,121.764648 C145.022461,122.15202 145.033529,122.567055 145.055664,123.009766 C146.239915,121.936193 147.302404,121.183596 148.243164,120.751953 C148.885094,120.464191 149.610022,120.320312 150.417969,120.320312 C151.380864,120.320312 152.144528,120.502928 152.708984,120.868164 C153.27344,121.2334 153.810219,121.891922 154.319336,122.84375 C155.304367,121.869787 156.198075,121.18913 157.000488,120.801758 C157.802901,120.414386 158.613603,120.220703 159.432617,120.220703 C160.672207,120.220703 161.690426,120.62467 162.487305,121.432617 C163.273116,122.251632 163.677083,123.452466 163.699219,125.035156 L163.699219,126.413086 L163.71582,127.923828 L163.699219,131.808594 C163.688151,132.262372 163.787759,132.605468 163.998047,132.837891 C164.086589,132.871094 164.424151,132.970702 165.010742,133.136719 C165.375978,133.236329 165.591797,133.313802 165.658203,133.369141 C165.72461,133.424479 165.757812,133.501953 165.757812,133.601562 C165.757812,133.723308 165.72461,133.867187 165.658203,134.033203 L165.541992,134.033203 L163.865234,133.933594 C163.666015,133.922526 163.350588,133.916992 162.918945,133.916992 C162.387693,133.916992 161.646164,133.939127 160.694336,133.983398 L159.847656,133.983398 C159.725911,133.983398 159.487957,133.988932 159.133789,134 C159.122721,133.90039 159.117188,133.811849 159.117188,133.734375 C159.117188,133.645833 159.155924,133.535157 159.233398,133.402344 C159.532228,133.269531 159.941729,133.161622 160.461914,133.078613 C160.982099,132.995605 161.305826,132.846192 161.433105,132.630371 C161.560385,132.41455 161.624023,131.554044 161.624023,130.048828 C161.624023,126.783838 161.585287,124.891279 161.507812,124.371094 C161.374999,123.541011 161.023603,122.89079 160.453613,122.42041 C159.883623,121.95003 159.166997,121.714844 158.303711,121.714844 C157.639645,121.714844 156.992191,121.889158 156.361328,122.237793 C155.730466,122.586428 155.11068,123.109372 154.501953,123.806641 L154.485352,124.205078 L154.485352,126.745117 L154.418945,128.720703 C154.418945,130.735036 154.438314,131.880532 154.477051,132.157227 C154.515788,132.433921 154.609863,132.635904 154.759277,132.763184 C154.908692,132.890463 155.343095,133.003906 156.0625,133.103516 C156.383465,133.147787 156.632486,133.192057 156.80957,133.236328 C156.942383,133.347006 157.008789,133.490885 157.008789,133.667969 C157.008789,133.81185 156.958985,133.911458 156.859375,133.966797 L156.577148,133.966797 L155.74707,133.950195 L150.916016,133.950195 L149.587891,133.966797 C149.565755,133.80078 149.554688,133.679037 149.554688,133.601562 L149.571289,133.402344 C149.81478,133.269531 150.268551,133.142253 150.932617,133.020508 C151.275718,132.965169 151.629881,132.871094 151.995117,132.738281 C152.061524,132.682942 152.111328,132.611003 152.144531,132.522461 C152.19987,132.367512 152.238607,131.924808 152.260742,131.194336 L152.34375,129.268555 L152.310547,127.09375 L152.327148,125.881836 C152.327148,124.520501 152.050458,123.527184 151.49707,122.901855 C150.943682,122.276527 150.246423,121.963867 149.405273,121.963867 C148.619462,121.963867 147.830896,122.15755 147.039551,122.544922 C146.248206,122.932294 145.592451,123.452471 145.072266,124.105469 C145.061198,124.415366 145.055664,124.69759 145.055664,124.952148 L145.12207,130.530273 C145.133138,131.747727 145.202311,132.442219 145.32959,132.61377 C145.456869,132.78532 145.74186,132.904297 146.18457,132.970703 C146.892907,133.070313 147.352212,133.192057 147.5625,133.335938 C147.66211,133.402344 147.711914,133.501952 147.711914,133.634766 C147.711914,133.723308 147.70638,133.82845 147.695312,133.950195 C146.433587,133.861653 145.586916,133.817383 145.155273,133.817383 C144.712563,133.817383 144.314129,133.822917 143.959961,133.833984 L143.129883,133.883789 L142.615234,133.883789 L140.755859,133.950195 C140.733724,133.872721 140.722656,133.806315 140.722656,133.750977 C140.722656,133.695638 140.744791,133.584962 140.789062,133.418945 Z" id="BOOK.com" fill="#5C687D" sketch:type="MSShapeGroup"></path>
    </g>
</svg>