<?xml version="1.0" encoding="UTF-8"?>
<svg width="756px" height="152px" viewBox="0 0 756 152" version="1.1" xmlns="http://www.w3.org/2000/svg" xmlns:xlink="http://www.w3.org/1999/xlink">
    <title>university-of-chicago-logo</title>
    <g id="Page-1" stroke="none" stroke-width="1" fill="none" fill-rule="evenodd">
        <g id="university-of-chicago-logo" fill="#000000" fill-rule="nonzero">
            <path d="M40.944,34.289 C40.461,34.651 41.514,35.157 41.419,35.129 C41.457,36.619 41.241,38.15 41.748,38.907 C42.07,39.377 43.069,39.722 43.242,39.272 C43.411,38.818 44.168,37.893 44.338,37.736 C44.654,37.458 44.375,37.203 44.11,37.477 C43.562,38.058 43.256,37.79 42.853,37.405 C42.658,37.184 42.583,35.1 42.724,35.038 C42.724,35.038 43.73,34.892 43.972,34.892 C44.159,34.892 44.143,34.313 43.947,34.313 C43.645,34.313 42.747,34.321 42.695,34.18 C42.583,33.892 42.875,32.487 42.925,31.857 C42.967,31.412 42.728,31.271 42.608,31.686 C42.478,32.092 41.514,33.875 40.944,34.289 Z M43.604,28.97 C44.189,28.922 45.132,29.273 46.178,29.187 C47.422,29.098 48.398,27.17 47.861,25.67 C47.361,24.246 45.773,24.496 44.704,24.156 C43.721,23.888 43.315,23.27 44.387,22.566 C45.647,21.752 47.211,23.057 47.361,23.332 C47.592,23.747 47.785,23.74 47.785,23.2 C47.817,22.021 47.709,22.688 47.592,21.578 C47.553,21.181 47.263,21.147 47.237,21.528 C47.211,21.916 46.739,21.797 46.384,21.797 C46.022,21.79 44.971,21.629 44.063,22.133 C43.485,22.469 42.164,23.505 42.903,24.746 C43.336,25.471 45.873,26.06 46.504,26.477 C47.14,26.891 47.282,27.957 46.675,28.446 C45.92,29.045 43.868,28.541 43.552,28.177 C43.136,27.717 42.977,27.338 42.89,26.805 C42.803,26.259 42.344,26.306 42.344,26.805 C42.344,27.302 42.461,29.008 42.551,29.408 C42.634,29.825 43.05,29.687 43.089,29.371 C43.136,29.078 43.331,28.993 43.604,28.97 Z M46.504,30.61 C46.277,31.059 45.909,31.469 45.239,31.775 C45.647,32.13 46.178,32.588 46.529,32.818 C46.931,32.37 47.301,31.955 47.765,31.516 C47.306,31.426 46.774,31.196 46.504,30.61 Z M40.177,29.951 C40.603,29.61 40.917,29.036 41.091,28.9 C41.419,28.63 41.149,28.353 40.872,28.612 C40.651,28.83 40.071,28.325 40.046,28.291 C39.857,28.07 39.581,25.174 39.71,25.109 C39.71,25.109 41.553,24.882 41.795,24.886 C41.977,24.899 42.001,24.312 41.805,24.302 C41.505,24.302 40.1,24.496 40.05,24.358 C39.972,24.052 39.783,23.02 40.244,22.133 C40.461,21.747 40.238,21.373 40.094,21.768 C39.93,22.171 38.776,23.962 38.031,24.256 C37.422,24.506 37.491,24.647 37.883,24.746 C38.194,24.807 38.517,25.179 38.457,25.174 C38.396,26.66 38.25,28.494 38.712,29.272 C39.005,29.763 39.811,30.272 40.177,29.951 Z M35.085,33.012 C34.62,33.451 34.254,33.851 33.575,34.388 C33.89,34.751 34.426,35.208 34.473,35.832 C34.514,36.462 34.49,39.386 34.529,40.118 C35.027,40.118 34.938,40.17 35.793,40.137 C35.709,39.641 35.78,35.846 35.78,35.302 C36.101,34.997 36.146,34.949 36.513,34.676 C36.777,34.907 37.396,35.044 37.396,35.45 C37.396,35.859 37.518,37.66 37.374,38.326 C37.195,39.138 37.274,39.722 37.713,40.542 C38.045,40.17 39.288,39.301 39.558,39.084 C39.823,38.854 39.685,38.681 39.341,38.774 C38.973,38.854 38.908,38.925 38.908,38.692 C38.908,38.255 38.735,36.278 38.708,35.016 C38.663,33.751 38.045,33.378 37.69,33.204 C37.328,33.607 36.519,34.115 36.035,34.526 C35.67,34.257 35.489,33.652 35.085,33.012 Z M30.185,33.875 C30.401,34.425 31.09,35.473 31.401,35.657 C30.865,36.194 29.551,37.085 29.182,37.345 C28.51,36.501 28.147,35.123 30.185,33.875 Z M27.872,36.449 C27.552,38.825 29.793,40.239 30.869,40.696 C31.141,40.15 31.691,39.264 32.23,38.643 C32.641,38.165 32.189,38.038 31.821,38.406 C31.325,38.948 29.844,38.433 29.452,37.718 C30.167,37.179 32.031,35.62 32.843,34.955 C32.307,34.453 31.479,33.204 31.351,32.487 C30.627,32.974 28.235,33.979 27.872,36.449 Z M27.256,25.028 C26.392,26.35 25.919,28.434 27.416,29.653 C28.12,30.242 28.704,30.701 30.142,30.445 C30.427,29.875 30.554,29.686 31.059,29.027 C30.068,29.187 29.304,29.008 28.581,28.461 C27.091,27.305 27.552,25.444 27.992,24.808 C28.795,23.615 29.937,25.32 30.142,25.553 C30.407,25.235 30.866,24.782 31.313,24.43 C30.87,23.843 30.507,23.299 30.206,22.945 C29.253,23.288 27.853,24.142 27.256,25.028 Z M34.175,21.5 C34.06,21.354 33.842,21.119 33.833,20.823 C33.833,20.628 33.856,18.586 33.856,18.333 C33.856,18.091 33.374,18.117 33.374,18.333 C33.352,18.695 33.406,19.313 33.082,19.814 C32.187,21.199 30.481,21.77 29.282,20.071 C28.874,19.507 28.778,18.653 28.726,18.044 C28.645,17.23 29.263,16.178 29.298,16.082 C30.823,14.083 32.94,15.568 33.111,16.38 C33.225,16.922 33.347,17.586 33.347,17.935 C33.333,18.167 33.833,18.143 33.842,17.903 C33.842,17.654 33.856,14.582 33.856,14.367 C33.866,14.168 33.453,14.103 33.445,14.367 C33.422,14.853 33.136,14.895 32.763,14.775 C31.991,14.545 30.281,14.178 29.287,14.749 C28.412,15.264 27.071,16.47 27.095,17.987 C27.121,20.483 28.064,20.693 29.158,21.365 C30.183,21.968 31.599,21.578 32.893,21.204 C33.406,21.064 33.47,21.388 33.717,21.752 C34.135,22.312 34.473,21.954 34.175,21.5 Z M34.907,28.669 C34.902,28.852 34.907,29.008 34.911,29.173 C34.729,29.219 34.525,29.262 34.271,29.39 C33.927,29.098 32.296,28.564 33.365,27.702 C34.02,28.088 34.273,27.787 34.907,27.395 C34.912,27.947 34.907,28.47 34.907,28.669 Z M34.898,26.976 C33.958,27.584 33.659,27.564 33.013,26.835 C32.691,26.462 32.721,25.76 32.869,25.495 C33.16,25.037 33.672,24.575 33.915,24.58 C34.127,24.594 34.884,25.514 34.831,25.915 C34.871,26.137 34.887,26.546 34.898,26.976 Z M34.831,23.539 C33.99,23.615 32.773,24.6 32.41,25.448 C32.263,25.787 32.471,27.009 32.626,27.144 C32.736,27.24 32.823,27.307 32.919,27.382 C32.366,27.896 31.848,28.334 31.863,29.098 C31.887,29.834 32.471,30.488 33.227,30.832 C33.632,30.216 34.263,29.838 34.939,29.679 C34.995,30.267 35.131,30.697 35.517,30.993 C35.793,30.686 36.902,29.729 37.116,29.512 C37.35,29.292 37.175,29.026 36.902,29.292 C36.739,29.442 36.343,29.219 36.226,29.026 C36.226,28.705 36.226,25.319 36.368,25.166 C35.867,24.623 35.392,23.478 34.831,23.539 Z M40.953,15.271 C41.285,14.946 40.931,14.71 40.637,14.993 C40.417,14.731 39.857,14.153 39.558,13.8 C39.24,14.065 38.51,14.503 38.102,14.731 C37.783,14.366 37.391,14.366 36.753,13.866 C36.4,14.137 35.617,14.71 35.196,15.22 C35.939,15.437 36.498,15.48 36.545,16.116 C36.572,16.635 36.49,19.826 36.534,20.411 C36.931,20.498 37.417,20.459 37.981,20.43 C38.025,19.973 38.004,15.97 38.004,15.526 C38.218,15.407 38.437,15.291 38.542,15.192 C38.776,15.371 39.24,16.046 39.613,16.268 C39.901,16.055 40.637,15.589 40.953,15.271 Z M43.195,16.673 C42.705,15.098 42.89,14.556 43.868,13.778 C44.087,14.32 44.649,14.711 44.961,14.899 C44.41,15.437 43.552,16.409 43.195,16.673 Z M46.376,18.62 C44.437,19.109 43.529,17.555 43.336,17.139 C44.119,16.338 45.452,15.027 46.264,14.361 C45.727,13.866 45.506,13.047 44.553,12.977 C43.721,13 41.783,13.941 41.443,16.403 C41.117,18.766 43.336,20.043 45.093,20.114 C45.68,20.114 46.411,19.355 46.774,19.177 C47.553,18.795 47.263,18.417 46.376,18.62 Z M51.83,15.749 C51.714,15.843 51.381,16.112 51.022,16.399 C50.811,16.436 50.596,16.46 50.376,16.433 C49.712,16.338 49.393,15.838 49.087,15.437 C48.771,15.017 49.587,14.669 49.988,14.711 C50.395,14.767 51.294,15.249 51.83,15.749 Z M50.433,17.609 C50.874,17.808 51.322,18.007 51.81,18.295 C52.517,18.695 52.154,19.456 51.392,19.807 C50.618,20.163 49.233,19.162 49.017,18.752 C49.301,18.506 49.835,18.083 50.433,17.609 Z M53.762,14.881 C53.225,14.513 52.64,13.618 51.342,13.56 C50.038,13.508 48.567,14.686 48.089,15.427 C47.454,16.407 48.232,17.267 49.062,17.903 C48.531,18.357 47.795,19.057 47.113,19.695 C47.386,19.992 48.879,20.697 49.716,20.677 C50.983,20.649 52.154,19.996 52.876,19.416 C54.193,18.374 53.736,17.267 52.395,16.484 C52.268,16.407 52.144,16.385 52.017,16.36 C52.848,15.701 53.574,15.113 53.762,14.881 Z M55.373,22.449 L54.581,21.629 L53.785,22.345 L53.801,23.331 L54.288,23.83 L54.781,23.83 L55.373,23.296 L55.373,22.449 Z M55.018,16.893 C54.713,16.876 54.235,17.718 56.078,17.649 C56.366,17.638 56.58,16.982 55.018,16.893 Z M54.996,17.998 C54.68,17.979 54.2,18.558 56.049,18.748 C56.336,18.781 56.721,18.103 54.996,17.998 Z M56.197,30.374 L56.88,29.639 C56.114,29.493 56.114,29.545 55.706,29.178 L55.736,25.642 L55.068,24.656 L54.711,24.703 L53.174,26.122 C52.76,26.493 53.13,26.669 53.592,26.259 L54.385,26.744 L54.414,30.074 C54.496,30.473 54.846,30.61 55.335,31.115 L56.197,30.374 Z M51.493,36.666 C52.065,37.051 52.393,37.001 53.114,36.93 C53.084,37.321 53.056,37.68 53.056,37.84 C53.056,38.013 53.127,38.15 53.176,38.296 C52.803,38.429 52.329,38.509 51.962,38.692 C51.631,38.4 50.41,37.566 51.493,36.666 Z M53.143,36.553 C52.52,36.566 51.983,36.374 51.303,35.775 C51.174,35.666 51.052,34.892 51.199,34.639 C51.499,34.163 51.499,34.015 51.76,34.02 C51.962,34.02 53.218,34.779 53.152,35.184 C53.2,35.473 53.177,36.019 53.143,36.553 Z M50.971,36.261 C50.417,36.831 50.006,37.461 50.013,38.254 C50.04,39.008 50.291,39.759 51.059,40.099 C51.739,39.598 52.614,38.99 53.456,38.832 C53.869,39.328 54.504,39.659 54.885,39.959 C55.148,39.64 55.99,38.957 56.222,38.745 C56.443,38.519 56.222,38.203 55.99,38.5 C55.81,38.773 55.218,38.575 55.048,38.296 C55.048,37.975 54.741,34.582 54.877,34.425 C54.387,33.879 53.543,32.648 52.975,32.709 C52.149,32.794 50.914,33.975 50.647,34.361 C50.446,34.651 50.708,36.048 50.866,36.181 C50.91,36.212 50.93,36.223 50.971,36.261 Z M48.764,28.187 C49.28,29.653 50.496,30.115 51.402,30.187 C51.67,29.686 52.171,28.923 52.447,28.568 C52.854,28.027 52.439,27.702 52.154,28.325 C51.934,28.805 50.758,28.281 50.332,27.871 C49.76,27.338 49.403,25.94 49.859,25.448 C50.32,24.952 50.982,25.179 51.834,25.155 C52.395,25.127 52.515,24.609 52.611,24.345 C52.34,24.217 51.934,23.987 51.402,23.666 C50.852,24.015 50.005,24.735 49.64,25.038 C49.183,25.424 48.247,26.758 48.764,28.187 Z M48.431,38.817 L49.098,38.079 C48.348,37.94 48.697,37.947 48.3,37.582 L48.277,34.528 L47.301,33.096 L46.931,33.148 L45.402,34.576 C44.997,34.93 45.354,35.1 45.825,34.709 L46.837,35.232 L46.861,38.467 C46.946,38.867 47.301,38.959 47.794,39.466 L48.431,38.817 Z M61.171,56.444 C61.171,56.444 61.788,55.776 61.786,55.297 C61.784,54.649 61.173,54.176 61.173,54.176 C61.698,54.327 62.945,55.029 63.391,55.323 L61.171,56.444 Z M65.087,55.262 L65.087,55.176 C63.718,54.979 62.644,54.022 61.392,53.548 C59.659,52.893 57.823,54.23 57.823,54.442 C57.823,54.909 58.315,55.148 59.716,54.267 C58.618,55.538 59.865,56.571 59.865,56.571 C59.409,56.503 58.758,56.35 58.341,56.112 C58.257,56.571 58.889,56.739 59.19,56.938 C61.515,57.893 63.043,55.657 65.087,55.262 Z M80.805,33.964 C80.448,34.327 79.824,34.745 79.24,35.394 C79.724,35.428 80.125,35.532 80.358,35.996 C80.597,36.457 80.396,38.398 80.429,39.146 C80.468,39.872 80.907,40.026 81.483,40.628 C82.058,40.482 83.662,39.812 84.202,39.441 C84.153,40.037 84.907,40.707 85.352,40.837 C85.651,40.512 85.975,40.334 86.414,39.926 C85.986,39.64 86.042,39.601 85.882,39.033 C85.756,38.485 85.912,36.41 85.927,35.521 C85.588,35.007 85.03,34.391 84.46,33.964 C84.058,34.331 83.515,34.822 82.878,35.492 C83.352,35.428 84.286,35.618 84.33,36.017 C84.358,36.531 84.436,37.655 84.33,38.528 C84.224,39.408 81.856,39.004 81.824,38.412 C81.771,37.802 81.945,36.05 81.958,35.221 C81.623,34.707 81.424,34.425 80.805,33.964 Z M81.988,27.134 C82.162,26.261 82.774,25.903 83.056,25.64 C83.454,26.082 83.854,26.581 84.453,26.581 C85.038,26.586 85.647,26.315 85.836,26.073 C85.353,25.684 84.253,24.526 84.032,24.308 C83.475,24.617 81.055,25.873 80.85,27.324 C80.556,29.463 81.233,29.89 82.172,31.065 C82.701,31.732 83.585,31.763 83.987,31.66 C84.42,31.359 86.004,29.856 86.18,29.667 C86.34,29.482 86.109,29.313 85.912,29.502 C85.716,29.681 85.792,29.759 85.531,29.798 C85.262,29.841 84.184,30.022 83.557,29.695 C82.774,29.284 81.753,28.317 81.988,27.134 Z M75.235,26.901 C75.293,28.342 74.543,29.856 73.727,30.54 C75.137,30.174 75.322,29.333 76.094,28.342 C76.52,28.973 77.312,29.734 77.892,30.064 C78.299,29.794 79.452,28.499 79.705,28.232 C78.874,28.009 77.267,27.159 76.866,26.262 C76.55,25.597 76.625,25.282 76.94,24.758 C77.221,25.127 79.175,26.025 80.054,24.526 C79.092,24.176 78.228,23.546 77.935,23.037 C77.677,23.251 76.818,24.187 76.335,24.483 C76.223,23.968 75.434,23.414 74.794,23.299 C74.586,23.522 73.079,24.671 72.391,25.006 C72.178,25.108 72.258,25.569 72.556,25.452 C72.836,25.33 73.302,24.976 73.84,24.72 C74.464,24.962 75.171,25.597 75.235,26.901 Z M74.959,33.823 C74.383,34.11 75.728,34.643 75.638,34.619 C75.619,36.143 75.311,38.635 75.836,39.426 C76.158,39.91 76.896,40.227 77.388,40.037 C77.862,39.848 78.466,38.902 78.646,38.747 C78.997,38.484 78.697,38.204 78.404,38.476 C78.114,38.747 77.326,38.554 77.221,38.28 C77.139,37.994 77.038,34.668 77.175,34.601 C77.175,34.601 78.125,34.581 78.378,34.589 C78.577,34.589 78.591,33.985 78.396,33.985 C78.05,33.979 77.284,33.911 77.24,33.774 C77.126,33.461 77.267,32.447 77.463,32.036 C77.666,31.62 77.279,31.438 77.126,31.844 C76.97,32.276 75.973,33.324 74.959,33.823 Z M69.507,34.822 C69.831,34.327 70.036,34.231 70.294,34.231 C70.528,34.245 71.432,34.866 71.385,35.284 C71.429,35.556 71.438,36.122 71.436,36.7 C70.76,36.782 70.283,36.859 69.525,36.22 C69.385,36.107 69.347,35.08 69.507,34.822 Z M69.914,37.055 C70.411,37.332 70.661,37.161 71.432,37.077 C71.428,37.563 71.415,38 71.413,38.233 C71.074,38.476 70.656,38.689 70.175,38.926 C69.793,38.611 69.235,38.344 69.914,37.055 Z M69.292,36.603 C68.873,36.997 68.127,38.02 68.144,38.775 C68.156,39.547 68.528,40.29 68.975,40.707 C69.739,40.173 70.216,39.44 71.486,38.95 C71.643,39.543 72.061,39.634 72.556,40.007 C72.854,39.684 73.933,38.357 74.171,38.126 C74.411,37.899 74.273,37.665 73.933,37.899 C73.593,38.126 73.359,37.986 72.791,37.375 C72.811,37.044 72.753,34.337 72.884,34.186 C72.366,33.628 71.889,32.868 71.277,32.925 C70.387,32.999 69.255,34.551 68.975,34.954 C68.751,35.244 68.985,36.356 69.152,36.495 C69.211,36.55 69.24,36.555 69.292,36.603 Z M64.098,31.457 C64.127,32.188 64.395,38.484 64.316,39.358 C64.266,39.858 64.935,40.387 65.547,40.804 C65.845,40.444 66.491,39.503 67.026,39.107 C67.341,38.849 67.123,38.679 66.88,38.775 C66.398,38.999 65.912,38.824 65.865,38.267 C65.821,37.709 65.821,32.292 65.865,31.51 C65.493,31.51 64.447,31.49 64.098,31.457 Z M63.643,26.889 C63.671,29.463 64.695,29.681 65.865,30.355 C66.974,30.982 68.836,30.856 70.232,30.487 C70.762,30.333 71.048,30.301 71.031,30.758 C71.031,31.043 71.431,30.982 71.431,30.769 C71.431,30.559 71.45,28.4 71.45,28.162 C71.45,27.892 71.06,27.932 71.06,28.162 C71.06,28.522 71.06,28.629 70.706,29.143 C69.745,30.564 67.341,30.507 66.054,28.769 C65.613,28.177 65.213,27.386 65.723,27.236 C66.23,27.081 67.776,27.402 68.798,27.488 C69.412,27.528 70.826,27.672 71.003,27.774 C71.161,27.892 71.399,28.04 71.399,27.732 C71.413,27.43 71.413,26.438 71.413,26.131 C71.413,25.834 71.183,25.977 71.01,26.082 C70.835,26.204 69.327,26.456 68.723,26.562 C68.116,26.675 66.246,26.825 65.753,26.658 C65.25,26.491 65.418,25.481 65.865,24.903 C67.169,23.179 69.801,23.299 70.752,24.733 C71.08,25.232 71.08,25.35 71.08,25.725 C71.08,25.95 71.458,25.977 71.458,25.725 C71.48,25.481 71.489,22.876 71.489,22.667 C71.489,22.464 71.107,22.39 71.107,22.667 C71.107,22.857 70.688,22.968 70.276,22.857 C69.459,22.6 67.077,22.968 66.015,23.55 C65.073,24.088 63.624,25.33 63.643,26.889 Z M73.77,11.929 C73.286,11.871 71.683,12.006 71.106,12.097 C70.528,12.185 70.528,12.466 71.01,12.525 C71.489,12.574 71.581,12.675 71.834,13.321 C72.065,13.97 70.91,16.916 70.622,17.609 C70.284,17.104 69.059,14.409 69.059,14.044 C69.059,13.782 69.599,13.519 69.831,13.457 C70.284,13.317 70.275,13.006 69.932,12.939 C68.974,12.803 65.599,12.506 65.002,12.432 C64.572,12.395 64.375,12.894 64.898,12.894 C65.439,12.909 66.001,12.748 66.592,13.613 C67.273,14.593 69.412,19.191 69.923,21.124 C70.174,20.718 72.309,14.529 72.432,13.874 C72.585,13.233 73.036,12.608 73.664,12.422 C74.31,12.248 74.251,11.972 73.77,11.929 Z M76.662,13.051 L77.296,12.501 L77.296,11.618 L76.441,10.789 L75.593,11.511 L75.613,12.529 L76.139,13.051 L76.662,13.051 Z M77.638,21.121 L78.765,19.656 C77.947,19.515 77.61,19.364 77.039,18.714 L77.062,15.079 L75.91,13.928 L75.517,13.971 L73.711,15.557 C73.524,15.833 74.01,15.833 74.251,15.504 L75.561,16.255 L75.619,19.773 C75.72,20.193 76.067,20.601 76.588,21.121 L77.638,21.121 Z M85.132,14.887 C84.787,14.887 82.48,14.936 82.421,14.805 C82.252,14.311 82.209,13.71 82.606,12.874 C82.803,12.457 82.421,12.283 82.272,12.702 C82.126,13.111 80.971,14.708 79.771,15.222 C79.154,15.465 80.524,16.033 80.429,16.007 C80.422,17.544 80.643,19.85 80.971,20.773 C81.174,21.323 81.799,22.217 82.229,21.944 C82.507,21.769 83.11,20.573 83.3,20.421 C83.633,20.15 83.308,19.689 83.03,19.966 C82.721,20.236 82.459,19.815 82.374,19.534 C82.272,19.261 81.989,15.88 82.132,15.815 C82.132,15.815 84.86,15.484 85.132,15.484 C85.318,15.484 85.327,14.887 85.132,14.887 Z M89.327,21.45 C88.953,21.47 88.625,21.57 88.147,21.799 C87.755,21.48 86.734,20.247 87.486,18.87 C87.383,18.808 87.275,18.753 87.174,18.69 C87.867,19.078 88.675,19.418 89.312,19.622 C89.306,20.17 89.29,20.664 89.29,20.844 C89.288,21.077 89.306,21.266 89.327,21.45 Z M89.316,19.287 C88.597,19.03 87.181,18.364 86.666,17.939 C86.529,17.831 86.516,17.769 86.683,17.502 C87.011,17.016 87.383,16.59 87.643,16.61 C87.867,16.61 89.308,17.381 89.262,17.787 C89.312,18.074 89.321,18.68 89.316,19.287 Z M90.195,22.968 L91.654,21.373 C91.654,21.373 91.006,20.864 90.621,20.392 C90.621,20.058 90.621,16.863 90.762,16.691 C89.664,15.712 88.863,15.589 88.391,15.651 C87.502,15.785 86.592,16.924 86.304,17.306 C86.093,17.608 86.147,17.987 86.304,18.128 C86.481,18.273 86.71,18.419 86.952,18.564 C86.912,18.539 86.873,18.515 86.831,18.497 C86.415,18.889 85.809,20.016 85.829,20.78 C85.837,21.548 86.529,22.663 86.994,23.08 C87.509,22.682 88.27,22.016 89.388,21.799 C89.511,22.337 89.768,22.663 90.195,22.968 Z M90.246,31.412 C89.87,31.229 88.498,30.171 88.185,29.361 C87.774,28.269 87.774,27.062 88.935,26.354 C89.843,26.688 90.9,27.58 90.995,28.4 C91.125,29.463 90.818,30.723 90.246,31.412 Z M91.478,30.982 C91.877,30.261 92.464,29.094 92.426,28.207 C92.373,27.115 91.703,25.495 90.102,24.962 C88.072,25.684 86.817,27.286 86.761,29.181 C86.723,30.289 87.667,32.573 89.614,32.586 C90.213,32.009 90.848,31.398 91.478,30.982 Z M93.396,36.503 C93.155,36.22 92.505,35.681 91.922,35.269 C91.588,35.545 90.9,36.044 90.461,36.273 C90.135,35.904 89.702,35.395 89.04,34.881 C88.642,35.153 87.495,36.201 87.01,36.477 C87.709,36.495 88.751,36.726 88.789,37.375 C88.813,37.902 88.751,41.188 88.789,41.789 C89.216,41.88 89.722,41.837 90.344,41.802 C90.374,41.337 90.363,37.548 90.374,37.088 C90.583,36.972 90.828,36.855 90.95,36.748 C91.19,36.927 91.922,37.768 92.347,37.994 C92.636,37.773 93.396,37.107 93.73,36.793 C94.082,36.443 93.701,36.22 93.396,36.503 Z M93.396,29.556 C93.657,29.634 94.134,29.705 94.623,29.74 C94.931,29.779 94.83,29.264 94.594,29.167 C94.354,29.081 93.825,28.979 93.498,28.973 C93.145,28.973 92.98,29.43 93.396,29.556 Z M94.635,28.031 C94.382,27.936 93.852,27.838 93.516,27.838 C93.181,27.838 93.002,28.314 93.419,28.425 C93.684,28.499 94.179,28.586 94.653,28.608 C94.977,28.638 94.872,28.131 94.635,28.031 Z M102.939,108.629 C102.292,111.807 101.196,114.751 99.284,117.487 C97.945,119.426 97.401,115.655 98.554,112.004 C100.191,111.352 101.828,110.083 102.939,108.629 Z M101.118,109.268 C96.847,113.487 90.444,111.959 85.397,114.217 C80.824,115.885 77.511,120.114 72.715,121.182 C71.305,121.637 71.073,122.342 71.972,122.319 C72.498,122.303 75.421,125.354 80.098,123.002 C81.659,122.217 86.511,119.514 87.331,119.36 C84.705,121.86 83.387,124.094 81.04,125.415 C79.604,126.219 73.754,128.315 67.918,127.182 C65.333,126.678 63.343,129.063 64.002,129.008 C65.386,128.639 66.937,128.827 67.87,130.049 C69.564,131.376 72.018,133.03 74.129,130.565 C74.83,129.749 78.18,128.008 81.329,131.204 C77.98,131.028 78.312,137.051 71.967,136.344 C69.617,136.329 64.428,130.956 62.95,132.616 C60.327,135.563 68.585,138.36 65.009,142.067 C61.78,145.415 57.92,139.401 57.92,139.401 C59.936,140.247 63.655,140.79 62.017,137.514 C61.367,136.213 60.131,135.043 60.131,132.637 C59.848,131.44 52.456,142.157 47.567,137.315 C45.645,135.413 41.755,131.241 38.23,129.653 C47.564,128.858 48.986,132.594 49.432,133.194 C52.417,137.221 55.176,133.131 55.812,132.415 C56.785,131.307 58.16,129.784 57.672,129.553 C54.052,127.836 49.916,127.471 46.826,128.889 C53.441,119.797 58.588,128.311 58.587,128.309 C59.311,128.76 58.401,122.918 51.859,122.594 C47.773,122.393 44.177,126.071 41.359,126.067 C39.068,126.063 32.122,121.372 30.489,117.206 C34.53,120.229 39.686,121.965 42.899,120.049 C48.939,116.448 56.548,121.877 56.91,121.229 C55.221,119.909 51.378,114.756 41.005,117.694 C36.981,120.004 35.285,115.979 32.813,115.911 C37.017,112.18 39.931,114.079 41.4,114.192 C41.749,114.192 39.647,112.463 38.173,112.307 C26.711,111.116 19.45,107.963 19.45,107.963 C19.391,107.963 20.405,105.653 25.332,107.319 C25.332,107.319 20.914,104.614 20.951,101.137 C21.094,98.995 22.131,96.7 20.492,94.915 C27.144,94.641 22.419,103.918 27.09,106.309 C27.189,106.348 25.714,104.092 27.793,102.344 C28.758,105.069 31.133,106.477 32.804,106.918 C33.196,106.704 33.68,105.868 33.68,105.87 C31.922,102.963 31.692,99.577 32.164,95.698 L32.234,95.659 C32.612,95.676 33.253,96.993 33.702,97.96 C34.672,100.045 34.648,103.047 36.582,105.522 C37.652,106.885 38.315,108.247 39.276,108.907 C39.69,107.94 39.383,106.28 39.319,105.838 C39.101,104.262 38.113,101.502 40.807,99.065 C42.067,102.702 43.78,101.647 44.013,103.391 C44.334,105.834 44.227,105.446 43.978,107.321 C44.106,109.907 46.455,110.633 48.54,112.286 C53.243,114.844 56.364,116.229 58.41,119.506 C59.409,113.977 44.485,112.872 46.409,102.202 C46.209,97.94 46.94,97.583 43.92,94.981 C49.909,95.157 53.171,104.987 53.497,106.78 C54.096,110.077 56.098,110.249 58.846,114.547 C59.242,114.692 53.932,103.094 60.262,93.165 C60.262,93.165 62.395,98.323 61.389,101.706 C60.782,103.743 61.345,105.997 61.458,107.274 C61.574,108.577 61.198,102.569 65.72,99.46 C66.001,101.733 68.181,105.254 66.115,109.028 C63.604,113.62 63.42,111.969 63.383,117.616 C63.61,117.518 64.26,113.723 65.984,111.569 C69.625,107.016 67.024,104.567 70.579,100.622 C70.861,102.594 71.364,101.813 71.577,103.571 C72.054,107.514 67.935,111.829 68.846,111.698 C69.894,111.549 71.577,110.637 72.14,107.645 C72.14,107.645 73.658,110.377 72.27,111.288 C69.757,112.936 69.235,114.711 69.625,116.706 C71.642,114.299 74.394,111.633 73.918,108.208 C74.145,106.139 76.387,105.301 76.833,100.497 C76.908,99.7 77.704,98.733 78.499,98.309 C78.151,101.008 80.248,103.799 77.864,107.102 C78.407,107.393 80.424,104.526 83.371,105.571 C77.456,106.637 79.182,113.045 74.649,116.012 C73.283,116.907 73.517,117.911 73.108,118.024 C77.155,117.795 80.274,112.975 80.814,112.608 C84.883,109.858 85.773,109.436 87.399,104.977 C88.035,103.282 87.573,102.532 89.827,100.245 C90.816,102.501 89.379,107.174 89.038,108.182 C88.309,110.334 85.751,112.198 86.293,112.198 C97.197,107.385 97.06,104.155 99.668,100.708 C100.451,99.391 104.33,97.106 105.781,96.893 C105.427,97.612 103.919,98.821 103.849,100.126 C103.717,102.536 102.938,104.006 101.72,105.94 C102.399,106.78 103.699,104.352 105.03,105.571 C103.27,106.155 102.485,108.116 101.118,109.268 Z M91.133,105.846 C91.448,104.715 91.449,103.936 91.595,102.94 C91.659,102.512 91.669,102.563 91.689,102.204 C91.696,102.084 94.771,104.762 94.943,104.872 C94.171,105.838 93.511,106.184 92.775,106.87 C92.254,106.42 91.103,105.956 91.133,105.846 Z M92.066,107.516 C90.644,108.764 89.716,109.208 90.026,108.588 C90.372,107.897 90.628,107.311 90.821,106.795 C90.887,106.624 92.066,107.516 92.066,107.516 Z M106.001,95.422 C104.701,95.76 101.272,97.129 100.445,98.475 C100.884,91.063 98.49,83.784 97.728,82.026 C96.242,78.6 98.392,89.997 98.539,92.622 C98.543,92.739 86.238,76.809 93.668,89.077 C95.592,92.256 98.6,94.333 98.602,94.385 C98.653,96.598 98.504,98.225 98.083,99.413 C97.327,100.016 81.33,78.124 90.172,93.286 C91.268,95.167 97.683,100.856 97.63,100.971 C97.224,101.834 96.504,103.092 95.509,104.02 C95.34,103.852 91.819,101.254 91.794,101.096 C91.528,99.405 91.518,97.805 89.427,99.004 C89.427,99.004 81.546,89.829 85.196,96.258 C86.791,99.071 87.837,99.381 88.263,99.881 C88.263,99.881 87.04,101.54 86.647,103.299 C86.488,104.004 79.813,95.899 82.432,100.991 C83.271,102.622 86.324,104.403 86.291,104.518 C85.978,105.579 85.661,106.606 85.328,107.274 C84.907,108.12 79.047,112.792 79.055,112.788006 C79.055,112.786 80.201,109.086 82.692,107.274 C84.115,106.233 84.119,106.461 85.061,105.87 C85.042,105.323 84.515,104.43 83.832,104.194 C82.977,103.891 80.203,104.395 80.203,104.395 C80.463,103.008 79.248,100.016 79.264,96.725 C78.22,96.829 76.387,98.444 75.944,99.362 C75.623,104.813 74.438,103.18 73.33,107.102 C72.125,105.458 73.414,103.094 72.233,101.555 C70.607,99.438 70.361,98.01 70.122,95.405 C70.501,95.194 72.16,93.362 70.65,89.518 C70.404,83.477 73.102,81.169 68.276,76.942 C68.683,76.811 68.974,73.784 68.974,73.78 C72.53,75.676 71.825,71.585 73.21,70.782 C75.409,69.504 75.011,68.182 74.023,66.534 C80.312,68.323 73.739,72.622 76.585,72.715 C78.65,72.778 80.034,72.254 80.93,70.866 C81.886,69.399 80.766,68.499 83.434,66.12 C83.7,65.881 84.407,64.294 82.292,63.858 C81.829,63.76 82.296,61.952 82.296,61.952 C80.602,63.385 80.069,65.405 77.346,64.128 C75.952,63.471 75.047,64.116 74.477,64.391 C74.477,64.391 74.187,63.253 75.34,62.868 C78.321,61.866 79.057,60.676 78.894,60.026 C78.492,58.477 78.37,60.026 78.457,58.395 C78.494,57.747 79.248,56.866 79.872,56.112 C81.894,53.673 83.324,54.588 83.84,54.804 C85.015,53.896 85.222,53.959 86.316,53.527 C88.187,52.792 92.243,54.014 94.509,55.066 C95.608,55.563 96.921,55.862 98.204,55.579 C98.191,56.241 97.728,56.596 97.267,56.729 C96.56,56.95 95.716,56.729 95.771,57.247 C95.804,57.549 96.773,57.602 97.379,57.766 C100.737,58.684 105.086,61.694 102.231,61.059 C101.894,60.985 104.29,62.85 106.099,65.276 L112.504,71.499 C112.209,71.852 109.963,71.532 102.85,64.866 C101.839,65.768 111.502,73.051 115.491,80.782 C115.146,81.022 110.175,79.211 108.382,77.364 C105.621,74.506 102.447,67.243 101.142,68.305 C100.985,68.366 106.393,76.786 109.065,81.78 C110.415,84.307 111.524,87.928 111.616,90.657 C112.044,104.108 110.019,103.075 110.02,103.077 C106.869,92.473 105.394,80.163 100.796,74.483 C98.96,72.213 105.71,84.419 106.001,95.422 Z M110.972,23.343 C110.943,23.137 110.9,22.821 110.837,22.375 C110.74,21.679 108.744,21.277 107.334,21.893 C105.36,22.755 100.417,25.577 98.614,25.044 L98.614,18.09 C103.063,20.02 104.801,18.277 106.231,18.277 C110.624,18.277 110.845,22.375 110.845,22.375 C110.902,22.821 110.944,23.137 110.972,23.343 Z M106.405,32.864 C110.263,32.301 110.845,36.854 110.845,36.854 L110.837,36.854 C109.887,36.099 107.978,35.757 106.684,36.591 C102.374,39.366 98.489,39.398 98.489,39.398 L98.489,32.443 C98.489,32.443 99.309,33.9 106.405,32.864 Z M97.187,46.993 C90.187,47.47 75.663,43.485 71.971,43.485 C64.352,43.485 60.668,46.459 60.668,46.459 C60.668,46.459 60.678,11.877 60.668,10.632 C60.668,10.632 70.678,5.938 77.961,8.626 C86.88,11.918 97.187,10.46 97.187,10.46 L97.187,46.993 Z M68.183,52.389 C68.415,53.776 67.129,54.123 67.133,54.122 C69.131,54.589 70.086,53.4 70.476,52.649 C71.244,55.84 68.027,56.02 67.024,56.211 C67.022,56.211 68.654,56.68 68.739,57.743 C68.952,60.442 70.687,60.211 71.061,59.999 C71,60.325 70.464,61.954 68.513,60.483 C68.183,60.809 69.045,61.313 69.216,62.653 C69.436,64.346 69.382,65.917 71.338,66.95 C70.139,67.903 68.726,65.42 68.603,65.717 C68.464,66.049 70.269,66.961 68.283,71.645 C67.376,71.124 67.881,71.223 66.831,69.975 C66.027,69.301 65.71,69.149 66.381,70.258 C67.554,71.723 67.83,75.073 67.426,75.975 C66.459,75.555 66.708,74.784 65.568,73.733 C65.464,74.18 65.918,76.401 67.096,77.463 C69.131,79.299 69.851,81.518 69.889,81.956 C70.05,83.626 69.525,85.825 69.327,87.975 C68.351,87.835 67.521,85.063 67.285,85.219 C66.996,85.407 67.408,87.932 69.248,89.653 C70.139,92.256 69.781,93.655 69.544,93.749 C69.23,93.883 68.238,91.086 67.698,91.573 C70.318,98.239 68.484,100.561 67.792,102.616 C67.25,100.51 66.976,98.934 66.298,96.549 C64.869,97.67 64.527,99.333 62.78,100.854 C62.78,98.135 61.208,91.571 59.963,90.042 C59.905,89.971 57.711,95.926 56.711,98.575 C55.414,102.006 55.213,106.297 56.711,109.641 C53.476,105.04 53.129,96.473 55.921,95.319 C56.163,94.706 55.752,92.69 55.13,92.94 C54.952,93.926 55.071,94.768 54.254,95.731 C52.112,95.104 53.088,92.489 53.281,91.622 C56.06,88.29 54.323,87.518 54.193,87.606 C53.892,88.37 53.63,89.305 52.781,89.653 C50.998,86.588 52.141,81.78 55.527,78.186 C55.67,76.844 54.012,79.186 52.933,79.104 C52.651,76.518 53.589,72.034 58.37,71.87 C57.457,71.602 56.968,71.436 56.747,70.674 C58.193,70.46 62.726,70.114 61.977,66.538 C61.548,66.967 61.411,67.61 60.229,68.329 C59.435,68.813 58.57,68.854 58.12,68.155 C60.222,67.46 59.528,64.901 56.783,65.653 C55.941,65.883 54.711,65.004 54.651,64.03 C55.262,64.641 56.501,64.188 57.216,63.723 C60.305,61.715 62.191,64.624 62.607,65.249 C62.732,65.249 63.994,62.342 59.608,61.561 C59.242,60.54 58.239,58.735 55.262,58.961 C54.281,55.501 51.313,57.208 51.411,58.774 C48.257,56.452 51.465,53.521 52.739,53.069 C53.622,53.142 53.427,55.938 54.977,55.467 C55.352,55.356 53.772,53.542 54.377,52.719 C55.8,51.907 55.768,53.76 56.469,53.069 C56.817,51.856 58.212,51.177 59.361,51.047 C62.585,50.589 65.091,54.122 68.183,52.389 Z M58.989,46.43 C58.989,46.43 54.244,43.856 48.673,43.485 C43.287,43.127 32.405,47.43 24.051,46.862 L24.051,10.148 C24.051,10.148 33.578,11.414 37.491,9.904 C50.798,4.772 58.989,10.506 58.989,10.506 L58.989,46.43 Z M17.821,38.746 L22.355,38.746 L22.355,34.286 L17.821,34.286 L17.821,38.746 Z M17.821,23.208 L22.355,23.208 L22.355,18.748 L17.821,18.748 L17.821,23.208 Z M12.485,40.035 C7.165,40.035 7.165,32.24 12.485,32.24 C17.602,32.24 17.634,40.035 12.485,40.035 Z M12.485,24.459 C7.284,24.459 7.393,16.659 12.485,16.659 C17.602,16.659 17.602,24.459 12.485,24.459 Z M46.762,60.876 C45.812,59.254 47.896,57.708 47.896,57.708 C47.833,62.266 53.66,59.137 56.703,60.586 C57.434,60.922 57.947,61.565 58.248,62.243 C54.977,59.981 48.93,64.577 46.762,60.876 Z M31.011,99.481 C31.036,101.043 30.925,102.2 31.38,103.788 C32.119,106.184 31.748,105.446 30.742,104.622 C29.942,103.733 29.194,103.001 28.81,101.961 C28.715,101.223 29.309,101.182 31.011,99.481 Z M19.277,67.258 L19.188,67.17 C19.081,67.17 11.615,71.881 6.764,69.62 C10.378,67.622 22.896,59.667 26.32,57.411 C27.935,57.758 28.589,57.176 29.105,56.817 C27.796,56.897 23.46,57.575 25.652,53.694 C26.495,57.172 32.577,53.972 34.759,53.47 C40.844,52.069 40.8,58.573 40.281,61.26 C40.087,62.262 42.145,62.973 43.158,62.829 C41.415,67.126 38.437,63.075 38.083,64.713 C37.938,65.378 35.945,65.899 35.954,67.549 C35.966,69.805 36.848,68.573 36.929,70.321 C37.018,72.014 36.206,70.696 36.39,72.528 C36.682,75.436 41.494,72.141 43.481,72.928 C44.476,73.321 45.135,74.211 46.105,74.036 C46.388,73.803 46.26,72.704 46.217,72.311 C46.115,71.387 44.407,71.28 43.611,70.018 C42.918,68.919 44.397,65.61 45.197,64.637 C46.345,70.1 51.465,68.387 52.229,74.131 C52.712,75.756 50.47,77.561 52.288,80.206 C50.937,81.516 49.314,87.735 52.141,90.657 C51.661,91.979 51.032,95.032 53.547,96.813 C52.702,98.616 52.895,100.819 53.608,103.061 C52.042,103.067 52.353,94.274 42.965,93.995 C42.755,93.928 42.704,94.991 42.974,95.467 C44.099,97.444 45.61,97.329 45.286,101.979 C45.175,103.571 44.242,101.702 43.744,101.262 C42.607,100.258 41.728,100.124 41.234,96.852 C37.418,99.842 37.793,103.463 38.032,105.303 C38.034,105.307 37.19,103.008 36.227,100.651 C36.176,100.526 40.101,95.803 40.726,94.68 C48.647,80.422 35.611,99.29 35.583,99.225 C34.882,97.6 34.269,96.2 33.856,95.756 C33.957,95.559 36.132,93.133 37.115,91.086 C43.242,78.329 33.474,95.335 33.125,95.022 C32.387,94.358 31.777,93.526 31.31,93.825 C31.2,95.784 30.732,95.518 30.867,97.518 C29.846,98.881 27.655,101.024 26.123,102.084 C26.123,102.084 25.741,98.544 25.843,98.419 C26.613,97.481 29.626,94.253 30.242,93.286 C40.281,77.518 25.541,97.085 25.514,96.917 C25.41,96.294 24.602,95.264 23.742,94.385 C23.742,94.385 26.998,89.95 27.799,88.301 C33.908,75.741 22.889,93.868 22.767,93.801 C22.502,93.663 22.475,93.667 22.168,93.561 C21.861,93.458 22.505,89.944 22.93,87.829 C23.757,83.643 21.539,87.016 20.935,93.647 C20.37,93.737 18.994,93.879 18.474,94.352 C18.81,96.122 19.229,94.76 19.971,96.461 C20.858,98.499 18.734,101.838 20.583,104.284 C21.297,105.227 21.339,105.069 21.198,105.688 C20.061,105.606 19.37,105.584 18.651,106.567 C17.253,100.215 17.297,97.157 17.624,90.702 C17.77,87.766 18.734,83.327 18.294,83.243 C17.875,83.163 11.223,100.293 9.618,103.651 C6.812,102.704 11.364,87.878 17.148,80.741 C17.693,78.471 14.116,83.044 11.979,84.864 C10.02,86.534 7.54,88.711 4.839,87.965 C8.308,84.295 16.263,77.43 17.148,75.715 C17.889,74.245 11.721,80.292 5.203,78.044 C9.42,75.784 19.26,70.76 19.277,67.258 Z M19.21,108.973 C20.299,109.711 21.582,110.038 22.758,110.54 C24.214,114.348 22.793,118.092 21.975,116.54 C20.541,113.817 19.976,111.557 19.21,108.973 Z M119.642,87.79 L119.637,2.923 C51.459,-3.651 -0.000444444444,2.923 -0.000444444444,2.923 C-0.000444444444,2.923 -0.000444444444,87.784 -0.000444444444,87.803 C5.434,145.333 59.315,152.09 59.827,152.000771 C69.451,150.262 114.624,141.178 119.642,87.79 Z M151.325,108.348 C151.325,124.063 158.879,135.151 168.626,141.854 C177.52,147.823 187.999,150.016 198.964,150.016 C206.762,150.016 215.534,148.188 218.214,147.213 C219.555,146.727 221.018,146.241 222.478,145.995 C224.306,143.68 227.474,135.639 228.327,129.303 C227.838,128.452 226.012,128.208 225.16,128.815 C222.356,136.004 215.412,146.241 199.695,146.241 C179.713,146.241 163.509,132.104 163.509,106.52 C163.509,81.299 179.348,69.481 197.989,69.481 C215.655,69.481 221.139,78.983 222.966,87.27 C223.818,87.999 225.647,87.878 226.255,87.026 C225.281,79.594 224.671,71.919 224.55,69.116 C223.453,69.237 222.601,68.993 221.139,68.629 C215.412,67.045 206.152,65.706 199.572,65.706 C186.902,65.706 175.571,69.116 166.677,76.059 C157.417,83.249 151.325,94.825 151.325,108.348 Z M185.906,2.824 L185.944,2.68 L185.877,2.546 C185.682,2.162 185.115,2.131 184.946,2.131 C184.819,2.131 184.633,2.146 184.469,2.211 L184.344,2.262 L184.276,2.378 C183.622,3.51 183.352,3.602 180.654,3.602 L159.667,3.602 C157.394,3.602 156.376,3.483 156.162,2.347 L156.139,2.228 L156.053,2.143 C155.912,2.001 155.683,1.934 155.353,1.934 C155.232,1.934 154.82,1.945 154.596,2.095 L154.458,2.188 L154.43,2.352 C154.074,4.373 153.324,7.582 152.517,9.854 L152.461,10.011 L152.536,10.159 C152.84,10.771 153.882,11.067 154.439,10.65 L154.521,10.589 L154.562,10.495 C155.077,9.323 155.563,8.216 156.752,7.122 C157.87,6.095 160.403,5.956 162.734,5.956 L165.525,5.956 C166.659,5.956 166.659,5.956 166.659,7.189 L166.659,29.886 C166.659,35.386 166.343,35.626 163.869,35.843 L162.042,35.995 L161.869,36.051 C161.567,36.237 161.398,36.615 161.417,37.064 C161.432,37.406 161.567,37.832 161.899,37.998 L161.987,38.043 L162.085,38.039 C165.194,37.945 167.071,37.888 169.129,37.888 C171.111,37.888 172.75,37.936 175.769,38.039 L175.868,38.043 L175.956,37.998 C176.288,37.832 176.431,37.379 176.453,37.012 C176.479,36.573 176.349,36.225 176.096,36.058 L174.291,35.843 C171.752,35.624 171.601,35.29 171.601,29.886 L171.601,7.135 C171.601,6.616 171.6,6.126 171.684,6.042 C171.77,5.956 172.32,5.956 172.685,5.956 L176.287,5.956 C179.008,5.956 180.858,6.346 181.946,7.15 C182.427,7.502 182.843,8.788 183.059,10.588 L183.073,10.702 L183.146,10.79 C183.332,11.016 183.676,11.151 184.066,11.151 C184.548,11.151 184.95,10.944 185.115,10.611 L185.164,10.512 L185.153,10.4 C185.008,8.938 185.36,4.849 185.906,2.824 Z M227.647,29.886 L227.647,11.61 C227.647,6.202 227.799,5.865 230.34,5.6 L231.402,5.499 L231.581,5.436 C231.835,5.268 231.965,4.918 231.938,4.476 C231.927,4.297 231.858,3.699 231.441,3.492 L231.351,3.447 L231.25,3.452 C228.796,3.56 227.121,3.602 225.274,3.602 C223.074,3.602 221.3,3.544 219.151,3.452 L219.052,3.447 L218.962,3.491 C218.544,3.697 218.474,4.292 218.461,4.47 C218.432,4.914 218.561,5.265 218.814,5.435 L219.956,5.599 C222.549,5.866 222.703,6.203 222.703,11.61 L222.703,17.446 C222.703,18.681 222.703,18.681 220.555,18.681 L206.035,18.681 C203.887,18.681 203.887,18.681 203.887,17.446 L203.887,11.61 C203.887,6.202 204.039,5.866 206.584,5.599 L207.547,5.499 L207.724,5.435 C207.978,5.266 208.107,4.915 208.078,4.471 C208.066,4.293 207.996,3.697 207.578,3.491 L207.488,3.447 L207.388,3.452 C205.077,3.559 203.375,3.602 201.516,3.602 C200.191,3.602 199.035,3.564 197.772,3.524 C196.959,3.499 196.103,3.471 195.13,3.451 L195.035,3.449 L194.95,3.491 C194.533,3.696 194.461,4.289 194.449,4.466 C194.419,4.911 194.547,5.264 194.801,5.435 L194.886,5.492 L196.309,5.601 C198.546,5.772 198.944,6.233 198.944,11.61 L198.944,29.886 C198.944,35.171 198.846,35.394 196.322,35.848 L195.339,36.02 L195.252,36.107 C194.961,36.396 194.918,36.869 194.974,37.217 C195.034,37.592 195.209,37.877 195.453,37.998 L195.54,38.041 L195.637,38.039 C196.335,38.023 197.001,37.999 197.667,37.975 C198.867,37.932 200.108,37.888 201.516,37.888 C203.424,37.888 205.043,37.935 207.953,38.039 L208.052,38.043 L208.141,37.998 C208.473,37.832 208.615,37.379 208.637,37.011 C208.663,36.572 208.533,36.224 208.279,36.058 L206.634,35.844 C204.199,35.581 203.887,35.337 203.887,29.886 L203.887,22.725 C203.887,21.493 203.887,21.493 206.035,21.493 L220.555,21.493 C222.703,21.493 222.703,21.493 222.703,22.725 L222.703,29.886 C222.703,35.287 222.651,35.398 219.936,35.846 L218.845,36.017 L218.755,36.107 C218.465,36.398 218.423,36.873 218.48,37.22 C218.542,37.594 218.717,37.878 218.961,37.999 L219.051,38.044 L219.151,38.039 C221.582,37.932 223.355,37.888 225.274,37.888 C227.275,37.888 229.037,37.943 231.402,38.039 L231.501,38.043 L231.59,37.999 C232.009,37.793 232.08,37.197 232.091,37.02 C232.12,36.578 231.991,36.227 231.737,36.059 L230.35,35.845 C227.774,35.533 227.647,35.254 227.647,29.886 Z M270.077,30.671 L270.102,30.549 L270.051,30.435 C269.832,29.946 269.293,29.728 268.856,29.728 C268.605,29.728 268.378,29.795 268.2,29.922 L268.078,30.066 C266.622,32.973 265.312,34.445 264.647,34.814 C263.555,35.359 262.018,35.535 258.322,35.535 C254.094,35.535 253.004,35.029 252.465,34.491 C251.747,33.725 251.606,32.073 251.606,29.478 L251.606,22.321 C251.606,21.338 251.606,21.338 252.892,21.338 L255.837,21.338 C257.609,21.338 258.934,21.379 259.65,21.581 C260.356,21.757 260.718,22.216 260.939,23.221 L261.395,25.197 L261.475,25.358 C261.664,25.588 262.02,25.726 262.426,25.726 C262.889,25.726 263.267,25.55 263.435,25.257 L263.487,25.168 L263.487,25.063 C263.487,24.567 263.447,23.912 263.403,23.177 C263.347,22.252 263.283,21.203 263.283,20.187 C263.283,19.125 263.346,18.038 263.401,17.08 C263.447,16.304 263.487,15.607 263.487,15.061 L263.487,14.958 L263.436,14.868 C263.267,14.572 262.889,14.396 262.424,14.396 C262.019,14.396 261.664,14.533 261.475,14.763 L260.986,17.017 C260.756,18.177 260.471,18.35 260.027,18.497 C259.485,18.679 257.958,18.783 255.837,18.783 L252.892,18.783 C251.606,18.783 251.606,18.783 251.606,17.75 L251.606,7.597 C251.606,5.956 251.606,5.956 252.739,5.956 L256.395,5.956 C258.551,5.956 260.198,6.006 261.225,6.251 C263.541,6.83 264.005,8.294 264.71,10.51 L264.807,10.814 L264.877,10.943 C265.05,11.153 265.344,11.269 265.703,11.269 C266.053,11.269 266.543,11.149 266.769,10.813 L266.845,10.698 L266.778,9.948 C266.514,6.992 266.274,4.482 266.001,3.711 L265.883,3.378 L265.54,3.462 C264.976,3.602 261.826,3.602 258.78,3.602 L249.235,3.602 C247.28,3.602 245.607,3.56 243.266,3.452 L243.166,3.447 L243.076,3.491 C242.658,3.696 242.587,4.291 242.575,4.468 C242.545,4.913 242.673,5.265 242.927,5.435 L243.912,5.599 C246.51,5.906 246.665,6.244 246.665,11.61 L246.665,29.886 C246.665,35.386 246.348,35.626 243.871,35.843 L242.057,36.007 L241.957,36.107 C241.667,36.396 241.623,36.869 241.679,37.216 C241.739,37.592 241.914,37.877 242.158,37.998 L242.246,38.043 L242.345,38.039 C245.279,37.943 247.045,37.888 249.235,37.888 L253.806,37.888 C258.233,37.888 262.681,37.937 267.403,38.039 L267.654,38.045 L267.763,37.818 C268.444,36.4 269.721,32.46 270.077,30.671 Z M274.991,70.335 C275.721,69.844 275.478,67.653 274.747,67.29 C269.508,67.532 265.366,67.653 260.615,67.653 C255.375,67.653 251.232,67.411 245.262,67.29 C244.53,67.653 244.287,69.844 245.019,70.335 L248.186,70.579 C254.523,71.065 255.375,73.137 255.375,85.93 L255.375,129.792 C255.375,142.583 255.131,143.803 248.308,145.02 L246.238,145.385 C245.506,146.116 245.75,148.067 246.48,148.432 C251.232,148.311 255.375,148.067 260.615,148.067 C265.366,148.067 269.508,148.188 276.087,148.432 C276.819,148.067 277.062,145.872 276.331,145.385 L272.799,145.02 C265.976,144.29 265.366,142.583 265.366,129.792 L265.366,112.61 C265.366,108.958 265.609,108.713 271.458,108.713 L306.303,108.713 C312.152,108.713 312.396,108.958 312.396,112.61 L312.396,129.792 C312.396,142.583 312.396,143.803 304.963,145.02 L302.648,145.385 C301.918,146.116 302.161,148.067 302.892,148.432 C308.253,148.188 312.641,148.067 317.634,148.067 C322.387,148.067 326.529,148.188 332.377,148.432 C333.107,148.067 333.351,145.872 332.621,145.385 L329.695,145.02 C322.629,144.167 322.387,142.583 322.387,129.792 L322.387,85.93 C322.387,73.137 322.629,71.307 329.695,70.579 L332.256,70.335 C332.986,69.844 332.742,67.653 332.012,67.29 C326.529,67.532 322.387,67.653 317.634,67.653 C312.641,67.653 308.496,67.532 302.892,67.29 C302.161,67.653 301.918,69.844 302.648,70.335 L304.963,70.579 C312.152,71.307 312.396,73.137 312.396,85.93 L312.396,99.94 C312.396,103.719 312.152,103.84 306.303,103.84 L271.458,103.84 C265.609,103.84 265.366,103.719 265.366,99.94 L265.366,85.93 C265.366,73.137 265.609,71.307 272.676,70.579 L274.991,70.335 Z M333.352,5.31 C333.576,5.038 333.683,4.619 333.621,4.242 C333.57,3.925 333.404,3.666 333.155,3.51 L333.051,3.445 L332.928,3.452 C331.163,3.549 329.795,3.602 327.619,3.602 C325.672,3.602 323.785,3.553 321.853,3.452 L321.723,3.445 L321.615,3.518 C321.381,3.674 321.219,3.963 321.17,4.309 C321.117,4.689 321.213,5.055 321.432,5.314 L321.537,5.438 L322.969,5.547 C324.133,5.643 324.926,5.954 325.197,6.42 C325.789,7.462 326.114,11.126 326.114,16.734 L326.114,22.575 C326.114,28.557 324.42,35.687 316.35,35.687 C309.583,35.687 306.432,31.504 306.432,22.522 L306.432,11.558 C306.432,6.159 306.608,5.766 309.12,5.547 L310.439,5.442 L310.523,5.385 C310.777,5.216 310.906,4.874 310.877,4.446 C310.854,4.092 310.711,3.655 310.379,3.491 L310.289,3.448 L310.19,3.452 C307.783,3.549 306.078,3.602 303.962,3.602 C301.877,3.602 300.082,3.547 297.684,3.452 L297.586,3.448 L297.497,3.491 C297.165,3.654 297.021,4.088 296.996,4.441 C296.967,4.87 297.095,5.214 297.348,5.384 L297.433,5.442 L298.803,5.547 C301.315,5.766 301.491,6.159 301.491,11.558 L301.491,23.537 C301.491,29.676 302.755,33.465 305.586,35.817 C307.822,37.73 311.102,38.7 315.335,38.7 C319.334,38.7 323.16,37.231 325.315,34.868 C327.777,32.232 328.973,28.177 328.973,22.472 L328.973,16.734 C328.973,14.161 328.973,8.133 329.65,6.54 C329.886,6.028 330.755,5.638 331.863,5.547 L333.246,5.437 L333.352,5.31 Z M378.863,5.385 C379.107,5.14 379.23,4.742 379.186,4.347 C379.144,3.985 378.964,3.681 378.693,3.511 L378.588,3.445 L378.463,3.452 C376.797,3.549 375.474,3.602 373.256,3.602 C371.465,3.602 369.79,3.56 367.283,3.452 L367.204,3.448 L367.131,3.476 C366.836,3.585 366.629,3.862 366.56,4.237 C366.478,4.691 366.614,5.15 366.91,5.406 L367,5.484 L367.979,5.598 C369.723,5.816 370.607,6.076 370.845,6.436 C371.451,7.395 371.8,11.148 371.8,16.734 L371.8,27.599 C371.8,28.09 371.8,28.659 371.768,29.049 C370.008,27.23 368.166,25.168 365.877,22.606 L358.815,14.682 C353.793,9.048 350.917,5.354 350.268,3.699 L350.154,3.409 L349.846,3.456 C349.236,3.548 348.406,3.602 347.567,3.602 C346.68,3.602 343.979,3.602 341.861,3.452 L341.754,3.445 L341.658,3.493 C341.389,3.629 341.201,3.908 341.145,4.259 C341.074,4.682 341.196,5.124 341.453,5.384 L341.55,5.482 L342.545,5.598 C343.899,5.767 344.908,6.149 345.452,6.694 C346.4,7.73 346.469,8.667 346.469,10.084 L346.469,25.217 C346.472,27.671 346.479,33.419 345.843,35.055 C345.725,35.315 345.293,35.662 343.922,35.844 L342.415,36.01 L342.318,36.107 C342.093,36.332 341.977,36.693 342.008,37.075 C342.041,37.457 342.207,37.782 342.469,37.967 L342.58,38.046 L342.716,38.039 C344.481,37.941 345.843,37.888 347.975,37.888 C349.693,37.888 351.41,37.932 353.898,38.039 L354.032,38.045 L354.141,37.967 C354.379,37.797 354.539,37.527 354.59,37.206 C354.647,36.834 354.553,36.449 354.33,36.15 L354.227,36.011 L352.473,35.843 C351.255,35.744 350.404,35.458 350.191,35.072 C349.645,34.107 349.331,30.348 349.331,24.756 L349.331,13.689 C349.331,12.78 349.347,11.812 349.438,11.123 C350.244,12.025 351.588,13.613 352.797,15.043 C353.626,16.024 354.394,16.932 354.891,17.502 L366.669,30.902 C370.582,35.356 372.457,37.566 373.141,38.535 L373.258,38.7 L373.46,38.7 C374.127,38.7 374.625,38.391 374.795,37.873 L374.821,37.792 L374.812,37.707 C374.743,37.116 374.662,35.103 374.662,28.87 L374.66,16.048 C374.651,13.447 374.634,8.035 375.381,6.452 C375.445,6.324 376.054,5.891 377.932,5.597 L378.771,5.479 L378.863,5.385 Z M372.581,129.547 L372.581,86.172 C372.581,73.258 372.824,71.186 380.013,70.579 L383.059,70.335 C383.789,69.844 383.545,67.653 382.814,67.29 C376.723,67.532 372.581,67.653 367.707,67.653 C362.59,67.653 358.447,67.532 352.355,67.29 C351.625,67.653 351.381,69.844 352.112,70.335 L355.158,70.579 C362.346,71.186 362.59,73.258 362.59,86.172 L362.59,129.547 C362.59,142.463 362.346,144.167 355.158,145.02 L352.112,145.385 C351.381,146.116 351.625,148.067 352.355,148.432 C358.447,148.188 362.59,148.067 367.707,148.067 C372.581,148.067 376.723,148.188 382.814,148.432 C383.545,148.067 383.789,145.872 383.059,145.385 L380.013,145.02 C372.824,144.167 372.581,142.463 372.581,129.547 Z M398.063,29.783 L398.063,11.71 C398.063,6.217 398.242,5.817 400.802,5.601 L402.172,5.492 L402.256,5.435 C402.51,5.266 402.639,4.914 402.609,4.469 C402.599,4.292 402.527,3.696 402.108,3.491 L402.021,3.448 L401.922,3.452 C399.523,3.547 397.728,3.602 395.643,3.602 C393.461,3.602 391.718,3.549 389.263,3.452 L389.164,3.448 L389.075,3.491 C388.656,3.697 388.586,4.294 388.574,4.472 C388.546,4.915 388.675,5.267 388.93,5.436 L389.014,5.492 L390.381,5.6 C392.942,5.817 393.122,6.217 393.122,11.71 L393.122,29.783 C393.122,35.248 392.992,35.532 390.368,35.844 L388.966,36.012 L388.87,36.107 C388.58,36.396 388.536,36.87 388.593,37.218 C388.654,37.593 388.829,37.878 389.074,37.999 L389.163,38.043 L389.263,38.039 C391.842,37.939 393.536,37.888 395.643,37.888 C397.651,37.888 399.398,37.941 401.922,38.039 L402.021,38.043 L402.109,37.999 C402.529,37.792 402.6,37.195 402.61,37.017 C402.639,36.576 402.509,36.226 402.255,36.058 L400.817,35.844 C398.191,35.532 398.063,35.248 398.063,29.783 Z M413.641,76.059 C404.38,83.249 398.287,94.825 398.287,108.348 C398.287,124.063 405.843,135.151 415.589,141.854 C424.484,147.823 434.961,150.016 445.928,150.016 C453.725,150.016 462.5,148.188 465.177,147.213 C466.519,146.727 467.98,146.241 469.442,145.995 C471.27,143.68 474.438,135.639 475.291,129.303 C474.805,128.452 472.975,128.208 472.124,128.815 C469.32,136.004 462.375,146.241 446.658,146.241 C426.678,146.241 410.471,132.104 410.471,106.52 C410.471,81.299 426.312,69.481 444.953,69.481 C462.621,69.481 468.103,78.983 469.93,87.27 C470.78,87.999 472.61,87.878 473.218,87.026 C472.245,79.594 471.637,71.919 471.513,69.116 C470.415,69.237 469.564,68.993 468.103,68.629 C462.375,67.045 453.115,65.706 446.536,65.706 C433.865,65.706 422.535,69.116 413.641,76.059 Z M446.789,5.385 C447.063,5.108 447.109,4.626 447.064,4.297 C447.015,3.927 446.851,3.646 446.603,3.503 L446.502,3.445 L446.385,3.452 C444.684,3.554 443.126,3.602 441.483,3.602 C439.488,3.602 437.573,3.547 436.231,3.452 L436.112,3.444 L436.009,3.504 C435.729,3.665 435.538,4.001 435.5,4.403 C435.46,4.808 435.59,5.182 435.848,5.405 L435.939,5.485 L436.971,5.599 C438.746,5.802 438.91,6.174 438.911,6.174 C438.911,6.506 438.862,7.015 438.481,8.014 C437.607,10.225 435.187,16.038 433.767,19.374 C433.391,20.238 432.916,21.364 432.392,22.606 C431.43,24.887 430.258,27.665 429.262,29.847 C426.859,24.329 424.646,18.792 422.402,13.134 C420.916,9.489 420.063,6.838 419.904,6.178 C419.982,6.017 420.422,5.798 421.94,5.598 L422.816,5.482 L422.904,5.406 C423.163,5.184 423.294,4.81 423.255,4.405 C423.217,4.002 423.025,3.665 422.745,3.504 L422.646,3.446 L422.531,3.452 C420.272,3.559 418.497,3.602 416.406,3.602 C414.287,3.602 412.667,3.556 411.152,3.452 L411.026,3.444 L410.92,3.511 C410.625,3.695 410.432,4.037 410.4,4.426 C410.37,4.814 410.508,5.18 410.767,5.405 L410.859,5.485 L411.895,5.599 C413.869,5.829 414.542,6.734 415.69,9.523 L424.625,31.552 C425.688,34.191 426.468,36.446 426.942,38.257 L426.991,38.446 L427.173,38.52 C427.468,38.64 427.773,38.7 428.081,38.7 C428.373,38.7 428.649,38.623 428.858,38.483 L428.973,38.407 L429.014,38.277 C429.885,35.551 432.321,29.567 434.278,25.066 L437.019,18.822 C439.372,13.484 441.33,9.461 442.68,7.192 C443.326,6.148 444.005,5.686 445.014,5.601 L446.685,5.49 L446.789,5.385 Z M481.615,30.671 L481.64,30.549 L481.588,30.435 C481.369,29.947 480.83,29.728 480.394,29.728 C480.143,29.728 479.916,29.795 479.738,29.922 L479.616,30.066 C478.16,32.972 476.85,34.444 476.185,34.814 C475.094,35.359 473.558,35.535 469.86,35.535 C465.63,35.535 464.543,35.029 464.005,34.491 C463.284,33.726 463.143,32.073 463.143,29.478 L463.143,22.321 C463.143,21.338 463.143,21.338 464.429,21.338 L467.375,21.338 C469.148,21.338 470.474,21.379 471.188,21.581 C471.894,21.757 472.255,22.216 472.479,23.22 L472.933,25.197 L473.012,25.359 C473.202,25.588 473.559,25.726 473.964,25.726 C474.429,25.726 474.806,25.55 474.973,25.257 L475.024,25.167 L475.024,25.063 C475.024,24.567 474.985,23.912 474.941,23.177 C474.885,22.252 474.821,21.203 474.821,20.187 C474.821,19.125 474.885,18.038 474.939,17.08 C474.985,16.304 475.024,15.607 475.024,15.061 L475.024,14.958 L474.974,14.868 C474.806,14.573 474.428,14.396 473.962,14.396 C473.558,14.396 473.202,14.533 473.012,14.762 L472.523,17.017 C472.294,18.177 472.009,18.35 471.566,18.497 C471.022,18.679 469.494,18.783 467.375,18.783 L464.429,18.783 C463.143,18.783 463.143,18.783 463.143,17.75 L463.143,7.597 C463.143,5.956 463.143,5.956 464.279,5.956 L467.933,5.956 C470.088,5.956 471.734,6.006 472.765,6.251 C475.078,6.83 475.543,8.294 476.247,10.509 L476.344,10.814 L476.415,10.943 C476.588,11.153 476.881,11.269 477.241,11.269 C477.592,11.269 478.081,11.149 478.307,10.812 L478.384,10.697 L478.316,9.951 C478.054,6.993 477.813,4.482 477.539,3.711 L477.42,3.378 L477.077,3.462 C476.513,3.602 473.364,3.602 470.32,3.602 L460.775,3.602 C458.818,3.602 457.145,3.56 454.804,3.452 L454.703,3.447 L454.614,3.491 C454.196,3.696 454.125,4.291 454.113,4.468 C454.084,4.913 454.212,5.265 454.465,5.435 L455.449,5.599 C458.046,5.906 458.201,6.244 458.201,11.61 L458.201,29.886 C458.201,35.387 457.885,35.626 455.407,35.843 L453.595,36.007 L453.494,36.107 C453.206,36.394 453.161,36.866 453.217,37.213 C453.277,37.589 453.451,37.876 453.695,37.998 L453.784,38.043 L453.884,38.039 C456.816,37.943 458.584,37.888 460.775,37.888 L465.344,37.888 C469.773,37.888 474.222,37.937 478.942,38.039 L479.193,38.045 L479.303,37.818 C479.984,36.393 481.26,32.453 481.615,30.671 Z M507.852,19.219 C506.401,20.317 504.423,20.459 502.861,20.459 C500.568,20.459 499.862,20.372 499.652,20.309 C499.594,20.098 499.594,19.5 499.594,18.919 L499.594,7.039 C499.594,5.898 499.594,5.804 502.504,5.804 C508.212,5.804 510.236,9.807 510.236,13.233 C510.236,16.047 509.478,17.95 507.852,19.219 Z M523.152,38.11 C523.387,37.925 523.506,37.625 523.461,37.326 C523.419,37.049 523.248,36.826 523.002,36.73 L522.889,36.704 C521.678,36.616 520.454,36.12 519.608,35.372 C516.113,32.441 513.332,28.16 509.486,21.961 C509.22,21.533 509.182,21.336 509.188,21.253 C510.875,20.549 515.639,18.062 515.639,12.47 C515.639,8.218 513.231,6.07 511.217,5.02 C508.671,3.638 505.409,3.451 502.555,3.451 C497.906,3.451 494.299,3.581 491.2,3.857 L491.06,3.897 C490.765,4.045 490.569,4.372 490.537,4.772 C490.502,5.208 490.664,5.626 490.952,5.834 L491.033,5.894 L492.759,6.106 C494.414,6.308 494.652,6.666 494.652,11.657 L494.652,29.886 C494.652,35.254 494.526,35.532 491.95,35.844 L490.529,36.013 L490.43,36.128 C490.143,36.462 490.114,36.946 490.183,37.288 C490.252,37.631 490.42,37.883 490.655,37.999 L490.744,38.043 L490.844,38.039 C493.101,37.946 494.947,37.888 497.173,37.888 C499.271,37.888 501.034,37.946 503.199,38.039 L503.3,38.044 L503.39,37.998 C503.763,37.813 503.855,37.325 503.879,37.125 C503.929,36.676 503.812,36.286 503.563,36.082 L503.479,36.012 L502.304,35.845 C499.695,35.482 499.594,35.26 499.594,29.886 L499.594,23.487 C499.594,22.762 499.594,22.762 501.589,22.762 C503.539,22.762 504.201,23.23 504.874,24.216 C505.646,25.337 506.543,26.758 507.412,28.133 C508.32,29.569 509.177,30.925 509.853,31.884 C513.34,36.852 515.971,38.445 520.68,38.445 C521.659,38.445 522.517,38.347 523.033,38.175 L523.152,38.11 Z M535.94,10.391 C535.94,8.432 536.675,5.144 541.594,5.144 C546.07,5.144 547.435,8.057 548.123,10.594 L548.198,10.739 C548.36,10.938 548.634,11.047 548.966,11.047 C549.35,11.047 549.865,10.893 550.089,10.552 L550.153,10.455 L550.153,10.338 C550.153,8.264 549.726,5.365 549.22,4.007 L549.125,3.753 L548.854,3.753 C548.496,3.753 547.82,3.664 547.173,3.465 C545.961,3.139 544.059,2.791 542.355,2.791 C535.928,2.791 531.608,6.456 531.608,11.911 C531.608,16.548 535.152,19.578 537.266,20.971 L542.09,24.122 C545.596,26.377 546.078,28.713 546.078,30.901 C546.078,33.612 544.236,36.347 540.12,36.347 C534.982,36.347 532.739,32.385 531.762,29.062 L531.712,28.955 C531.56,28.728 531.285,28.604 530.938,28.604 C530.601,28.604 530.115,28.733 529.854,29.099 L529.776,29.208 L529.781,29.342 C529.878,31.637 530.53,35.395 531.198,36.619 L531.25,36.715 L531.345,36.77 C532.339,37.351 535.123,38.7 539.46,38.7 C546.162,38.7 550.664,34.769 550.664,28.918 C550.664,24.858 548.528,21.563 544.136,18.842 L540.072,16.302 C538.529,15.345 535.94,13.304 535.94,10.391 Z M530.968,111.879 L515.982,111.879 C512.57,111.879 512.449,111.758 513.423,108.958 L521.1,87.756 C522.439,84.102 523.656,81.176 524.021,80.567 L524.267,80.567 C524.999,82.028 526.094,85.321 527.066,88.243 L533.647,108.102 C534.745,111.393 534.502,111.879 530.968,111.879 Z M562.402,145.02 C557.162,144.411 555.58,142.583 552.045,132.104 L535.353,83.126 C533.527,77.766 531.578,72.161 529.991,66.799 C529.748,65.948 528.896,65.704 528.166,65.704 C526.823,67.288 524.755,69.481 521.829,70.335 C522.197,72.284 521.465,74.596 519.758,78.983 L507.332,111.879 C502.214,125.526 498.802,133.446 496.607,139.049 C494.904,143.436 492.224,144.778 489.3,145.02 L485.278,145.385 C484.548,145.995 484.792,147.946 485.524,148.432 C488.813,148.311 493.197,148.067 497.218,148.067 C502.944,148.188 506.725,148.188 509.892,148.432 C510.986,147.946 510.986,145.995 510.134,145.385 L506.113,145.02 C503.188,144.778 502.578,144.045 502.578,142.583 C502.578,141.243 503.433,137.954 505.26,132.469 L509.523,119.678 C510.378,117.118 511.107,116.754 514.153,116.754 L532.551,116.754 C536.205,116.754 536.694,117.118 537.549,119.799 L542.907,136.37 C543.884,139.293 544.491,141.487 544.491,142.827 C544.491,144.045 542.786,144.778 540.23,145.02 L536.694,145.385 C535.84,145.995 535.962,147.946 536.938,148.432 C540.472,148.311 545.1,148.067 550.948,148.067 C556.431,148.067 560.696,148.188 565.691,148.432 C566.299,147.946 566.542,145.995 565.691,145.385 L562.402,145.02 Z M570.767,29.783 L570.767,11.71 C570.767,6.162 570.92,5.819 573.5,5.601 L574.875,5.492 L574.959,5.435 C575.212,5.266 575.341,4.915 575.313,4.472 C575.301,4.294 575.23,3.698 574.813,3.492 L574.726,3.448 L574.626,3.452 C572.225,3.547 570.428,3.602 568.346,3.602 C566.167,3.602 564.422,3.549 561.963,3.452 L561.863,3.448 L561.772,3.493 C561.358,3.7 561.289,4.298 561.277,4.476 C561.249,4.917 561.378,5.267 561.63,5.435 L561.715,5.492 L563.083,5.6 C565.671,5.819 565.824,6.162 565.824,11.71 L565.824,29.783 C565.824,35.249 565.695,35.532 563.07,35.844 L561.666,36.012 L561.571,36.107 C561.283,36.396 561.24,36.868 561.295,37.215 C561.355,37.59 561.529,37.876 561.771,37.998 L561.862,38.043 L561.963,38.039 C564.547,37.939 566.243,37.888 568.346,37.888 C570.362,37.888 572.043,37.939 574.626,38.039 L574.726,38.043 L574.814,37.998 C575.232,37.791 575.302,37.193 575.313,37.015 C575.34,36.575 575.211,36.226 574.959,36.059 L573.516,35.844 C570.895,35.532 570.767,35.249 570.767,29.783 Z M617.051,2.824 L617.088,2.683 L617.024,2.551 C616.838,2.173 616.313,2.131 616.094,2.131 C615.967,2.131 615.78,2.145 615.616,2.21 L615.489,2.261 L615.421,2.379 C614.77,3.51 614.499,3.602 611.798,3.602 L590.813,3.602 C588.54,3.602 587.521,3.483 587.311,2.348 L587.288,2.228 L587.201,2.142 C587.06,2.001 586.831,1.934 586.501,1.934 C586.38,1.934 585.969,1.944 585.744,2.094 L585.604,2.187 L585.576,2.352 C585.22,4.38 584.469,7.594 583.663,9.854 L583.607,10.011 L583.682,10.16 C583.989,10.772 585.028,11.07 585.586,10.651 L585.668,10.589 L585.71,10.495 C586.227,9.32 586.714,8.209 587.898,7.123 C589.019,6.095 591.552,5.956 593.882,5.956 L596.675,5.956 C597.806,5.956 597.806,5.956 597.806,7.189 L597.806,29.886 C597.806,35.387 597.489,35.626 595.016,35.843 L593.188,35.995 L593.017,36.05 C592.713,36.237 592.543,36.617 592.563,37.068 C592.579,37.41 592.715,37.834 593.048,37.999 L593.136,38.042 L593.233,38.039 C596.34,37.945 598.215,37.888 600.276,37.888 C602.261,37.888 603.898,37.936 606.912,38.039 L607.01,38.043 L607.099,37.999 C607.517,37.793 607.587,37.197 607.599,37.019 C607.627,36.577 607.498,36.227 607.245,36.059 L605.439,35.843 C602.899,35.624 602.75,35.29 602.75,29.886 L602.75,7.126 C602.748,6.611 602.748,6.125 602.831,6.042 C602.917,5.956 603.468,5.956 603.833,5.956 L607.436,5.956 C610.155,5.956 612.007,6.346 613.093,7.149 C613.572,7.501 613.987,8.787 614.206,10.588 L614.219,10.701 L614.291,10.789 C614.478,11.016 614.821,11.151 615.213,11.151 C615.695,11.151 616.098,10.944 616.263,10.612 L616.313,10.512 L616.301,10.4 C616.153,8.943 616.504,4.855 617.051,2.824 Z M637.821,67.532 C635.748,67.045 629.291,65.706 622.346,65.706 C603.947,65.706 591.886,71.428 583.724,79.96 C576.17,87.999 572.756,98.477 572.756,108.834 C572.756,119.557 576.657,129.18 583.967,136.491 C593.348,145.995 606.629,150.016 621.127,150.016 C627.707,150.016 636.479,148.553 642.938,146.848 C645.251,146.241 647.446,145.751 648.904,145.751 C649.395,145.385 649.395,144.653 649.029,144.29 C646.838,143.436 646.105,140.514 646.105,135.639 L646.105,128.815 C646.105,122.602 646.228,119.192 651.343,118.581 L653.295,118.336 C654.146,117.608 654.023,115.78 653.173,115.292 C649.151,115.534 645.007,115.655 640.257,115.655 C633.067,115.655 626.367,115.534 622.834,115.292 C621.98,115.655 621.858,117.852 622.834,118.336 L628.195,118.948 C635.748,119.799 636.113,120.532 636.113,130.764 L636.113,135.639 C636.113,139.538 635.505,141.731 634.897,142.583 C633.554,144.653 629.049,146.241 621.491,146.241 C597.002,146.241 584.939,127.838 584.939,104.448 C584.939,86.172 595.3,69.358 618.935,69.358 C631.362,69.358 640.499,73.503 643.912,86.659 C644.644,87.391 646.838,87.27 647.202,86.294 C646.105,78.983 645.373,72.647 645.373,68.629 C643.912,68.872 640.135,68.018 637.821,67.532 Z M655.612,5.405 C655.871,5.18 656.009,4.814 655.979,4.425 C655.95,4.037 655.757,3.695 655.463,3.511 L655.357,3.445 L655.233,3.452 C651.623,3.662 649.496,3.661 645.681,3.452 L645.577,3.446 L645.483,3.493 C645.201,3.635 645.006,3.921 644.948,4.277 C644.882,4.687 645.009,5.111 645.28,5.385 L645.378,5.483 L646.424,5.598 C647.41,5.721 648.023,5.962 648.202,6.095 C648.042,6.822 646.267,10.116 645.189,12.115 L644.957,12.547 C643.734,14.911 642.323,17.458 640.538,20.52 C639.201,18.103 637.896,15.445 636.632,12.868 C636.135,11.857 635.64,10.85 635.145,9.86 C634.778,9.126 633.631,6.531 633.611,6.127 C633.611,6.025 633.846,5.821 635.413,5.597 L636.201,5.477 L636.293,5.385 C636.567,5.108 636.686,4.608 636.578,4.17 C636.495,3.822 636.276,3.567 635.98,3.471 L635.906,3.446 L635.829,3.453 C634.584,3.551 632.768,3.602 630.428,3.602 C628.078,3.602 626.216,3.554 624.566,3.452 L624.45,3.445 L624.348,3.503 C624.1,3.646 623.93,3.912 623.871,4.253 C623.802,4.66 623.907,5.086 624.146,5.365 L624.237,5.47 L625.797,5.747 C627.142,5.974 627.816,6.087 629.525,9.397 L635.513,21.078 C636.947,23.841 637.096,24.413 637.096,27.195 L637.096,29.783 C637.096,35.293 636.97,35.576 634.402,35.844 L632.688,36.008 L632.59,36.108 C632.301,36.399 632.259,36.873 632.316,37.22 C632.378,37.594 632.553,37.877 632.796,37.998 L632.884,38.043 L632.983,38.039 C635.719,37.939 637.497,37.888 639.619,37.888 C641.68,37.888 643.498,37.945 646.511,38.039 L646.609,38.043 L646.696,37.998 C646.941,37.877 647.117,37.59 647.177,37.214 C647.233,36.867 647.188,36.394 646.897,36.106 L646.796,36.005 L644.726,35.843 C642.377,35.666 642.04,35.279 642.04,29.783 L642.04,27.141 C642.04,23.337 642.148,22.962 644.372,19.114 L647.571,13.581 C647.862,13.081 648.14,12.597 648.406,12.13 C650.402,8.642 651.845,6.121 654.002,5.747 L655.531,5.476 L655.612,5.405 Z M682.532,104.813 C682.532,78.131 698.979,69.481 711.651,69.481 C734.922,69.481 743.816,91.167 743.816,111.272 C743.816,135.272 729.927,146.241 715.306,146.241 C691.305,146.241 682.532,122.844 682.532,104.813 Z M670.349,108.711 C670.349,130.643 686.674,150.016 713.722,150.016 C737.238,150.016 756,132.104 756,107.493 C756,86.051 741.865,65.704 713.722,65.704 C688.624,65.704 670.349,84.346 670.349,108.711 Z M711.874,22.168 C711.874,32.633 705.685,36.346 700.386,36.346 C689.911,36.346 687.115,25.742 687.115,19.477 C687.115,8.897 693.443,5.144 698.862,5.144 C708.467,5.144 711.874,14.315 711.874,22.168 Z M717.731,20.591 C717.731,12.018 712.097,2.791 699.724,2.791 C689.197,2.791 681.259,10.663 681.259,21.102 C681.259,29.847 687.602,38.7 699.724,38.7 C709.99,38.7 717.731,30.915 717.731,20.591 Z M751.806,10.718 L751.854,10.625 L751.848,10.52 C751.747,8.684 751.691,6.312 751.691,3.841 L751.691,3.353 L751.214,3.461 C750.6,3.602 747.473,3.602 744.45,3.602 L735.106,3.602 C733.195,3.602 731.496,3.559 729.24,3.452 L729.141,3.447 L729.05,3.491 C728.63,3.697 728.561,4.293 728.549,4.471 C728.52,4.915 728.649,5.267 728.905,5.436 L729.883,5.598 C732.46,5.909 732.586,6.189 732.586,11.61 L732.586,29.886 C732.586,35.254 732.46,35.533 729.884,35.844 L728.482,36.012 L728.387,36.106 C728.097,36.392 728.052,36.864 728.107,37.21 C728.167,37.588 728.341,37.875 728.584,37.998 L728.675,38.044 L728.776,38.039 C731.153,37.941 732.866,37.888 735.106,37.888 C737.156,37.888 738.915,37.943 741.848,38.039 L741.945,38.043 L742.034,37.998 C742.367,37.832 742.51,37.38 742.532,37.012 C742.559,36.572 742.429,36.225 742.174,36.058 L740.27,35.843 C737.682,35.624 737.527,35.29 737.527,29.886 L737.527,22.827 C737.527,21.846 737.527,21.846 738.813,21.846 L742.267,21.846 C744.048,21.846 745.376,21.887 746.057,22.082 C746.77,22.309 747.154,22.775 747.424,23.734 L747.958,25.837 L748.052,25.917 C748.555,26.349 749.631,26.325 749.953,25.836 L750.019,25.738 L750.019,25.621 C750.019,25.094 749.979,24.416 749.934,23.662 C749.879,22.741 749.817,21.698 749.817,20.695 C749.817,19.667 749.879,18.579 749.933,17.62 C749.978,16.831 750.019,16.118 750.019,15.568 L750.019,15.451 L749.953,15.353 C749.713,14.989 749.197,14.95 748.987,14.95 C748.565,14.95 748.199,15.087 748.006,15.317 L747.471,17.511 C747.186,18.742 746.844,18.864 746.457,19.003 C745.921,19.183 744.354,19.29 742.267,19.29 L738.813,19.29 C737.527,19.29 737.527,19.29 737.527,18.311 L737.527,7.597 C737.527,5.956 737.527,5.956 738.663,5.956 L741.759,5.956 C743.857,5.956 745.514,5.956 746.584,6.25 C748.761,6.816 749.412,8.273 749.852,10.763 L749.876,10.9 L749.981,10.991 C750.177,11.159 750.449,11.252 750.749,11.252 C751.141,11.252 751.619,11.087 751.806,10.718 L751.806,10.718 Z" id="Fill-1"></path>
        </g>
    </g>
</svg>