<?xml version="1.0" encoding="UTF-8"?>
<svg width="59px" height="26px" viewBox="0 0 59 26" version="1.1" xmlns="http://www.w3.org/2000/svg" xmlns:xlink="http://www.w3.org/1999/xlink">
    <title>yale-university-logo</title>
    <g id="Page-1" stroke="none" stroke-width="1" fill="none" fill-rule="evenodd">
        <g id="yale-university-logo" fill="#000000" fill-rule="nonzero">
            <path d="M19.5,5.4 L13.6,15.4 L13.6,22.1 C14.3,23.7 16,23.9 17.7,24 L17.7,25 L6,25 L6,24.1 C7.7,24 9.7,23.8 10.2,22.7 L10.2,15.8 L4.2,5.6 C3.1,3.8 2.1,3.2 0.1,3 L0.1,2.1 L10.2,2.1 L10.2,3 C8.3,3.2 7.7,3.5 7.2,3.9 L12.8,13.6 L18.3,4 C17.7,3.5 16.9,3.2 15,3 L15,2.1 L23.6,2.1 L23.6,3 C21.7,3.1 20.5,3.8 19.5,5.4 Z M31.3,25.3 C29.4,25.3 28.4,24 28.3,23 C27.1,24.3 25.5,25.3 24,25.3 C22.1,25.3 20.4,24.1 20.4,22.1 C20.4,21.1 20.7,20 21.2,19.2 L28.4,16.6 L28.4,13.9 C28.4,12.3 27.6,10.7 26,10.7 C25,10.7 24.1,11.9 24,13.7 L20.8,14.2 L20.8,14 C21.9,10.8 25.4,9.5 27.2,9.5 C30.5,9.5 31.7,11.2 31.6,13.9 L31.5,21.5 C31.5,23 32.3,23.3 33,23.3 C33.6,23.3 34.2,22.9 34.8,22.3 L34.8,23.3 C34,24.2 32.6,25.3 31.3,25.3 Z M24.1,19.5 C24,20.1 23.8,20.6 23.8,21.4 C23.8,22.5 24.4,23.6 25.6,23.6 C26.7,23.6 27.3,23.2 28.3,22.5 L28.3,17.6 C27.4,17.9 25.1,19 24.1,19.5 Z M35.1,25 L35.1,24.2 C36.7,24.1 37.2,23.7 37.5,23.1 L37.5,4.4 C37.5,3.2 37.3,2.7 34.8,2.5 L34.8,1.8 L41.4,0.1 L41.6,0.7 L40.6,2 L40.6,23.1 C41,23.8 41.6,24.1 43.1,24.2 L43.1,25 L35.1,25 Z M51.7,25.3 C47.9,25.3 45,22.3 45,18.1 C45,13 48.1,9.5 52.6,9.5 C56.2,9.5 58.1,11.5 58.1,14.7 L58.1,15.3 L48.4,15.2 C48.3,15.6 48.3,16.2 48.3,17 C48.3,20.7 50.6,23.1 53.7,23.1 C55.5,23.1 56.5,22.5 57.9,21.2 L58.4,22 C56.4,24.1 54.7,25.3 51.7,25.3 Z M52,10.6 C50.2,10.6 48.9,12 48.5,14.3 L54.8,14.2 C54.9,12.4 53.7,10.6 52,10.6 Z" id="Shape"></path>
        </g>
    </g>
</svg>