<?xml version="1.0" encoding="UTF-8"?>
<svg width="885px" height="549px" viewBox="0 0 885 549" version="1.1" xmlns="http://www.w3.org/2000/svg" xmlns:xlink="http://www.w3.org/1999/xlink" style="background: #FFFFFF;">
    <title>figure26-4</title>
    <g id="Page-1" stroke="none" stroke-width="1" fill="none" fill-rule="evenodd">
        <g id="Group-7" transform="translate(14.000000, 277.000000)">
            <path d="M10.2555408,1.85274923e-15 L195.193657,-6.69212039e-15 C198.759732,3.88831467e-15 200.052877,0.371302445 201.356581,1.06853082 C202.660284,1.76575919 203.683439,2.78891348 204.380667,4.09261719 C205.077895,5.39632089 205.449198,6.68946584 205.449198,10.2555408 L205.449198,92.7444592 C205.449198,96.3105342 205.077895,97.6036791 204.380667,98.9073828 C203.683439,100.211087 202.660284,101.234241 201.356581,101.931469 C200.052877,102.628698 198.759732,103 195.193657,103 L10.2555408,103 C6.68946584,103 5.39632089,102.628698 4.09261719,101.931469 C2.78891348,101.234241 1.76575919,100.211087 1.06853082,98.9073828 C0.371302445,97.6036791 -1.15674773e-15,96.3105342 1.99086127e-15,92.7444592 L2.76224082e-16,10.2555408 C-1.60494146e-16,6.68946584 0.371302445,5.39632089 1.06853082,4.09261719 C1.76575919,2.78891348 2.78891348,1.76575919 4.09261719,1.06853082 C5.39632089,0.371302445 6.68946584,-1.07650066e-15 10.2555408,1.85274923e-15 Z" id="Rectangle-Copy" stroke="#979797" stroke-width="2" fill="#D8D8D8"></path>
            <text id="Prepucial-skin-avail" font-family="Montserrat-Bold, Montserrat" font-size="16" font-weight="bold" fill="#232526">
                <tspan x="43.424" y="48">Prepucial skin</tspan>
                <tspan x="65.616" y="67">available</tspan>
            </text>
        </g>
        <g id="Group-4" transform="translate(13.775401, 432.000000)">
            <path d="M10.2555408,1.85274923e-15 L195.193657,-6.69212039e-15 C198.759732,3.88831467e-15 200.052877,0.371302445 201.356581,1.06853082 C202.660284,1.76575919 203.683439,2.78891348 204.380667,4.09261719 C205.077895,5.39632089 205.449198,6.68946584 205.449198,10.2555408 L205.449198,92.7444592 C205.449198,96.3105342 205.077895,97.6036791 204.380667,98.9073828 C203.683439,100.211087 202.660284,101.234241 201.356581,101.931469 C200.052877,102.628698 198.759732,103 195.193657,103 L10.2555408,103 C6.68946584,103 5.39632089,102.628698 4.09261719,101.931469 C2.78891348,101.234241 1.76575919,100.211087 1.06853082,98.9073828 C0.371302445,97.6036791 -1.15674773e-15,96.3105342 1.99086127e-15,92.7444592 L2.76224082e-16,10.2555408 C-1.60494146e-16,6.68946584 0.371302445,5.39632089 1.06853082,4.09261719 C1.76575919,2.78891348 2.78891348,1.76575919 4.09261719,1.06853082 C5.39632089,0.371302445 6.68946584,-1.07650066e-15 10.2555408,1.85274923e-15 Z" id="Rectangle-Copy-3" stroke="#979797" stroke-width="2" fill="#D8D8D8"></path>
            <text id="Single-stage-Prepuci" font-family="Montserrat-Bold, Montserrat" font-size="16" font-weight="bold" fill="#232526">
                <tspan x="51.0525989" y="37">Single stage</tspan>
                <tspan x="39.2525989" y="56">Prepucial flap / </tspan>
                <tspan x="59.8365989" y="75">inlay graft</tspan>
            </text>
        </g>
        <g id="Group-5" transform="translate(311.775401, 432.000000)">
            <path d="M10.2555408,1.85274923e-15 L195.193657,-6.69212039e-15 C198.759732,3.88831467e-15 200.052877,0.371302445 201.356581,1.06853082 C202.660284,1.76575919 203.683439,2.78891348 204.380667,4.09261719 C205.077895,5.39632089 205.449198,6.68946584 205.449198,10.2555408 L205.449198,92.7444592 C205.449198,96.3105342 205.077895,97.6036791 204.380667,98.9073828 C203.683439,100.211087 202.660284,101.234241 201.356581,101.931469 C200.052877,102.628698 198.759732,103 195.193657,103 L10.2555408,103 C6.68946584,103 5.39632089,102.628698 4.09261719,101.931469 C2.78891348,101.234241 1.76575919,100.211087 1.06853082,98.9073828 C0.371302445,97.6036791 -1.15674773e-15,96.3105342 1.99086127e-15,92.7444592 L2.76224082e-16,10.2555408 C-1.60494146e-16,6.68946584 0.371302445,5.39632089 1.06853082,4.09261719 C1.76575919,2.78891348 2.78891348,1.76575919 4.09261719,1.06853082 C5.39632089,0.371302445 6.68946584,-1.07650066e-15 10.2555408,1.85274923e-15 Z" id="Rectangle-Copy-4" stroke="#979797" stroke-width="2" fill="#D8D8D8"></path>
            <text id="Single-stage-BMG-Inl" font-family="Montserrat-Bold, Montserrat" font-size="16" font-weight="bold" fill="#232526">
                <tspan x="28.8605989" y="48">Single stage BMG</tspan>
                <tspan x="52.6365989" y="67">Inlay/ Onlay</tspan>
            </text>
        </g>
        <g id="Group-5-Copy" transform="translate(664.775401, 432.000000)">
            <path d="M10.2555408,1.85274923e-15 L195.193657,-6.69212039e-15 C198.759732,3.88831467e-15 200.052877,0.371302445 201.356581,1.06853082 C202.660284,1.76575919 203.683439,2.78891348 204.380667,4.09261719 C205.077895,5.39632089 205.449198,6.68946584 205.449198,10.2555408 L205.449198,92.7444592 C205.449198,96.3105342 205.077895,97.6036791 204.380667,98.9073828 C203.683439,100.211087 202.660284,101.234241 201.356581,101.931469 C200.052877,102.628698 198.759732,103 195.193657,103 L10.2555408,103 C6.68946584,103 5.39632089,102.628698 4.09261719,101.931469 C2.78891348,101.234241 1.76575919,100.211087 1.06853082,98.9073828 C0.371302445,97.6036791 -1.15674773e-15,96.3105342 1.99086127e-15,92.7444592 L2.76224082e-16,10.2555408 C-1.60494146e-16,6.68946584 0.371302445,5.39632089 1.06853082,4.09261719 C1.76575919,2.78891348 2.78891348,1.76575919 4.09261719,1.06853082 C5.39632089,0.371302445 6.68946584,-1.07650066e-15 10.2555408,1.85274923e-15 Z" id="Rectangle-Copy-4" stroke="#979797" stroke-width="2" fill="#D8D8D8"></path>
            <text id="Excise-scar/strictur" font-family="Montserrat-Bold, Montserrat" font-size="16" font-weight="bold" fill="#232526">
                <tspan x="17.6205989" y="48">Excise scar/stricture</tspan>
                <tspan x="37.2765989" y="67">Two stage BMG</tspan>
            </text>
        </g>
        <g id="Group-6" transform="translate(312.000000, 277.000000)">
            <path d="M10.2555408,1.85274923e-15 L195.193657,-6.69212039e-15 C198.759732,3.88831467e-15 200.052877,0.371302445 201.356581,1.06853082 C202.660284,1.76575919 203.683439,2.78891348 204.380667,4.09261719 C205.077895,5.39632089 205.449198,6.68946584 205.449198,10.2555408 L205.449198,92.7444592 C205.449198,96.3105342 205.077895,97.6036791 204.380667,98.9073828 C203.683439,100.211087 202.660284,101.234241 201.356581,101.931469 C200.052877,102.628698 198.759732,103 195.193657,103 L10.2555408,103 C6.68946584,103 5.39632089,102.628698 4.09261719,101.931469 C2.78891348,101.234241 1.76575919,100.211087 1.06853082,98.9073828 C0.371302445,97.6036791 -1.15674773e-15,96.3105342 1.99086127e-15,92.7444592 L2.76224082e-16,10.2555408 C-1.60494146e-16,6.68946584 0.371302445,5.39632089 1.06853082,4.09261719 C1.76575919,2.78891348 2.78891348,1.76575919 4.09261719,1.06853082 C5.39632089,0.371302445 6.68946584,-1.07650066e-15 10.2555408,1.85274923e-15 Z" id="Rectangle-Copy-5" stroke="#979797" stroke-width="2" fill="#D8D8D8"></path>
            <text id="No-residual-Penile-s" font-family="Montserrat-Bold, Montserrat" font-size="16" font-weight="bold" fill="#232526">
                <tspan x="55.004" y="48">No residual</tspan>
                <tspan x="56.476" y="67">Penile skin</tspan>
            </text>
        </g>
        <g id="Group" transform="translate(460.652406, 13.000000)">
            <path d="M10.2555408,-4.14336123e-16 L103.439646,4.14336123e-16 C107.005721,-2.4074122e-16 108.298866,0.371302445 109.60257,1.06853082 C110.906274,1.76575919 111.929428,2.78891348 112.626656,4.09261719 C113.323885,5.39632089 113.695187,6.68946584 113.695187,10.2555408 L113.695187,46.7444592 C113.695187,50.3105342 113.323885,51.6036791 112.626656,52.9073828 C111.929428,54.2110865 110.906274,55.2342408 109.60257,55.9314692 C108.298866,56.6286976 107.005721,57 103.439646,57 L10.2555408,57 C6.68946584,57 5.39632089,56.6286976 4.09261719,55.9314692 C2.78891348,55.2342408 1.76575919,54.2110865 1.06853082,52.9073828 C0.371302445,51.6036791 -1.02954229e-16,50.3105342 1.77192988e-16,46.7444592 L7.29641152e-16,10.2555408 C-4.23942521e-16,6.68946584 0.371302445,5.39632089 1.06853082,4.09261719 C1.76575919,2.78891348 2.78891348,1.76575919 4.09261719,1.06853082 C5.39632089,0.371302445 6.68946584,2.4074122e-16 10.2555408,-4.14336123e-16 Z" id="Rectangle" stroke="#979797" stroke-width="2" fill="#D8D8D8"></path>
            <text id="HAUS" font-family="Montserrat-Bold, Montserrat" font-size="16" font-weight="bold" fill="#232526">
                <tspan x="33.3475936" y="34">HAUS</tspan>
            </text>
        </g>
        <g id="Group-3" transform="translate(162.775401, 122.000000)">
            <path d="M10.2555408,9.45915086e-16 L195.193657,1.32117026e-15 C198.759732,-7.67637969e-16 200.052877,0.371302445 201.356581,1.06853082 C202.660284,1.76575919 203.683439,2.78891348 204.380667,4.09261719 C205.077895,5.39632089 205.449198,6.68946584 205.449198,10.2555408 L205.449198,92.7444592 C205.449198,96.3105342 205.077895,97.6036791 204.380667,98.9073828 C203.683439,100.211087 202.660284,101.234241 201.356581,101.931469 C200.052877,102.628698 198.759732,103 195.193657,103 L10.2555408,103 C6.68946584,103 5.39632089,102.628698 4.09261719,101.931469 C2.78891348,101.234241 1.76575919,100.211087 1.06853082,98.9073828 C0.371302445,97.6036791 1.7411844e-15,96.3105342 -2.9967265e-15,92.7444592 L2.76224082e-16,10.2555408 C-1.60494146e-16,6.68946584 0.371302445,5.39632089 1.06853082,4.09261719 C1.76575919,2.78891348 2.78891348,1.76575919 4.09261719,1.06853082 C5.39632089,0.371302445 6.68946584,-5.49603905e-16 10.2555408,9.45915086e-16 Z" id="Rectangle-Copy" stroke="#979797" stroke-width="2" fill="#D8D8D8"></path>
            <text id="Short-stricture-+-Go" font-family="Montserrat-Bold, Montserrat" font-size="16" font-weight="bold" fill="#232526">
                <tspan x="34.8205989" y="38">Short stricture +</tspan>
                <tspan x="13.7725989" y="57">Good urethral plate +</tspan>
                <tspan x="32.3005989" y="76">No/mild chordee</tspan>
            </text>
        </g>
        <g id="Group-2" transform="translate(664.775401, 122.000000)">
            <path d="M10.2555408,9.45915086e-16 L195.193657,1.32117026e-15 C198.759732,-7.67637969e-16 200.052877,0.371302445 201.356581,1.06853082 C202.660284,1.76575919 203.683439,2.78891348 204.380667,4.09261719 C205.077895,5.39632089 205.449198,6.68946584 205.449198,10.2555408 L205.449198,92.7444592 C205.449198,96.3105342 205.077895,97.6036791 204.380667,98.9073828 C203.683439,100.211087 202.660284,101.234241 201.356581,101.931469 C200.052877,102.628698 198.759732,103 195.193657,103 L10.2555408,103 C6.68946584,103 5.39632089,102.628698 4.09261719,101.931469 C2.78891348,101.234241 1.76575919,100.211087 1.06853082,98.9073828 C0.371302445,97.6036791 1.7411844e-15,96.3105342 -2.9967265e-15,92.7444592 L2.76224082e-16,10.2555408 C-1.60494146e-16,6.68946584 0.371302445,5.39632089 1.06853082,4.09261719 C1.76575919,2.78891348 2.78891348,1.76575919 4.09261719,1.06853082 C5.39632089,0.371302445 6.68946584,-5.49603905e-16 10.2555408,9.45915086e-16 Z" id="Rectangle-Copy-2" stroke="#979797" stroke-width="2" fill="#D8D8D8"></path>
            <text id="Long-stricture,-scar" font-family="Montserrat-Bold, Montserrat" font-size="16" font-weight="bold" fill="#232526">
                <tspan x="41.3805989" y="28">Long stricture,</tspan>
                <tspan x="9.52459893" y="47">scarred urethral plate, </tspan>
                <tspan x="4.68459893" y="66">associated LS, chordee, </tspan>
                <tspan x="37.0205989" y="85">or hairy urethra</tspan>
            </text>
        </g>
        <path id="Line" d="M461.152406,41 L461.152406,42 L266,42 L266,114 L270,114 L265.5,123 L261,114 L265,114 L265,41 L461.152406,41 Z" fill="#979797" fill-rule="nonzero"></path>
        <path id="Line-2" d="M768,41 L768,113.999 L772,114 L767.5,123 L763,114 L767,113.999 L767,41.999 L573.847594,42 L573.847594,41 L768,41 Z" fill="#979797" fill-rule="nonzero"></path>
        <path id="Line-3" d="M768,225 L768,424 L772,424 L767.5,433 L763,424 L767,424 L767,225 L768,225 Z" fill="#979797" fill-rule="nonzero"></path>
        <path id="Line-4" d="M163.275401,173 L163.275401,174 L118,173.999 L118,268.999 L122,269 L117.5,278 L113,269 L117,268.999 L117,173 L163.275401,173 Z" fill="#979797" fill-rule="nonzero"></path>
        <path id="Line-5" d="M415.22568,173 L415.224598,173.50108 L415.018,269.001 L419.018346,269.009738 L414.49892,277.999999 L410.018367,268.990302 L414.018,268.998 L414.223,174 L367.724599,174 L367.724599,173 L415.22568,173 Z" fill="#979797" fill-rule="nonzero"></path>
        <path id="Line-6" d="M415,380 L415,424 L419,424 L414.5,433 L410,424 L414,424 L414,380 L415,380 Z" fill="#979797" fill-rule="nonzero"></path>
        <path id="Line-7" d="M118,380 L118,424 L122,424 L117.5,433 L113,424 L117,424 L117,380 L118,380 Z" fill="#979797" fill-rule="nonzero"></path>
    </g>
</svg>